{
.appVersion = "1141";
classes = (
{
code = "ka-deva kha-deva ga-deva gha-deva nga-deva\012ca-deva cha-deva ja-deva jha-deva nya-deva\012tta-deva ttha-deva dda-deva ddha-deva nna-deva\012ta-deva tha-deva da-deva dha-deva na-deva nnna-deva\012pa-deva pha-deva ba-deva bha-deva ma-deva\012ya-deva ra-deva rra-deva la-deva lla-deva llla-deva va-deva sha-deva\012ssa-deva sa-deva ha-deva\012qa-deva khha-deva ghha-deva za-deva dddha-deva rha-deva fa-deva yya-deva";
name = FullForms;
},
{

glyphs = (
{
glyphname = .notdef;
lastChange = "2019-01-30 08:38:31 +0000";
layers = (
{
layerId = "CFA4B904-E3F1-48B6-A7F6-47DC1FF2A3E1";
paths = (
{
closed = 1;
nodes = (
"139 456 LINE",
"50 0 LINE",
"357 0 LINE",
"446 456 LINE"
);
},
{
closed = 1;
nodes = (
"313 45 LINE",
"111 45 LINE",
"182 411 LINE",
"384 411 LINE"
);
}
);
width = 496;
}
);
},
{
glyphname = A;
lastChange = "2019-01-30 08:38:31 +0000";
layers = (
{
anchors = (
{
name = top.cap;
position = "{334, 560}";
}
);
background = {
paths = (
{
closed = 1;
nodes = (
"492 0 LINE",
"391 0 LINE",
"363 145 LINE",
"160 145 LINE",
"77 0 LINE",
"-17 0 LINE",
"297 550 LINE",
"392 550 LINE"
);
},
{
closed = 1;
nodes = (
"208 233 LINE",
"348 233 LINE",
"317 439 LINE"
);
}
);
};
layerId = "CFA4B904-E3F1-48B6-A7F6-47DC1FF2A3E1";
paths = (
{
closed = 1;
nodes = (
"486 0 LINE",
"391 0 LINE",
"363 145 LINE",
"157 145 LINE",
"77 0 LINE",
"-25 0 LINE",
"286 550 LINE",
"382 550 LINE"
);
},
{
closed = 1;
nodes = (
"208 233 LINE",
"350 233 LINE",
"317 439 LINE"
);
}
);
width = 536;
}
);
unicode = 0041;
},
{
glyphname = Aogonek;
lastChange = "2019-01-30 08:38:31 +0000";
layers = (
{
anchors = (
{
name = top.cap;
position = "{334, 560}";
}
);
background = {
paths = (
{
closed = 1;
nodes = (
"207 233 LINE",
"347 233 LINE",
"316 439 LINE"
);
},
{
closed = 1;
nodes = (
"159 145 LINE",
"76 0 LINE",
"-18 0 LINE",
"296 550 LINE",
"391 550 LINE",
"488 1 LINE",
"353 -38 OFFCURVE",
"323 -53 OFFCURVE",
"318 -80 CURVE SMOOTH",
"311 -112 OFFCURVE",
"323 -137 OFFCURVE",
"360 -137 CURVE SMOOTH",
"383 -137 OFFCURVE",
"412 -126 OFFCURVE",
"433 -119 CURVE",
"444 -160 LINE",
"406 -180 OFFCURVE",
"364 -200 OFFCURVE",
"307 -200 CURVE SMOOTH",
"237 -200 OFFCURVE",
"209 -159 OFFCURVE",
"219 -106 CURVE SMOOTH",
"232 -43 OFFCURVE",
"288 -13 OFFCURVE",
"386 24 CURVE",
"362 145 LINE"
);
}
);
};
layerId = "CFA4B904-E3F1-48B6-A7F6-47DC1FF2A3E1";
paths = (
{
closed = 1;
nodes = (
"323 -137 OFFCURVE",
"311 -116 OFFCURVE",
"318 -84 CURVE SMOOTH",
"323 -57 OFFCURVE",
"351 -39 OFFCURVE",
"486 0 CURVE",
"382 550 LINE",
"286 550 LINE",
"-25 0 LINE",
"77 0 LINE",
"157 145 LINE",
"363 145 LINE",
"387 21 LINE",
"289 -16 OFFCURVE",
"232 -43 OFFCURVE",
"219 -106 CURVE SMOOTH",
"209 -159 OFFCURVE",
"237 -200 OFFCURVE",
"307 -200 CURVE SMOOTH",
"364 -200 OFFCURVE",
"406 -180 OFFCURVE",
"444 -160 CURVE",
"433 -119 LINE",
"412 -126 OFFCURVE",
"383 -137 OFFCURVE",
"360 -137 CURVE SMOOTH"
);
},
{
closed = 1;
nodes = (
"208 233 LINE",
"317 439 LINE",
"350 233 LINE"
);
}
);
width = 536;
}
);
unicode = 0104;
},
{
glyphname = Aring;
lastChange = "2019-01-30 08:38:31 +0000";
layers = (
{
background = {
paths = (
{
closed = 1;
nodes = (
"333 573 OFFCURVE",
"310 540 OFFCURVE",
"283 523 CURVE",
"378 0 LINE",
"277 0 LINE",
"249 145 LINE",
"46 145 LINE",
"-37 0 LINE",
"-131 0 LINE",
"161 516 LINE",
"140 535 OFFCURVE",
"130 565 OFFCURVE",
"136 596 CURVE SMOOTH",
"148 656 OFFCURVE",
"204 705 OFFCURVE",
"263 705 CURVE SMOOTH",
"317 705 OFFCURVE",
"351 662 OFFCURVE",
"341 610 CURVE SMOOTH"
);
},
{
closed = 1;
nodes = (
"94 233 LINE",
"234 233 LINE",
"203 439 LINE"
);
},
{
closed = 1;
nodes = (
"220 642 OFFCURVE",
"204 626 OFFCURVE",
"201 610 CURVE SMOOTH",
"195 583 OFFCURVE",
"209 562 OFFCURVE",
"235 562 CURVE SMOOTH",
"253 562 OFFCURVE",
"271 577 OFFCURVE",
"275 596 CURVE SMOOTH",
"280 620 OFFCURVE",
"263 642 OFFCURVE",
"241 642 CURVE SMOOTH"
);
}
);
};
layerId = "CFA4B904-E3F1-48B6-A7F6-47DC1FF2A3E1";
paths = (
{
closed = 1;
nodes = (
"388 516 LINE",
"425 538 OFFCURVE",
"448 579 OFFCURVE",
"448 620 CURVE SMOOTH",
"448 673 OFFCURVE",
"409 704 OFFCURVE",
"363 704 CURVE SMOOTH",
"276 704 OFFCURVE",
"242 642 OFFCURVE",
"242 588 CURVE SMOOTH",
"242 561 OFFCURVE",
"254 539 OFFCURVE",
"271 523 CURVE",
"-25 0 LINE",
"77 0 LINE",
"157 145 LINE",
"363 145 LINE",
"391 0 LINE",
"486 0 LINE"
);
},
{
closed = 1;
nodes = (
"310 626 OFFCURVE",
"327 642 OFFCURVE",
"348 642 CURVE SMOOTH",
"376 642 OFFCURVE",
"386 620 OFFCURVE",
"381 595 CURVE SMOOTH",
"378 578 OFFCURVE",
"361 562 OFFCURVE",
"342 562 CURVE SMOOTH",
"311 562 OFFCURVE",
"302 584 OFFCURVE",
"307 609 CURVE SMOOTH"
);
},
{
closed = 1;
nodes = (
"208 233 LINE",
"317 439 LINE",
"350 233 LINE"
);
}
);
width = 536;
}
);
unicode = 00C5;
},
{
glyphname = AE;
lastChange = "2019-01-30 08:38:31 +0000";
layers = (
{
background = {
paths = (
{
closed = 1;
nodes = (
"367 233 LINE",
"412 462 LINE",
"365 462 LINE",
"220 233 LINE"
);
},
{
closed = 1;
nodes = (
"165 145 LINE",
"71 0 LINE",
"-25 0 LINE",
"319 550 LINE",
"780 550 LINE",
"763 462 LINE",
"506 462 LINE",
"479 324 LINE",
"708 324 LINE",
"691 235 LINE",
"462 235 LINE",
"433 89 LINE",
"690 89 LINE",
"673 0 LINE",
"322 0 LINE",
"350 145 LINE"
);
}
);
};
layerId = "CFA4B904-E3F1-48B6-A7F6-47DC1FF2A3E1";
paths = (
{
closed = 1;
nodes = (
"367 233 LINE",
"412 462 LINE",
"365 462 LINE",
"220 233 LINE"
);
},
{
closed = 1;
nodes = (
"165 145 LINE",
"71 0 LINE",
"-25 0 LINE",
"319 550 LINE",
"770 550 LINE",
"753 462 LINE",
"506 462 LINE",
"479 324 LINE",
"698 324 LINE",
"681 235 LINE",
"466 235 LINE",
"437 89 LINE",
"690 89 LINE",
"673 0 LINE",
"322 0 LINE",
"350 145 LINE"
);
}
);
width = 800;
}
);
unicode = 00C6;
},
{
glyphname = B;
lastChange = "2019-01-30 08:38:31 +0000";
layers = (
{
background = {
paths = (
{
closed = 1;
nodes = (
"191 324 LINE",
"265 324 LINE SMOOTH",
"346 324 OFFCURVE",
"379 344 OFFCURVE",
"387 387 CURVE SMOOTH",
"396 433 OFFCURVE",
"376 465 OFFCURVE",
"286 465 CURVE SMOOTH",
"218 465 LINE"
);
},
{
closed = 1;
nodes = (
"145 86 LINE",
"212 86 LINE SMOOTH",
"315 86 OFFCURVE",
"373 98 OFFCURVE",
"384 154 CURVE SMOOTH",
"395 209 OFFCURVE",
"353 242 OFFCURVE",
"236 242 CURVE SMOOTH",
"175 241 LINE"
);
},
{
closed = 1;
nodes = (
"489 550 OFFCURVE",
"497 462 OFFCURVE",
"488 414 CURVE SMOOTH",
"477 361 OFFCURVE",
"446 318 OFFCURVE",
"391 287 CURVE",
"468 270 OFFCURVE",
"492 210 OFFCURVE",
"482 157 CURVE SMOOTH",
"468 89 OFFCURVE",
"406 0 OFFCURVE",
"201 0 CURVE SMOOTH",
"30 0 LINE",
"137 550 LINE",
"327 550 LINE SMOOTH"
);
}
);
};
layerId = "CFA4B904-E3F1-48B6-A7F6-47DC1FF2A3E1";
paths = (
{
closed = 1;
nodes = (
"191 324 LINE",
"265 324 LINE SMOOTH",
"372 324 OFFCURVE",
"389 364 OFFCURVE",
"389 405 CURVE SMOOTH",
"389 441 OFFCURVE",
"363 465 OFFCURVE",
"286 465 CURVE SMOOTH",
"218 465 LINE"
);
},
{
closed = 1;
nodes = (
"145 86 LINE",
"212 86 LINE SMOOTH",
"352 86 OFFCURVE",
"386 116 OFFCURVE",
"386 170 CURVE SMOOTH",
"386 215 OFFCURVE",
"341 242 OFFCURVE",
"236 242 CURVE SMOOTH",
"175 241 LINE"
);
},
{
closed = 1;
nodes = (
"453 550 OFFCURVE",
"490 478 OFFCURVE",
"490 430 CURVE SMOOTH",
"490 378 OFFCURVE",
"464 328 OFFCURVE",
"391 287 CURVE",
"457 273 OFFCURVE",
"484 227 OFFCURVE",
"484 181 CURVE SMOOTH",
"484 121 OFFCURVE",
"459 0 OFFCURVE",
"221 0 CURVE SMOOTH",
"30 0 LINE",
"137 550 LINE",
"307 550 LINE SMOOTH"
);
}
);
width = 540;
}
);
unicode = 0042;
},
{
glyphname = C;
lastChange = "2019-01-30 08:38:31 +0000";
layers = (
{
anchors = (
{
name = top.cap;
position = "{366, 560}";
}
);
background = {
paths = (
{
closed = 1;
nodes = (
"442 555 OFFCURVE",
"493 549 OFFCURVE",
"545 525 CURVE",
"558 518 LINE",
"509 441 LINE",
"493 445 LINE",
"436 468 OFFCURVE",
"398 468 OFFCURVE",
"371 468 CURVE SMOOTH",
"217 468 OFFCURVE",
"144 334 OFFCURVE",
"144 240 CURVE SMOOTH",
"144 144 OFFCURVE",
"205 81 OFFCURVE",
"320 81 CURVE SMOOTH",
"351 81 OFFCURVE",
"396 90 OFFCURVE",
"442 106 CURVE",
"456 113 LINE",
"471 34 LINE",
"453 29 LINE",
"389 6 OFFCURVE",
"336 -9 OFFCURVE",
"275 -9 CURVE SMOOTH",
"120 -9 OFFCURVE",
"40 85 OFFCURVE",
"40 208 CURVE SMOOTH",
"40 344 OFFCURVE",
"149 555 OFFCURVE",
"400 555 CURVE SMOOTH"
);
}
);
};
layerId = "CFA4B904-E3F1-48B6-A7F6-47DC1FF2A3E1";
paths = (
{
closed = 1;
nodes = (
"447 555 OFFCURVE",
"494 544 OFFCURVE",
"540 521 CURVE",
"494 449 LINE",
"451 464 OFFCURVE",
"416 469 OFFCURVE",
"371 469 CURVE SMOOTH",
"217 469 OFFCURVE",
"144 345 OFFCURVE",
"144 240 CURVE SMOOTH",
"144 144 OFFCURVE",
"205 78 OFFCURVE",
"304 78 CURVE SMOOTH",
"357 78 OFFCURVE",
"413 93 OFFCURVE",
"456 107 CURVE",
"472 28 LINE",
"410 6 OFFCURVE",
"356 -9 OFFCURVE",
"281 -9 CURVE SMOOTH",
"126 -9 OFFCURVE",
"40 100 OFFCURVE",
"40 223 CURVE SMOOTH",
"40 389 OFFCURVE",
"143 555 OFFCURVE",
"385 555 CURVE SMOOTH"
);
}
);
width = 560;
}
);
unicode = 0043;
},
{
glyphname = Ccedilla;
lastChange = "2019-01-30 08:38:31 +0000";
layers = (
{
background = {
paths = (
{
closed = 1;
nodes = (
"377 555 OFFCURVE",
"430 548 OFFCURVE",
"487 524 CURVE",
"503 518 LINE",
"470 441 LINE",
"455 446 LINE",
"394 469 OFFCURVE",
"356 468 OFFCURVE",
"331 468 CURVE SMOOTH",
"212 468 OFFCURVE",
"140 382 OFFCURVE",
"140 276 CURVE SMOOTH",
"140 160 OFFCURVE",
"215 81 OFFCURVE",
"345 81 CURVE SMOOTH",
"378 81 OFFCURVE",
"421 91 OFFCURVE",
"464 107 CURVE",
"478 113 LINE",
"510 34 LINE",
"496 28 LINE",
"437 5 OFFCURVE",
"387 -9 OFFCURVE",
"328 -9 CURVE SMOOTH",
"147 -9 OFFCURVE",
"40 120 OFFCURVE",
"40 275 CURVE SMOOTH",
"40 434 OFFCURVE",
"153 555 OFFCURVE",
"333 555 CURVE SMOOTH"
);
}
);
};
components = (
{
name = C;
},
{
name = cedilla;
transform = "{1, 0, 0, 1, 270, 0}";
}
);
layerId = "CFA4B904-E3F1-48B6-A7F6-47DC1FF2A3E1";
width = 560;
}
);
unicode = 00C7;
},
{
glyphname = D;
lastChange = "2019-01-30 08:38:31 +0000";
layers = (
{
anchors = (
{
name = top.cap;
position = "{294, 560}";
}
);
background = {
anchors = (
{
name = top.cap;
position = "{435, 560}";
}
);
paths = (
{
closed = 1;
nodes = (
"336 555 CURVE",
"119 555 OFFCURVE",
"16 389 OFFCURVE",
"16 223 CURVE SMOOTH",
"16 106 OFFCURVE",
"89 -10 OFFCURVE",
"257 -10 CURVE",
"468 -10 OFFCURVE",
"571 156 OFFCURVE",
"571 322 CURVE SMOOTH",
"571 439 OFFCURVE",
"488 555 OFFCURVE"
);
},
{
closed = 1;
nodes = (
"168 78 OFFCURVE",
"120 139 OFFCURVE",
"120 240 CURVE SMOOTH",
"120 337 OFFCURVE",
"182 467 OFFCURVE",
"313 467 CURVE",
"409 466 OFFCURVE",
"467 399 OFFCURVE",
"467 305 CURVE SMOOTH",
"467 208 OFFCURVE",
"405 78 OFFCURVE",
"274 78 CURVE"
);
}
);
};
layerId = "CFA4B904-E3F1-48B6-A7F6-47DC1FF2A3E1";
paths = (
{
closed = 1;
nodes = (
"145 89 LINE",
"212 89 LINE SMOOTH",
"414 89 OFFCURVE",
"468 191 OFFCURVE",
"468 315 CURVE SMOOTH",
"468 405 OFFCURVE",
"420 462 OFFCURVE",
"305 462 CURVE SMOOTH",
"218 462 LINE"
);
},
{
closed = 1;
nodes = (
"509 550 OFFCURVE",
"574 424 OFFCURVE",
"574 328 CURVE SMOOTH",
"574 101 OFFCURVE",
"436 0 OFFCURVE",
"157 0 CURVE SMOOTH",
"30 0 LINE",
"137 550 LINE",
"316 550 LINE SMOOTH"
);
}
);
width = 614;
}
);
unicode = 0044;
},
{
glyphname = Eth;
lastChange = "2019-01-30 08:38:31 +0000";
layers = (
{
background = {
paths = (
{
closed = 1;
nodes = (
"134 325 LINE",
"178 550 LINE",
"367 550 LINE SMOOTH",
"601 550 OFFCURVE",
"631 410 OFFCURVE",
"609 299 CURVE SMOOTH",
"585 177 OFFCURVE",
"511 55 OFFCURVE",
"350 13 CURVE",
"301 1 OFFCURVE",
"253 0 OFFCURVE",
"206 0 CURVE SMOOTH",
"71 0 LINE",
"117 236 LINE",
"20 236 LINE",
"37 325 LINE"
);
},
{
closed = 1;
nodes = (
"233 325 LINE",
"353 325 LINE",
"336 236 LINE",
"216 236 LINE",
"187 89 LINE",
"253 89 LINE SMOOTH",
"312 89 OFFCURVE",
"399 89 OFFCURVE",
"462 170 CURVE SMOOTH",
"474 190 OFFCURVE",
"495 224 OFFCURVE",
"504 272 CURVE SMOOTH",
"528 397 OFFCURVE",
"471 462 OFFCURVE",
"346 462 CURVE SMOOTH",
"260 462 LINE"
);
}
);
};
components = (
{
name = D;
transform = "{1, 0, 0, 1, 8, 0}";
}
);
layerId = "CFA4B904-E3F1-48B6-A7F6-47DC1FF2A3E1";
paths = (
{
closed = 1;
nodes = (
"30 236 LINE",
"47 325 LINE",
"367 325 LINE",
"350 236 LINE"
);
}
);
width = 622;
}
);
unicode = 00D0;
},
{
glyphname = E;
lastChange = "2019-01-30 08:38:31 +0000";
layers = (
{
anchors = (
{
name = top.cap;
position = "{309, 560}";
}
);
background = {
paths = (
{
closed = 1;
nodes = (
"498 550 LINE",
"481 462 LINE",
"218 462 LINE",
"191 324 LINE",
"424 324 LINE",
"407 235 LINE",
"174 235 LINE",
"145 89 LINE",
"408 89 LINE",
"391 0 LINE",
"30 0 LINE",
"137 550 LINE"
);
}
);
};
layerId = "CFA4B904-E3F1-48B6-A7F6-47DC1FF2A3E1";
paths = (
{
closed = 1;
nodes = (
"488 550 LINE",
"471 462 LINE",
"218 462 LINE",
"191 324 LINE",
"414 324 LINE",
"397 235 LINE",
"174 235 LINE",
"145 89 LINE",
"408 89 LINE",
"391 0 LINE",
"30 0 LINE",
"137 550 LINE"
);
}
);
width = 518;
}
);
unicode = 0045;
},
{
glyphname = Eogonek;
lastChange = "2019-01-30 08:38:31 +0000";
layers = (
{
background = {
paths = (
{
closed = 1;
nodes = (
"498 550 LINE",
"481 462 LINE",
"218 462 LINE",
"191 324 LINE",
"424 324 LINE",
"407 235 LINE",
"174 235 LINE",
"145 89 LINE",
"408 89 LINE",
"388 0 LINE",
"252 -16 OFFCURVE",
"219 -53 OFFCURVE",
"214 -80 CURVE SMOOTH",
"207 -112 OFFCURVE",
"222 -137 OFFCURVE",
"259 -137 CURVE SMOOTH",
"282 -137 OFFCURVE",
"311 -126 OFFCURVE",
"333 -119 CURVE",
"343 -160 LINE",
"306 -180 OFFCURVE",
"263 -200 OFFCURVE",
"204 -200 CURVE SMOOTH",
"130 -200 OFFCURVE",
"108 -157 OFFCURVE",
"116 -115 CURVE SMOOTH",
"127 -59 OFFCURVE",
"175 -25 OFFCURVE",
"237 -1 CURVE",
"30 0 LINE",
"137 550 LINE"
);
}
);
};
layerId = "CFA4B904-E3F1-48B6-A7F6-47DC1FF2A3E1";
paths = (
{
closed = 1;
nodes = (
"488 550 LINE",
"471 462 LINE",
"218 462 LINE",
"191 324 LINE",
"414 324 LINE",
"397 235 LINE",
"174 235 LINE",
"145 89 LINE",
"408 89 LINE",
"388 0 LINE",
"252 -16 OFFCURVE",
"219 -53 OFFCURVE",
"214 -80 CURVE SMOOTH",
"207 -112 OFFCURVE",
"222 -137 OFFCURVE",
"259 -137 CURVE SMOOTH",
"282 -137 OFFCURVE",
"311 -126 OFFCURVE",
"333 -119 CURVE",
"343 -160 LINE",
"306 -180 OFFCURVE",
"263 -200 OFFCURVE",
"204 -200 CURVE SMOOTH",
"130 -200 OFFCURVE",
"108 -157 OFFCURVE",
"116 -115 CURVE SMOOTH",
"127 -59 OFFCURVE",
"175 -25 OFFCURVE",
"237 -1 CURVE",
"30 0 LINE",
"137 550 LINE"
);
}
);
width = 518;
}
);
unicode = 0118;
},
{
glyphname = F;
lastChange = "2019-01-30 08:38:31 +0000";
layers = (
{
background = {
paths = (
{
closed = 1;
nodes = (
"413 299 LINE",
"396 209 LINE",
"169 209 LINE",
"128 0 LINE",
"30 0 LINE",
"137 550 LINE",
"493 550 LINE",
"476 462 LINE",
"218 462 LINE",
"186 299 LINE"
);
}
);
};
layerId = "CFA4B904-E3F1-48B6-A7F6-47DC1FF2A3E1";
paths = (
{
closed = 1;
nodes = (
"403 299 LINE",
"386 209 LINE",
"169 209 LINE",
"128 0 LINE",
"30 0 LINE",
"137 550 LINE",
"483 550 LINE",
"466 462 LINE",
"218 462 LINE",
"186 299 LINE"
);
}
);
width = 503;
}
);
unicode = 0046;
},
{
glyphname = G;
lastChange = "2019-01-30 08:38:31 +0000";
layers = (
{
anchors = (
{
name = bottom;
position = "{276, -10}";
},
{
name = top.cap;
position = "{366, 560}";
}
);
background = {
paths = (
{
closed = 1;
nodes = (
"471 41 OFFCURVE",
"404 -6 OFFCURVE",
"274 -9 CURVE SMOOTH",
"78 -9 OFFCURVE",
"20 138 OFFCURVE",
"45 268 CURVE SMOOTH",
"74 416 OFFCURVE",
"206 555 OFFCURVE",
"394 555 CURVE SMOOTH",
"467 555 OFFCURVE",
"523 535 OFFCURVE",
"565 508 CURVE SMOOTH",
"575 498 LINE",
"518 423 LINE",
"503 427 LINE",
"475 444 OFFCURVE",
"426 465 OFFCURVE",
"369 465 CURVE SMOOTH",
"272 465 OFFCURVE",
"170 399 OFFCURVE",
"148 286 CURVE SMOOTH",
"125 169 OFFCURVE",
"197 82 OFFCURVE",
"318 82 CURVE SMOOTH",
"361 82 OFFCURVE",
"385 88 OFFCURVE",
"412 101 CURVE",
"433 220 LINE",
"289 220 LINE",
"306 307 LINE",
"546 307 LINE",
"496 59 LINE"
);
}
);
};
layerId = "CFA4B904-E3F1-48B6-A7F6-47DC1FF2A3E1";
paths = (
{
closed = 1;
nodes = (
"295 302 LINE",
"279 220 LINE",
"426 220 LINE",
"404 94 LINE",
"369 83 OFFCURVE",
"331 78 OFFCURVE",
"294 78 CURVE SMOOTH",
"205 78 OFFCURVE",
"144 134 OFFCURVE",
"144 240 CURVE SMOOTH",
"144 345 OFFCURVE",
"217 469 OFFCURVE",
"371 469 CURVE SMOOTH",
"424 469 OFFCURVE",
"463 459 OFFCURVE",
"506 444 CURVE",
"552 516 LINE",
"506 539 OFFCURVE",
"455 555 OFFCURVE",
"385 555 CURVE SMOOTH",
"143 555 OFFCURVE",
"40 389 OFFCURVE",
"40 223 CURVE SMOOTH",
"40 100 OFFCURVE",
"126 -9 OFFCURVE",
"271 -9 CURVE SMOOTH",
"346 -9 OFFCURVE",
"420 12 OFFCURVE",
"482 39 CURVE",
"532 302 LINE"
);
}
);
width = 597;
}
);
unicode = 0047;
},
{
glyphname = H;
lastChange = "2019-01-30 08:38:31 +0000";
layers = (
{
layerId = "CFA4B904-E3F1-48B6-A7F6-47DC1FF2A3E1";
paths = (
{
closed = 1;
nodes = (
"491 0 LINE",
"394 0 LINE",
"439 230 LINE",
"173 230 LINE",
"128 0 LINE",
"30 0 LINE",
"137 550 LINE",
"235 550 LINE",
"190 319 LINE",
"456 319 LINE",
"501 550 LINE",
"598 550 LINE"
);
}
);
width = 628;
}
);
unicode = 0048;
},
{
glyphname = I;
lastChange = "2019-01-30 08:38:31 +0000";
layers = (
{
anchors = (
{
name = top.cap;
position = "{186, 550}";
}
);
layerId = "CFA4B904-E3F1-48B6-A7F6-47DC1FF2A3E1";
paths = (
{
closed = 1;
nodes = (
"128 0 LINE",
"30 0 LINE",
"137 550 LINE",
"235 550 LINE"
);
}
);
width = 265;
}
);
unicode = 0049;
},
{
glyphname = IJ;
lastChange = "2019-01-30 08:38:31 +0000";
layers = (
{
anchors = (
{
name = top.cap;
position = "{569, 550}";
}
);
background = {
paths = (
{
closed = 1;
nodes = (
"548 202 LINE SMOOTH",
"531 114 OFFCURVE",
"483 -7 OFFCURVE",
"298 -7 CURVE SMOOTH",
"273 -7 OFFCURVE",
"246 -5 OFFCURVE",
"220 2 CURVE",
"212 8 LINE",
"244 93 LINE",
"263 90 LINE SMOOTH",
"281 85 OFFCURVE",
"295 83 OFFCURVE",
"314 83 CURVE SMOOTH",
"425 83 OFFCURVE",
"442 156 OFFCURVE",
"450 196 CURVE SMOOTH",
"519 550 LINE",
"616 550 LINE"
);
}
);
};
components = (
{
name = I;
}
);
layerId = "CFA4B904-E3F1-48B6-A7F6-47DC1FF2A3E1";
paths = (
{
closed = 1;
nodes = (
"544 177 LINE SMOOTH",
"527 89 OFFCURVE",
"480 -7 OFFCURVE",
"306 -7 CURVE SMOOTH",
"268 -7 OFFCURVE",
"237 0 OFFCURVE",
"213 8 CURVE",
"245 93 LINE",
"269 87 OFFCURVE",
"293 83 OFFCURVE",
"315 83 CURVE SMOOTH",
"426 83 OFFCURVE",
"443 156 OFFCURVE",
"451 196 CURVE SMOOTH",
"520 550 LINE",
"617 550 LINE"
);
}
);
width = 637;
}
);
unicode = 0132;
},
{
glyphname = Iogonek;
lastChange = "2019-01-30 08:38:31 +0000";
layers = (
{
layerId = "CFA4B904-E3F1-48B6-A7F6-47DC1FF2A3E1";
paths = (
{
closed = 1;
nodes = (
"18 -20 OFFCURVE",
"-3 -47 OFFCURVE",
"-10 -80 CURVE SMOOTH",
"-16 -112 OFFCURVE",
"-2 -137 OFFCURVE",
"33 -137 CURVE SMOOTH",
"56 -137 OFFCURVE",
"85 -126 OFFCURVE",
"106 -119 CURVE",
"118 -160 LINE",
"80 -180 OFFCURVE",
"37 -200 OFFCURVE",
"-21 -200 CURVE SMOOTH",
"-87 -200 OFFCURVE",
"-118 -159 OFFCURVE",
"-108 -106 CURVE SMOOTH",
"-96 -47 OFFCURVE",
"-39 -1 OFFCURVE",
"51 35 CURVE",
"149 550 LINE",
"247 550 LINE",
"140 17 LINE"
);
}
);
width = 277;
}
);
unicode = 012E;
},
{
glyphname = J;
lastChange = "2019-01-30 08:38:31 +0000";
layers = (
{
anchors = (
{
name = top.cap;
position = "{356, 550}";
}
);
background = {
paths = (
{
closed = 1;
nodes = (
"336 202 LINE SMOOTH",
"319 114 OFFCURVE",
"271 -7 OFFCURVE",
"86 -7 CURVE SMOOTH",
"61 -7 OFFCURVE",
"34 -5 OFFCURVE",
"8 2 CURVE",
"0 8 LINE",
"32 93 LINE",
"51 90 LINE SMOOTH",
"69 85 OFFCURVE",
"83 83 OFFCURVE",
"102 83 CURVE SMOOTH",
"213 83 OFFCURVE",
"230 156 OFFCURVE",
"238 196 CURVE SMOOTH",
"307 550 LINE",
"404 550 LINE"
);
}
);
};
layerId = "CFA4B904-E3F1-48B6-A7F6-47DC1FF2A3E1";
paths = (
{
closed = 1;
nodes = (
"331 177 LINE SMOOTH",
"314 89 OFFCURVE",
"267 -7 OFFCURVE",
"93 -7 CURVE SMOOTH",
"55 -7 OFFCURVE",
"24 0 OFFCURVE",
"0 8 CURVE",
"32 93 LINE",
"56 87 OFFCURVE",
"80 83 OFFCURVE",
"102 83 CURVE SMOOTH",
"213 83 OFFCURVE",
"230 156 OFFCURVE",
"238 196 CURVE SMOOTH",
"307 550 LINE",
"404 550 LINE"
);
}
);
width = 424;
}
);
unicode = 004A;
},
{
glyphname = K;
lastChange = "2019-01-30 08:38:31 +0000";
layers = (
{
anchors = (
{
name = bottom;
position = "{242, -10}";
}
);
background = {
paths = (
{
closed = 1;
nodes = (
"27 0 LINE",
"134 550 LINE",
"232 550 LINE",
"125 0 LINE"
);
},
{
closed = 1;
nodes = (
"568 550 LINE",
"300 284 LINE",
"479 0 LINE",
"361 0 LINE",
"188 284 LINE",
"460 550 LINE"
);
}
);
};
layerId = "CFA4B904-E3F1-48B6-A7F6-47DC1FF2A3E1";
paths = (
{
closed = 1;
nodes = (
"30 0 LINE",
"134 550 LINE",
"232 550 LINE",
"125 0 LINE"
);
},
{
closed = 1;
nodes = (
"566 550 LINE",
"299 278 LINE",
"470 0 LINE",
"361 0 LINE",
"188 284 LINE",
"460 550 LINE"
);
}
);
width = 561;
}
);
unicode = 004B;
},
{
glyphname = L;
lastChange = "2019-01-30 08:38:31 +0000";
layers = (
{
anchors = (
{
name = bottom;
position = "{211, -10}";
},
{
name = top.cap;
position = "{293, 560}";
}
);
background = {
paths = (
{
closed = 1;
nodes = (
"145 89 LINE",
"407 89 LINE",
"390 0 LINE",
"30 0 LINE",
"137 550 LINE",
"235 550 LINE"
);
}
);
};
layerId = "CFA4B904-E3F1-48B6-A7F6-47DC1FF2A3E1";
paths = (
{
closed = 1;
nodes = (
"145 89 LINE",
"407 89 LINE",
"390 0 LINE",
"30 0 LINE",
"137 550 LINE",
"232 550 LINE"
);
}
);
width = 457;
}
);
unicode = 004C;
},
{
glyphname = Lcaron;
lastChange = "2019-01-30 08:38:31 +0000";
layers = (
{
background = {
paths = (
{
closed = 1;
nodes = (
"171 0 LINE",
"484 0 LINE",
"484 58 LINE",
"237 58 LINE",
"237 550 LINE",
"171 550 LINE"
);
},
{
closed = 1;
nodes = (
"312 435 LINE",
"363 435 LINE",
"411 586 LINE",
"344 586 LINE"
);
}
);
};
components = (
{
name = L;
}
);
layerId = "CFA4B904-E3F1-48B6-A7F6-47DC1FF2A3E1";
paths = (
{
closed = 1;
nodes = (
"333 413 LINE",
"259 413 LINE",
"334 599 LINE",
"437 599 LINE"
);
}
);
width = 457;
}
);
unicode = 013D;
},
{
glyphname = Lslash;
lastChange = "2019-01-30 08:38:31 +0000";
layers = (
{
background = {
paths = (
{
closed = 1;
nodes = (
"180 282 LINE",
"104 238 LINE",
"104 170 LINE",
"180 215 LINE",
"180 0 LINE",
"493 0 LINE",
"493 58 LINE",
"246 58 LINE",
"246 253 LINE",
"347 312 LINE",
"347 380 LINE",
"246 321 LINE",
"246 550 LINE",
"180 550 LINE"
);
}
);
};
layerId = "CFA4B904-E3F1-48B6-A7F6-47DC1FF2A3E1";
paths = (
{
closed = 1;
nodes = (
"349 325 LINE",
"0 142 LINE",
"22 242 LINE",
"371 424 LINE"
);
},
{
closed = 1;
nodes = (
"187 89 LINE",
"448 89 LINE",
"431 0 LINE",
"73 0 LINE",
"180 550 LINE",
"274 550 LINE"
);
}
);
width = 498;
}
);
unicode = 0141;
},
{
glyphname = M;
lastChange = "2019-01-30 08:38:31 +0000";
layers = (
{
background = {
paths = (
{
closed = 1;
nodes = (
"356 249 LINE",
"566 550 LINE",
"689 550 LINE",
"582 0 LINE",
"485 0 LINE",
"565 415 LINE",
"372 141 LINE",
"288 141 LINE",
"204 415 LINE",
"124 0 LINE",
"26 0 LINE",
"133 550 LINE",
"265 550 LINE"
);
}
);
};
guideLines = (
{
position = "{339, 414}";
}
);
layerId = "CFA4B904-E3F1-48B6-A7F6-47DC1FF2A3E1";
paths = (
{
closed = 1;
nodes = (
"346 249 LINE",
"552 550 LINE",
"689 550 LINE",
"582 0 LINE",
"485 0 LINE",
"565 415 LINE",
"375 141 LINE",
"290 141 LINE",
"204 415 LINE",
"124 0 LINE",
"30 0 LINE",
"133 550 LINE",
"258 550 LINE"
);
}
);
width = 719;
}
);
unicode = 004D;
},
{
glyphname = N;
lastChange = "2019-01-30 08:38:31 +0000";
layers = (
{
anchors = (
{
name = bottom;
position = "{266, 0}";
},
{
name = top.cap;
position = "{388, 560}";
}
);
background = {
paths = (
{
closed = 1;
nodes = (
"436 142 LINE",
"514 550 LINE",
"613 550 LINE",
"506 0 LINE",
"386 0 LINE",
"201 409 LINE",
"122 0 LINE",
"24 0 LINE",
"131 550 LINE",
"249 550 LINE"
);
}
);
};
layerId = "CFA4B904-E3F1-48B6-A7F6-47DC1FF2A3E1";
paths = (
{
closed = 1;
nodes = (
"435 132 LINE",
"514 550 LINE",
"610 550 LINE",
"506 0 LINE",
"392 0 LINE",
"203 419 LINE",
"128 0 LINE",
"30 0 LINE",
"131 550 LINE",
"249 550 LINE"
);
}
);
width = 640;
}
);
unicode = 004E;
},
{
glyphname = Ncaron;
lastChange = "2019-01-30 08:38:31 +0000";
layers = (
{
components = (
{
name = N;
}
);
layerId = "CFA4B904-E3F1-48B6-A7F6-47DC1FF2A3E1";
paths = (
{
closed = 1;
nodes = (
"298 767 LINE",
"389 684 LINE",
"518 766 LINE",
"556 709 LINE",
"380 595 LINE",
"245 719 LINE"
);
}
);
width = 640;
}
);
unicode = 0147;
},
{
glyphname = O;
lastChange = "2019-01-30 08:38:31 +0000";
layers = (
{
anchors = (
{
name = top.cap;
position = "{361, 560}";
}
);
background = {
anchors = (
{
name = top.cap;
position = "{314, 560}";
}
);
paths = (
{
closed = 1;
nodes = (
"526 557 OFFCURVE",
"623 453 OFFCURVE",
"591 287 CURVE SMOOTH",
"557 115 OFFCURVE",
"414 -7 OFFCURVE",
"255 -7 CURVE SMOOTH",
"121 -7 OFFCURVE",
"9 85 OFFCURVE",
"44 268 CURVE SMOOTH",
"78 442 OFFCURVE",
"222 557 OFFCURVE",
"377 557 CURVE SMOOTH"
);
},
{
closed = 1;
nodes = (
"265 466 OFFCURVE",
"173 416 OFFCURVE",
"148 288 CURVE SMOOTH",
"124 162 OFFCURVE",
"189 85 OFFCURVE",
"289 85 CURVE SMOOTH",
"368 85 OFFCURVE",
"462 136 OFFCURVE",
"487 268 CURVE SMOOTH",
"515 410 OFFCURVE",
"428 466 OFFCURVE",
"346 466 CURVE SMOOTH"
);
}
);
};
layerId = "CFA4B904-E3F1-48B6-A7F6-47DC1FF2A3E1";
paths = (
{
closed = 1;
nodes = (
"360 555 CURVE",
"143 555 OFFCURVE",
"40 389 OFFCURVE",
"40 223 CURVE SMOOTH",
"40 106 OFFCURVE",
"113 -10 OFFCURVE",
"281 -10 CURVE",
"492 -10 OFFCURVE",
"595 156 OFFCURVE",
"595 322 CURVE SMOOTH",
"595 439 OFFCURVE",
"512 555 OFFCURVE"
);
},
{
closed = 1;
nodes = (
"192 78 OFFCURVE",
"144 139 OFFCURVE",
"144 240 CURVE SMOOTH",
"144 337.013 OFFCURVE",
"206 467 OFFCURVE",
"337.258 466.91 CURVE",
"433 466 OFFCURVE",
"491 398.96 OFFCURVE",
"491 305 CURVE SMOOTH",
"491 207.987 OFFCURVE",
"429 78 OFFCURVE",
"297.742 78.09 CURVE"
);
}
);
width = 635;
}
);
unicode = 004F;
},
{
glyphname = Oslash;
lastChange = "2019-01-30 08:38:31 +0000";
layers = (
{
background = {
paths = (
{
closed = 1;
nodes = (
"202 -8 LINE",
"274 62 LINE",
"317 20 OFFCURVE",
"374 -7 OFFCURVE",
"453 -7 CURVE SMOOTH",
"565 -7 OFFCURVE",
"638 49 OFFCURVE",
"678 127 CURVE SMOOTH",
"698 169 OFFCURVE",
"709 219 OFFCURVE",
"709 275 CURVE SMOOTH",
"709 331 OFFCURVE",
"698 383 OFFCURVE",
"669 437 CURVE",
"747 511 LINE",
"705 556 LINE",
"632 486 LINE",
"589 529 OFFCURVE",
"532 556 OFFCURVE",
"453 556 CURVE SMOOTH",
"339 556 OFFCURVE",
"266 500 OFFCURVE",
"227 424 CURVE SMOOTH",
"206 380 OFFCURVE",
"195 331 OFFCURVE",
"195 275 CURVE SMOOTH",
"195 219 OFFCURVE",
"206 169 OFFCURVE",
"227 127 CURVE SMOOTH",
"236 109 LINE",
"160 37 LINE"
);
},
{
closed = 1;
nodes = (
"266 317 OFFCURVE",
"274 355 OFFCURVE",
"290 389 CURVE SMOOTH",
"318 447 OFFCURVE",
"362 498 OFFCURVE",
"453 498 CURVE SMOOTH",
"515 498 OFFCURVE",
"555 475 OFFCURVE",
"584 440 CURVE",
"290 160 LINE",
"290 161 LINE",
"274 194 OFFCURVE",
"266 232 OFFCURVE",
"266 275 CURVE SMOOTH"
);
},
{
closed = 1;
nodes = (
"390 51 OFFCURVE",
"351 74 OFFCURVE",
"323 107 CURVE",
"615 387 LINE",
"632 353 OFFCURVE",
"639 315 OFFCURVE",
"639 275 CURVE SMOOTH",
"639 232 OFFCURVE",
"632 194 OFFCURVE",
"615 161 CURVE",
"588 101 OFFCURVE",
"542 51 OFFCURVE",
"453 51 CURVE SMOOTH"
);
}
);
};
components = (
{
name = O;
transform = "{1, 0, 0, 1, 23, 0}";
}
);
layerId = "CFA4B904-E3F1-48B6-A7F6-47DC1FF2A3E1";
paths = (
{
closed = 1;
nodes = (
"637 574 LINE",
"-12 56 LINE",
"40 -16 LINE",
"691 506 LINE"
);
}
);
width = 679;
}
);
unicode = 00D8;
},
{
glyphname = OE;
lastChange = "2019-01-30 08:38:31 +0000";
layers = (
{
background = {
paths = (
{
closed = 1;
nodes = (
"775 462 LINE",
"522 462 LINE",
"495 324 LINE",
"721 324 LINE",
"704 235 LINE",
"478 235 LINE",
"449 89 LINE",
"702 89 LINE",
"685 0 LINE",
"333 0 LINE SMOOTH",
"286 0 OFFCURVE",
"238 -1 OFFCURVE",
"190 9 CURVE",
"46 53 OFFCURVE",
"26 171 OFFCURVE",
"48 285 CURVE SMOOTH",
"72 404 OFFCURVE",
"164 550 OFFCURVE",
"396 550 CURVE SMOOTH",
"792 550 LINE"
);
},
{
closed = 1;
nodes = (
"248 462 OFFCURVE",
"171 403 OFFCURVE",
"149 286 CURVE SMOOTH",
"122 150 OFFCURVE",
"181 89 OFFCURVE",
"307 89 CURVE SMOOTH",
"353 89 LINE",
"426 462 LINE",
"372 462 LINE SMOOTH"
);
}
);
};
layerId = "CFA4B904-E3F1-48B6-A7F6-47DC1FF2A3E1";
paths = (
{
closed = 1;
nodes = (
"765 462 LINE",
"522 462 LINE",
"495 324 LINE",
"711 324 LINE",
"694 235 LINE",
"478 235 LINE",
"449 89 LINE",
"702 89 LINE",
"685 0 LINE",
"333 0 LINE SMOOTH",
"157 0 OFFCURVE",
"40 54 OFFCURVE",
"40 231 CURVE SMOOTH",
"40 369 OFFCURVE",
"118 550 OFFCURVE",
"396 550 CURVE SMOOTH",
"782 550 LINE"
);
},
{
closed = 1;
nodes = (
"201 462 OFFCURVE",
"137 349 OFFCURVE",
"137 231 CURVE SMOOTH",
"137 140 OFFCURVE",
"203 89 OFFCURVE",
"307 89 CURVE SMOOTH",
"353 89 LINE",
"426 462 LINE",
"372 462 LINE SMOOTH"
);
}
);
width = 812;
}
);
unicode = 0152;
},
{
glyphname = P;
lastChange = "2019-01-30 08:38:31 +0000";
layers = (
{
background = {
paths = (
{
closed = 1;
nodes = (
"391 550 OFFCURVE",
"542 544 OFFCURVE",
"513 395 CURVE SMOOTH",
"483 235 OFFCURVE",
"328 213 OFFCURVE",
"208 212 CURVE SMOOTH",
"193 212 OFFCURVE",
"182 214 OFFCURVE",
"167 215 CURVE",
"128 0 LINE",
"30 0 LINE",
"137 550 LINE",
"320 550 LINE SMOOTH"
);
},
{
closed = 1;
nodes = (
"207 304 OFFCURVE",
"222 301 OFFCURVE",
"240 301 CURVE SMOOTH",
"321 301 OFFCURVE",
"397 307 OFFCURVE",
"411 379 CURVE SMOOTH",
"424 449 OFFCURVE",
"359 462 OFFCURVE",
"287 462 CURVE SMOOTH",
"218 462 LINE",
"190 304 LINE"
);
}
);
};
layerId = "CFA4B904-E3F1-48B6-A7F6-47DC1FF2A3E1";
paths = (
{
closed = 1;
nodes = (
"395 550 OFFCURVE",
"517 525 OFFCURVE",
"517 410 CURVE SMOOTH",
"517 271 OFFCURVE",
"421 212 OFFCURVE",
"228 211 CURVE",
"167 212 LINE",
"128 0 LINE",
"30 0 LINE",
"137 550 LINE",
"310 550 LINE SMOOTH"
);
},
{
closed = 1;
nodes = (
"250 302 LINE",
"365 302 OFFCURVE",
"413 326 OFFCURVE",
"413 394 CURVE SMOOTH",
"413 451 OFFCURVE",
"353 462 OFFCURVE",
"287 462 CURVE SMOOTH",
"218 462 LINE",
"190 302 LINE"
);
}
);
width = 542;
}
);
unicode = 0050;
},
{
glyphname = Thorn;
lastChange = "2019-01-30 08:38:31 +0000";
layers = (
{
background = {
paths = (
{
closed = 1;
nodes = (
"348 449 OFFCURVE",
"396 446 OFFCURVE",
"425 439 CURVE SMOOTH",
"519 412 OFFCURVE",
"529 342 OFFCURVE",
"519 293 CURVE SMOOTH",
"506 225 OFFCURVE",
"461 147 OFFCURVE",
"353 119 CURVE",
"326 111 OFFCURVE",
"277 105 OFFCURVE",
"202 105 CURVE SMOOTH",
"149 105 LINE",
"128 0 LINE",
"30 0 LINE",
"137 550 LINE",
"235 550 LINE",
"215 449 LINE",
"273 449 LINE SMOOTH"
);
},
{
closed = 1;
nodes = (
"235 194 LINE",
"250 194 LINE SMOOTH",
"326 194 OFFCURVE",
"398 189 OFFCURVE",
"413 269 CURVE SMOOTH",
"431 359 OFFCURVE",
"352 360 OFFCURVE",
"275 360 CURVE SMOOTH",
"266 360 LINE",
"198 360 LINE",
"166 194 LINE"
);
}
);
};
layerId = "CFA4B904-E3F1-48B6-A7F6-47DC1FF2A3E1";
paths = (
{
closed = 1;
nodes = (
"425 449 OFFCURVE",
"522 419 OFFCURVE",
"522 298 CURVE SMOOTH",
"522 141 OFFCURVE",
"396 105 OFFCURVE",
"222 105 CURVE SMOOTH",
"149 105 LINE",
"128 0 LINE",
"30 0 LINE",
"137 550 LINE",
"235 550 LINE",
"215 449 LINE",
"293 449 LINE SMOOTH"
);
},
{
closed = 1;
nodes = (
"235 194 LINE",
"250 194 LINE SMOOTH",
"372 194 OFFCURVE",
"416 208 OFFCURVE",
"416 293 CURVE SMOOTH",
"416 359 OFFCURVE",
"344 360 OFFCURVE",
"275 360 CURVE SMOOTH",
"266 360 LINE",
"198 360 LINE",
"166 194 LINE"
);
}
);
width = 553;
}
);
unicode = 00DE;
},
{
glyphname = Q;
lastChange = "2019-01-30 08:38:31 +0000";
layers = (
{
background = {
paths = (
{
closed = 1;
nodes = (
"426 44 LINE",
"375 11 OFFCURVE",
"318 -7 OFFCURVE",
"256 -7 CURVE SMOOTH",
"122 -7 OFFCURVE",
"10 85 OFFCURVE",
"45 268 CURVE SMOOTH",
"79 442 OFFCURVE",
"223 557 OFFCURVE",
"378 557 CURVE SMOOTH",
"527 557 OFFCURVE",
"624 453 OFFCURVE",
"592 287 CURVE SMOOTH",
"577 212 OFFCURVE",
"543 150 OFFCURVE",
"497 102 CURVE",
"561 29 LINE",
"490 -29 LINE"
);
},
{
closed = 1;
nodes = (
"266 466 OFFCURVE",
"174 416 OFFCURVE",
"149 288 CURVE SMOOTH",
"125 162 OFFCURVE",
"190 85 OFFCURVE",
"290 85 CURVE SMOOTH",
"315 85 OFFCURVE",
"344 91 OFFCURVE",
"373 104 CURVE",
"283 206 LINE",
"356 268 LINE",
"444 162 LINE",
"463 191 OFFCURVE",
"480 225 OFFCURVE",
"488 268 CURVE SMOOTH",
"516 410 OFFCURVE",
"429 466 OFFCURVE",
"347 466 CURVE SMOOTH"
);
}
);
};
components = (
{
name = O;
}
);
layerId = "CFA4B904-E3F1-48B6-A7F6-47DC1FF2A3E1";
paths = (
{
closed = 1;
nodes = (
"293 194 LINE",
"489 -29 LINE",
"560 29 LINE",
"362 253 LINE"
);
}
);
width = 635;
}
);
unicode = 0051;
},
{
glyphname = R;
lastChange = "2019-01-30 08:38:31 +0000";
layers = (
{
anchors = (
{
name = bottom;
position = "{240, -10}";
},
{
name = top.cap;
position = "{311, 560}";
}
);
background = {
paths = (
{
closed = 1;
nodes = (
"391 550 OFFCURVE",
"542 544 OFFCURVE",
"513 395 CURVE SMOOTH",
"494 298 OFFCURVE",
"425 253 OFFCURVE",
"356 231 CURVE",
"453 0 LINE",
"340 0 LINE",
"253 214 LINE",
"238 213 OFFCURVE",
"223 213 OFFCURVE",
"208 213 CURVE SMOOTH",
"193 213 OFFCURVE",
"182 214 OFFCURVE",
"167 215 CURVE",
"128 0 LINE",
"30 0 LINE",
"137 550 LINE",
"320 550 LINE SMOOTH"
);
},
{
closed = 1;
nodes = (
"207 302 OFFCURVE",
"222 301 OFFCURVE",
"240 301 CURVE SMOOTH",
"321 301 OFFCURVE",
"397 307 OFFCURVE",
"411 379 CURVE SMOOTH",
"424 449 OFFCURVE",
"359 462 OFFCURVE",
"287 462 CURVE SMOOTH",
"218 462 LINE",
"190 304 LINE"
);
}
);
};
layerId = "CFA4B904-E3F1-48B6-A7F6-47DC1FF2A3E1";
paths = (
{
closed = 1;
nodes = (
"402 550 OFFCURVE",
"517 521 OFFCURVE",
"517 404 CURVE SMOOTH",
"517 324 OFFCURVE",
"468 262 OFFCURVE",
"358 227 CURVE",
"453 0 LINE",
"345 0 LINE",
"261 214 LINE",
"246 213 OFFCURVE",
"223 213 OFFCURVE",
"208 213 CURVE SMOOTH",
"193 213 OFFCURVE",
"182 214 OFFCURVE",
"167 215 CURVE",
"128 0 LINE",
"30 0 LINE",
"137 550 LINE",
"320 550 LINE SMOOTH"
);
},
{
closed = 1;
nodes = (
"207 301 OFFCURVE",
"222 301 OFFCURVE",
"240 301 CURVE SMOOTH",
"357 301 OFFCURVE",
"413 326 OFFCURVE",
"413 395 CURVE SMOOTH",
"413 451 OFFCURVE",
"353 462 OFFCURVE",
"287 462 CURVE SMOOTH",
"218 462 LINE",
"190 304 LINE"
);
}
);
width = 557;
}
);
unicode = 0052;
},
{
glyphname = S;
lastChange = "2019-01-30 08:38:31 +0000";
layers = (
{
anchors = (
{
name = bottom;
position = "{201, -10}";
},
{
name = top.cap;
position = "{350, 560}";
}
);
background = {
paths = (
{
closed = 1;
nodes = (
"263 463 OFFCURVE",
"221 440 OFFCURVE",
"213 403 CURVE SMOOTH",
"194 305 OFFCURVE",
"499 345 OFFCURVE",
"463 160 CURVE SMOOTH",
"447 79 OFFCURVE",
"368 -9 OFFCURVE",
"196 -9 CURVE SMOOTH",
"129 -9 OFFCURVE",
"81 8 OFFCURVE",
"29 29 CURVE",
"20 36 LINE",
"71 125 LINE",
"87 120 LINE SMOOTH",
"154 93 OFFCURVE",
"202 85 OFFCURVE",
"233 85 CURVE SMOOTH",
"303 85 OFFCURVE",
"352 109 OFFCURVE",
"359 146 CURVE",
"384 253 OFFCURVE",
"75 205 OFFCURVE",
"111 393 CURVE SMOOTH",
"130 487 OFFCURVE",
"225 555 OFFCURVE",
"354 555 CURVE SMOOTH",
"435 555 OFFCURVE",
"492 533 OFFCURVE",
"509 527 CURVE SMOOTH",
"516 522 LINE",
"463 432 LINE",
"423 449 OFFCURVE",
"382 463 OFFCURVE",
"329 463 CURVE SMOOTH"
);
}
);
};
layerId = "CFA4B904-E3F1-48B6-A7F6-47DC1FF2A3E1";
paths = (
{
closed = 1;
nodes = (
"250 463 OFFCURVE",
"212 424 OFFCURVE",
"212 390 CURVE SMOOTH",
"211 307 OFFCURVE",
"464 316 OFFCURVE",
"466 171 CURVE SMOOTH",
"466 102 OFFCURVE",
"424 -9 OFFCURVE",
"212 -9 CURVE SMOOTH",
"139 -9 OFFCURVE",
"77 8 OFFCURVE",
"20 34 CURVE",
"68 121 LINE",
"147 88 OFFCURVE",
"192 85 OFFCURVE",
"227 85 CURVE SMOOTH",
"314 85 OFFCURVE",
"368 125 OFFCURVE",
"360 159 CURVE SMOOTH",
"358 244 OFFCURVE",
"108 227 OFFCURVE",
"108 374 CURVE SMOOTH",
"108 463 OFFCURVE",
"180 555 OFFCURVE",
"354 555 CURVE SMOOTH",
"432 555 OFFCURVE",
"486 531 OFFCURVE",
"514 518 CURVE",
"463 432 LINE",
"423 449 OFFCURVE",
"382 463 OFFCURVE",
"329 463 CURVE SMOOTH"
);
}
);
width = 539;
}
);
unicode = 0053;
},
{
glyphname = T;
lastChange = "2019-01-30 08:38:31 +0000";
layers = (
{
anchors = (
{
name = bottom;
position = "{188, -10}";
},
{
name = top.cap;
position = "{293, 560}";
}
);
layerId = "CFA4B904-E3F1-48B6-A7F6-47DC1FF2A3E1";
paths = (
{
closed = 1;
nodes = (
"502 462 LINE",
"328 462 LINE",
"238 0 LINE",
"140 0 LINE",
"230 462 LINE",
"50 462 LINE",
"67 550 LINE",
"519 550 LINE"
);
}
);
width = 489;
}
);
unicode = 0054;
},
{
glyphname = Tcedilla;
lastChange = "2019-01-30 08:38:31 +0000";
layers = (
{
background = {
paths = (
{
closed = 1;
nodes = (
"162 -141 OFFCURVE",
"165 -137 OFFCURVE",
"166 -136 CURVE SMOOTH",
"168 -124 OFFCURVE",
"164 -114 OFFCURVE",
"131 -103 CURVE SMOOTH",
"82 -86 LINE",
"124 1 LINE",
"213 462 LINE",
"33 462 LINE",
"50 550 LINE",
"508 550 LINE",
"491 462 LINE",
"311 462 LINE",
"220 0 LINE",
"204 -40 LINE",
"234 -51 OFFCURVE",
"251 -70 OFFCURVE",
"242 -117 CURVE SMOOTH",
"233 -164 OFFCURVE",
"193 -208 OFFCURVE",
"122 -208 CURVE SMOOTH",
"95 -208 OFFCURVE",
"65 -204 OFFCURVE",
"35 -192 CURVE",
"23 -187 LINE",
"57 -121 LINE",
"110 -136 LINE",
"126 -137 OFFCURVE",
"135 -141 OFFCURVE",
"148 -141 CURVE SMOOTH"
);
}
);
};
layerId = "CFA4B904-E3F1-48B6-A7F6-47DC1FF2A3E1";
paths = (
{
closed = 1;
nodes = (
"203 -141 OFFCURVE",
"206 -135 OFFCURVE",
"206 -128 CURVE SMOOTH",
"206 -118 OFFCURVE",
"200 -111 OFFCURVE",
"171 -103 CURVE SMOOTH",
"107 -85 LINE",
"152 31 LINE",
"238 0 LINE",
"221 -44 LINE",
"272 -62 OFFCURVE",
"286 -85 OFFCURVE",
"286 -117 CURVE SMOOTH",
"286 -162 OFFCURVE",
"251 -210 OFFCURVE",
"175 -210 CURVE SMOOTH",
"138 -210 OFFCURVE",
"107 -204 OFFCURVE",
"60 -187 CURVE",
"86 -119 LINE",
"106 -124 LINE",
"150 -135 LINE",
"169 -139 OFFCURVE",
"177 -141 OFFCURVE",
"188 -141 CURVE SMOOTH"
);
},
{
closed = 1;
nodes = (
"502 462 LINE",
"328 462 LINE",
"238 0 LINE",
"140 0 LINE",
"230 462 LINE",
"50 462 LINE",
"67 550 LINE",
"519 550 LINE"
);
}
);
width = 489;
}
);
unicode = 0162;
},
{
glyphname = U;
lastChange = "2019-01-30 08:38:31 +0000";
layers = (
{
anchors = (
{
name = top.cap;
position = "{345, 560}";
}
);
background = {
paths = (
{
closed = 1;
nodes = (
"16 -9 OFFCURVE",
"37 129 OFFCURVE",
"50 196 CURVE SMOOTH",
"119 550 LINE",
"216 550 LINE",
"149 207 LINE SMOOTH",
"146 190 OFFCURVE",
"146 174 OFFCURVE",
"147 163 CURVE SMOOTH",
"149 112 OFFCURVE",
"190 82 OFFCURVE",
"257 82 CURVE SMOOTH",
"324 82 OFFCURVE",
"370 106 OFFCURVE",
"391 151 CURVE",
"396 168 OFFCURVE",
"400 184 OFFCURVE",
"403 201 CURVE SMOOTH",
"471 550 LINE",
"569 550 LINE",
"501 202 LINE SMOOTH",
"488 135 OFFCURVE",
"449 -9 OFFCURVE",
"229 -9 CURVE SMOOTH"
);
}
);
};
layerId = "CFA4B904-E3F1-48B6-A7F6-47DC1FF2A3E1";
paths = (
{
closed = 1;
nodes = (
"36 -9 OFFCURVE",
"39 139 OFFCURVE",
"52 206 CURVE SMOOTH",
"119 550 LINE",
"216 550 LINE",
"149 207 LINE SMOOTH",
"137 136 OFFCURVE",
"146 82 OFFCURVE",
"244 82 CURVE SMOOTH",
"345 82 OFFCURVE",
"388 122 OFFCURVE",
"403 201 CURVE SMOOTH",
"471 550 LINE",
"569 550 LINE",
"501 202 LINE SMOOTH",
"488 135 OFFCURVE",
"469 -9 OFFCURVE",
"239 -9 CURVE SMOOTH"
);
}
);
width = 594;
}
);
unicode = 0055;
},
{
glyphname = Uacute;
lastChange = "2019-01-30 08:38:31 +0000";
layers = (
{
components = (
{
name = U;
}
);
layerId = "CFA4B904-E3F1-48B6-A7F6-47DC1FF2A3E1";
paths = (
{
closed = 1;
nodes = (
"291 580 LINE",
"520 663 LINE",
"486 746 LINE",
"261 641 LINE"
);
}
);
width = 594;
}
);
unicode = 00DA;
},
{
glyphname = Ugrave;
lastChange = "2019-01-30 08:38:31 +0000";
layers = (
{
components = (
{
name = U;
}
);
layerId = "CFA4B904-E3F1-48B6-A7F6-47DC1FF2A3E1";
paths = (
{
closed = 1;
nodes = (
"253 743 LINE",
"205 668 LINE",
"417 580 LINE",
"457 636 LINE"
);
}
);
width = 594;
}
);
unicode = 00D9;
},
{
glyphname = Uogonek;
lastChange = "2019-01-30 08:38:31 +0000";
layers = (
{
anchors = (
{
name = top.cap;
position = "{325, 560}";
}
);
background = {
paths = (
{
closed = 1;
nodes = (
"468 133 OFFCURVE",
"440 72 OFFCURVE",
"381 42 CURVE",
"305 -8 OFFCURVE",
"212 -33 OFFCURVE",
"202 -85 CURVE SMOOTH",
"196 -116 OFFCURVE",
"212 -138 OFFCURVE",
"247 -138 CURVE SMOOTH",
"270 -138 OFFCURVE",
"301 -126 OFFCURVE",
"319 -119 CURVE",
"330 -160 LINE",
"293 -180 OFFCURVE",
"250 -200 OFFCURVE",
"192 -200 CURVE SMOOTH",
"127 -200 OFFCURVE",
"92 -160 OFFCURVE",
"101 -114 CURVE SMOOTH",
"110 -69 OFFCURVE",
"149 -28 OFFCURVE",
"189 -10 CURVE",
"-6 0 OFFCURVE",
"18 134 OFFCURVE",
"30 196 CURVE SMOOTH",
"99 550 LINE",
"196 550 LINE",
"129 207 LINE SMOOTH",
"126 190 OFFCURVE",
"126 174 OFFCURVE",
"127 163 CURVE SMOOTH",
"129 112 OFFCURVE",
"168 82 OFFCURVE",
"237 82 CURVE SMOOTH",
"303 82 OFFCURVE",
"350 106 OFFCURVE",
"370 151 CURVE SMOOTH",
"376 168 OFFCURVE",
"380 184 OFFCURVE",
"383 201 CURVE SMOOTH",
"451 550 LINE",
"549 550 LINE",
"481 202 LINE SMOOTH"
);
}
);
};
layerId = "CFA4B904-E3F1-48B6-A7F6-47DC1FF2A3E1";
paths = (
{
closed = 1;
nodes = (
"451 550 LINE",
"383 201 LINE SMOOTH",
"368 122 OFFCURVE",
"325 82 OFFCURVE",
"224 82 CURVE SMOOTH",
"126 82 OFFCURVE",
"117 136 OFFCURVE",
"129 207 CURVE SMOOTH",
"196 550 LINE",
"99 550 LINE",
"32 206 LINE SMOOTH",
"19 142 OFFCURVE",
"16 3 OFFCURVE",
"195 -8 CURVE",
"147 -35 OFFCURVE",
"110 -67 OFFCURVE",
"101 -114 CURVE SMOOTH",
"92 -160 OFFCURVE",
"127 -200 OFFCURVE",
"192 -200 CURVE SMOOTH",
"250 -200 OFFCURVE",
"293 -180 OFFCURVE",
"330 -160 CURVE",
"319 -119 LINE",
"301 -126 OFFCURVE",
"270 -138 OFFCURVE",
"247 -138 CURVE SMOOTH",
"212 -138 OFFCURVE",
"196 -116 OFFCURVE",
"202 -85 CURVE SMOOTH",
"209 -50 OFFCURVE",
"277 -18 OFFCURVE",
"328 8 CURVE",
"453 74 OFFCURVE",
"470 144 OFFCURVE",
"481 202 CURVE SMOOTH",
"549 550 LINE"
);
}
);
width = 574;
}
);
unicode = 0172;
},
{
glyphname = V;
lastChange = "2019-01-30 08:38:31 +0000";
layers = (
{
background = {
paths = (
{
closed = 1;
nodes = (
"240 105 LINE",
"464 550 LINE",
"567 550 LINE",
"270 0 LINE",
"153 0 LINE",
"59 550 LINE",
"172 550 LINE"
);
}
);
};
layerId = "CFA4B904-E3F1-48B6-A7F6-47DC1FF2A3E1";
paths = (
{
closed = 1;
nodes = (
"240 105 LINE",
"464 550 LINE",
"567 550 LINE",
"287 0 LINE",
"164 0 LINE",
"72 550 LINE",
"172 550 LINE"
);
}
);
width = 547;
}
);
unicode = 0056;
},
{
glyphname = W;
lastChange = "2019-01-30 08:38:31 +0000";
layers = (
{
background = {
paths = (
{
closed = 1;
nodes = (
"207 128 LINE",
"422 550 LINE",
"533 550 LINE",
"559 128 LINE",
"779 550 LINE",
"882 550 LINE",
"579 0 LINE",
"477 0 LINE",
"446 423 LINE",
"233 0 LINE",
"132 0 LINE",
"72 550 LINE",
"179 550 LINE"
);
}
);
};
layerId = "CFA4B904-E3F1-48B6-A7F6-47DC1FF2A3E1";
paths = (
{
closed = 1;
nodes = (
"206 128 LINE",
"409 550 LINE",
"523 550 LINE",
"559 128 LINE",
"779 550 LINE",
"882 550 LINE",
"593 0 LINE",
"481 0 LINE",
"446 423 LINE",
"233 0 LINE",
"132 0 LINE",
"72 550 LINE",
"169 550 LINE"
);
}
);
width = 862;
}
);
unicode = 0057;
},
{
glyphname = X;
lastChange = "2019-01-30 08:38:31 +0000";
layers = (
{
background = {
paths = (
{
closed = 1;
nodes = (
"582 550 LINE",
"352 287 LINE",
"492 0 LINE",
"378 0 LINE",
"278 205 LINE",
"100 0 LINE",
"-10 0 LINE",
"240 287 LINE",
"110 550 LINE",
"223 550 LINE",
"314 368 LINE",
"471 550 LINE"
);
}
);
};
layerId = "CFA4B904-E3F1-48B6-A7F6-47DC1FF2A3E1";
paths = (
{
closed = 1;
nodes = (
"228 550 LINE",
"497 0 LINE",
"386 0 LINE",
"121 550 LINE"
);
},
{
closed = 1;
nodes = (
"582 550 LINE",
"101 1 LINE",
"-20 1 LINE",
"461 550 LINE"
);
}
);
width = 562;
}
);
unicode = 0058;
},
{
glyphname = Y;
lastChange = "2019-01-30 08:38:31 +0000";
layers = (
{
anchors = (
{
name = top.cap;
position = "{288, 560}";
}
);
background = {
paths = (
{
closed = 1;
nodes = (
"265 337 LINE",
"445 550 LINE",
"553 550 LINE",
"288 249 LINE",
"241 0 LINE",
"143 0 LINE",
"190 249 LINE",
"55 550 LINE",
"166 550 LINE"
);
}
);
};
layerId = "CFA4B904-E3F1-48B6-A7F6-47DC1FF2A3E1";
paths = (
{
closed = 1;
nodes = (
"255 337 LINE",
"445 550 LINE",
"553 550 LINE",
"287 242 LINE",
"241 0 LINE",
"143 0 LINE",
"190 249 LINE",
"55 550 LINE",
"155 550 LINE"
);
}
);
width = 518;
}
);
unicode = 0059;
},
{
glyphname = Yacute;
lastChange = "2019-01-30 08:38:31 +0000";
layers = (
{
components = (
{
name = Y;
}
);
layerId = "CFA4B904-E3F1-48B6-A7F6-47DC1FF2A3E1";
paths = (
{
closed = 1;
nodes = (
"207 580 LINE",
"436 663 LINE",
"402 746 LINE",
"177 641 LINE"
);
}
);
width = 518;
}
);
unicode = 00DD;
},
{
glyphname = Z;
lastChange = "2019-01-30 08:38:31 +0000";
layers = (
{
anchors = (
{
name = top.cap;
position = "{338, 560}";
}
);
background = {
paths = (
{
closed = 1;
nodes = (
"528 491 LINE",
"155 89 LINE",
"452 89 LINE",
"435 0 LINE",
"7 0 LINE",
"20 61 LINE",
"384 462 LINE",
"116 462 LINE",
"133 550 LINE",
"540 550 LINE"
);
}
);
};
layerId = "CFA4B904-E3F1-48B6-A7F6-47DC1FF2A3E1";
paths = (
{
closed = 1;
nodes = (
"528 491 LINE",
"162 86 LINE",
"452 86 LINE",
"435 0 LINE",
"20 0 LINE",
"20 61 LINE",
"376 462 LINE",
"116 462 LINE",
"133 550 LINE",
"528 550 LINE"
);
}
);
width = 548;
}
);
unicode = 005A;
},
{
glyphname = a;
lastChange = "2019-01-30 08:38:31 +0000";
layers = (
{
anchors = (
{
name = top;
position = "{243, 384}";
}
);
background = {
paths = (
{
closed = 1;
nodes = (
"387 390 OFFCURVE",
"407 328 OFFCURVE",
"390 239 CURVE SMOOTH",
"343 0 LINE",
"266 0 LINE",
"259 29 LINE",
"226 6 OFFCURVE",
"184 -9 OFFCURVE",
"137 -9 CURVE SMOOTH",
"54 -9 OFFCURVE",
"15 37 OFFCURVE",
"27 98 CURVE SMOOTH",
"43 178 OFFCURVE",
"113 223 OFFCURVE",
"215 228 CURVE SMOOTH",
"288 229 LINE",
"300 294 OFFCURVE",
"284 318 OFFCURVE",
"211 318 CURVE SMOOTH",
"176 318 OFFCURVE",
"142 310 OFFCURVE",
"111 299 CURVE",
"114 363 LINE",
"143 372 OFFCURVE",
"198 390 OFFCURVE",
"250 390 CURVE SMOOTH"
);
},
{
closed = 1;
nodes = (
"208 162 LINE SMOOTH",
"157 159 OFFCURVE",
"132 146 OFFCURVE",
"127 119 CURVE SMOOTH",
"120 84 OFFCURVE",
"143 63 OFFCURVE",
"185 63 CURVE SMOOTH",
"226 63 OFFCURVE",
"240 73 OFFCURVE",
"265 84 CURVE",
"280 167 LINE"
);
}
);
};
layerId = "CFA4B904-E3F1-48B6-A7F6-47DC1FF2A3E1";
paths = (
{
closed = 1;
nodes = (
"381 390 OFFCURVE",
"396 317 OFFCURVE",
"381 228 CURVE SMOOTH",
"343 0 LINE",
"266 0 LINE",
"262 31 LINE",
"229 8 OFFCURVE",
"189 -9 OFFCURVE",
"142 -9 CURVE SMOOTH",
"69 -9 OFFCURVE",
"29 37 OFFCURVE",
"29 87 CURVE SMOOTH",
"29 159 OFFCURVE",
"75 229 OFFCURVE",
"215 229 CURVE SMOOTH",
"288 229 LINE",
"300 294 OFFCURVE",
"284 318 OFFCURVE",
"211 318 CURVE SMOOTH",
"176 318 OFFCURVE",
"126 308 OFFCURVE",
"95 300 CURVE",
"98 364 LINE",
"127 373 OFFCURVE",
"192 390 OFFCURVE",
"244 390 CURVE SMOOTH"
);
},
{
closed = 1;
nodes = (
"208 167 LINE SMOOTH",
"146 167 OFFCURVE",
"126 140 OFFCURVE",
"126 108 CURVE SMOOTH",
"126 80 OFFCURVE",
"145 63 OFFCURVE",
"182 63 CURVE SMOOTH",
"223 63 OFFCURVE",
"242 70 OFFCURVE",
"267 81 CURVE",
"280 167 LINE"
);
}
);
width = 420;
}
);
unicode = 0061;
},
{
glyphname = agrave;
lastChange = "2019-01-30 08:38:31 +0000";
layers = (
{
background = {
paths = (
{
closed = 1;
nodes = (
"228 333 OFFCURVE",
"257 318 OFFCURVE",
"268 288 CURVE",
"273 276 OFFCURVE",
"276 256 OFFCURVE",
"276 228 CURVE SMOOTH",
"276 225 LINE",
"217 224 OFFCURVE",
"171 220 OFFCURVE",
"133 210 CURVE SMOOTH",
"83 198 OFFCURVE",
"38 159 OFFCURVE",
"38 96 CURVE SMOOTH",
"38 33 OFFCURVE",
"93 -10 OFFCURVE",
"161 -10 CURVE SMOOTH",
"204 -10 OFFCURVE",
"242 7 OFFCURVE",
"278 36 CURVE",
"292 0 LINE",
"341 0 LINE",
"341 248 LINE SMOOTH",
"341 359 OFFCURVE",
"286 388 OFFCURVE",
"189 388 CURVE SMOOTH",
"148 388 OFFCURVE",
"105 379 OFFCURVE",
"64 365 CURVE",
"77 317 LINE",
"109 327 OFFCURVE",
"153 333 OFFCURVE",
"180 333 CURVE SMOOTH"
);
},
{
closed = 1;
nodes = (
"136 42 OFFCURVE",
"101 62 OFFCURVE",
"101 103 CURVE SMOOTH",
"101 141 OFFCURVE",
"127 160 OFFCURVE",
"174 170 CURVE SMOOTH",
"189 173 OFFCURVE",
"224 177 OFFCURVE",
"276 178 CURVE",
"276 86 LINE",
"248 60 OFFCURVE",
"217 42 OFFCURVE",
"170 42 CURVE SMOOTH"
);
},
{
closed = 1;
nodes = (
"89 550 LINE",
"239 427 LINE",
"272 465 LINE",
"125 593 LINE"
);
}
);
};
components = (
{
name = a;
},
{
name = grave;
transform = "{1, 0, 0, 1, 165, 0}";
}
);
layerId = "CFA4B904-E3F1-48B6-A7F6-47DC1FF2A3E1";
width = 420;
}
);
unicode = 00E0;
},
{
glyphname = aogonek;
lastChange = "2019-01-30 08:38:31 +0000";
layers = (
{
anchors = (
{
name = top;
position = "{243, 384}";
}
);
background = {
paths = (
{
closed = 1;
nodes = (
"285 -26 OFFCURVE",
"222 -58 OFFCURVE",
"215 -94 CURVE SMOOTH",
"209 -123 OFFCURVE",
"226 -140 OFFCURVE",
"256 -140 CURVE SMOOTH",
"278 -140 OFFCURVE",
"309 -126 OFFCURVE",
"330 -115 CURVE",
"345 -156 LINE",
"307 -177 OFFCURVE",
"266 -200 OFFCURVE",
"207 -200 CURVE SMOOTH",
"149 -200 OFFCURVE",
"111 -167 OFFCURVE",
"119 -123 CURVE SMOOTH",
"134 -47 OFFCURVE",
"221 -17 OFFCURVE",
"270 7 CURVE",
"261 29 LINE",
"228 6 OFFCURVE",
"186 -9 OFFCURVE",
"139 -9 CURVE SMOOTH",
"56 -9 OFFCURVE",
"17 37 OFFCURVE",
"29 98 CURVE SMOOTH",
"45 178 OFFCURVE",
"115 223 OFFCURVE",
"217 228 CURVE SMOOTH",
"290 229 LINE",
"302 294 OFFCURVE",
"286 318 OFFCURVE",
"213 318 CURVE SMOOTH",
"178 318 OFFCURVE",
"144 310 OFFCURVE",
"113 299 CURVE",
"116 363 LINE",
"145 372 OFFCURVE",
"200 390 OFFCURVE",
"252 390 CURVE SMOOTH",
"389 390 OFFCURVE",
"409 328 OFFCURVE",
"392 239 CURVE SMOOTH",
"343 1 LINE"
);
},
{
closed = 1;
nodes = (
"210 162 LINE SMOOTH",
"159 159 OFFCURVE",
"134 146 OFFCURVE",
"129 119 CURVE SMOOTH",
"122 84 OFFCURVE",
"145 63 OFFCURVE",
"187 63 CURVE SMOOTH",
"228 63 OFFCURVE",
"242 73 OFFCURVE",
"267 84 CURVE",
"282 167 LINE"
);
}
);
};
layerId = "CFA4B904-E3F1-48B6-A7F6-47DC1FF2A3E1";
paths = (
{
closed = 1;
nodes = (
"381 228 LINE SMOOTH",
"396 317 OFFCURVE",
"381 390 OFFCURVE",
"244 390 CURVE SMOOTH",
"192 390 OFFCURVE",
"127 373 OFFCURVE",
"98 364 CURVE",
"95 300 LINE",
"126 308 OFFCURVE",
"176 318 OFFCURVE",
"211 318 CURVE SMOOTH",
"284 318 OFFCURVE",
"300 294 OFFCURVE",
"288 229 CURVE",
"215 229 LINE SMOOTH",
"75 229 OFFCURVE",
"29 159 OFFCURVE",
"29 87 CURVE SMOOTH",
"29 37 OFFCURVE",
"69 -9 OFFCURVE",
"142 -9 CURVE SMOOTH",
"189 -9 OFFCURVE",
"229 8 OFFCURVE",
"262 31 CURVE",
"270 7 LINE",
"221 -17 OFFCURVE",
"134 -47 OFFCURVE",
"119 -123 CURVE SMOOTH",
"111 -167 OFFCURVE",
"149 -200 OFFCURVE",
"207 -200 CURVE SMOOTH",
"266 -200 OFFCURVE",
"307 -177 OFFCURVE",
"345 -156 CURVE",
"330 -115 LINE",
"309 -126 OFFCURVE",
"278 -140 OFFCURVE",
"256 -140 CURVE SMOOTH",
"226 -140 OFFCURVE",
"209 -123 OFFCURVE",
"215 -94 CURVE SMOOTH",
"222 -58 OFFCURVE",
"285 -27 OFFCURVE",
"343 0 CURVE"
);
},
{
closed = 1;
nodes = (
"267 81 LINE",
"242 70 OFFCURVE",
"223 63 OFFCURVE",
"182 63 CURVE SMOOTH",
"145 63 OFFCURVE",
"126 80 OFFCURVE",
"126 108 CURVE SMOOTH",
"126 140 OFFCURVE",
"146 167 OFFCURVE",
"208 167 CURVE SMOOTH",
"280 167 LINE"
);
}
);
width = 420;
}
);
unicode = 0105;
},
{
glyphname = ae;
lastChange = "2019-01-30 08:38:31 +0000";
layers = (
{
background = {
paths = (
{
closed = 1;
nodes = (
"610 390 OFFCURVE",
"643 314 OFFCURVE",
"620 193 CURVE SMOOTH",
"612 153 LINE",
"361 156 LINE",
"353 87 OFFCURVE",
"390 66 OFFCURVE",
"461 66 CURVE SMOOTH",
"504 66 OFFCURVE",
"537 70 OFFCURVE",
"566 77 CURVE",
"566 14 LINE",
"526 1 OFFCURVE",
"484 -10 OFFCURVE",
"431 -10 CURVE SMOOTH",
"368 -10 OFFCURVE",
"325 6 OFFCURVE",
"300 38 CURVE",
"231 1 OFFCURVE",
"179 -9 OFFCURVE",
"141 -9 CURVE SMOOTH",
"58 -9 OFFCURVE",
"19 37 OFFCURVE",
"31 98 CURVE SMOOTH",
"47 178 OFFCURVE",
"117 223 OFFCURVE",
"219 228 CURVE SMOOTH",
"292 229 LINE",
"304 294 OFFCURVE",
"288 318 OFFCURVE",
"215 318 CURVE SMOOTH",
"180 318 OFFCURVE",
"146 310 OFFCURVE",
"115 299 CURVE",
"118 363 LINE",
"147 372 OFFCURVE",
"202 390 OFFCURVE",
"254 390 CURVE SMOOTH",
"325 390 OFFCURVE",
"352 374 OFFCURVE",
"376 347 CURVE",
"409 370 OFFCURVE",
"452 390 OFFCURVE",
"494 390 CURVE SMOOTH"
);
},
{
closed = 1;
nodes = (
"161 159 OFFCURVE",
"136 146 OFFCURVE",
"131 119 CURVE SMOOTH",
"124 84 OFFCURVE",
"147 63 OFFCURVE",
"189 63 CURVE SMOOTH",
"224 63 OFFCURVE",
"246 68 OFFCURVE",
"270 83 CURVE",
"285 167 LINE",
"212 162 LINE SMOOTH"
);
},
{
closed = 1;
nodes = (
"435 315 OFFCURVE",
"392 287 OFFCURVE",
"376 223 CURVE",
"531 217 LINE",
"544 281 OFFCURVE",
"518 315 OFFCURVE",
"471 315 CURVE SMOOTH"
);
}
);
};
layerId = "CFA4B904-E3F1-48B6-A7F6-47DC1FF2A3E1";
paths = (
{
closed = 1;
nodes = (
"429 390 OFFCURVE",
"388 374 OFFCURVE",
"355 348 CURVE",
"335 374 OFFCURVE",
"307.963 390 OFFCURVE",
"244 390 CURVE SMOOTH",
"192 390 OFFCURVE",
"127 373 OFFCURVE",
"98 364 CURVE",
"95 300 LINE",
"126 308 OFFCURVE",
"176 318 OFFCURVE",
"211 318 CURVE SMOOTH",
"284 318 OFFCURVE",
"300 294 OFFCURVE",
"288 229 CURVE",
"215 229 LINE SMOOTH",
"75 229 OFFCURVE",
"29 159 OFFCURVE",
"29 87 CURVE SMOOTH",
"29 37 OFFCURVE",
"69 -9 OFFCURVE",
"142 -9 CURVE SMOOTH",
"211 -9 OFFCURVE",
"278 19 OFFCURVE",
"314 43 CURVE",
"339 11 OFFCURVE",
"364 -10 OFFCURVE",
"424 -10 CURVE SMOOTH",
"478 -10 OFFCURVE",
"527 1 OFFCURVE",
"568 14 CURVE",
"568 77 LINE",
"539 70 OFFCURVE",
"505 66 OFFCURVE",
"462 66 CURVE SMOOTH",
"392 66 OFFCURVE",
"357 87 OFFCURVE",
"365 156 CURVE",
"611 153 LINE",
"619 193 LINE SMOOTH",
"642 314 OFFCURVE",
"589 390 OFFCURVE",
"477 390 CURVE SMOOTH"
);
},
{
closed = 1;
nodes = (
"372 217 LINE",
"388 281 OFFCURVE",
"423 315 OFFCURVE",
"464 315 CURVE SMOOTH",
"513 315 OFFCURVE",
"546 281 OFFCURVE",
"533 217 CURVE"
);
},
{
closed = 1;
nodes = (
"145 63 OFFCURVE",
"126 80 OFFCURVE",
"126 108 CURVE SMOOTH",
"126 140 OFFCURVE",
"146 167 OFFCURVE",
"208 167 CURVE SMOOTH",
"279.695 167 LINE",
"279.489 163.621 LINE",
"267 81 LINE",
"242 70 OFFCURVE",
"223 63 OFFCURVE",
"182 63 CURVE SMOOTH"
);
}
);
width = 653;
}
);
unicode = 00E6;
},
{
glyphname = b;
lastChange = "2019-01-30 08:38:31 +0000";
layers = (
{
background = {
paths = (
{
closed = 1;
nodes = (
"208 373 LINE",
"237 385 OFFCURVE",
"270 390 OFFCURVE",
"305 390 CURVE SMOOTH",
"387 390 OFFCURVE",
"478 343 OFFCURVE",
"450 198 CURVE SMOOTH",
"425 72 OFFCURVE",
"335 -9 OFFCURVE",
"208 -9 CURVE SMOOTH",
"169 -9 OFFCURVE",
"139 3 OFFCURVE",
"115 19 CURVE",
"104 0 LINE",
"37 0 LINE",
"144 550 LINE",
"240 550 LINE"
);
},
{
closed = 1;
nodes = (
"237 315 OFFCURVE",
"217 314 OFFCURVE",
"190 303 CURVE",
"152 87 LINE",
"166 76 OFFCURVE",
"187 66 OFFCURVE",
"217 66 CURVE SMOOTH",
"276 66 OFFCURVE",
"331 93 OFFCURVE",
"348 179 CURVE SMOOTH",
"368 282 OFFCURVE",
"321 315 OFFCURVE",
"258 315 CURVE SMOOTH"
);
}
);
};
layerId = "CFA4B904-E3F1-48B6-A7F6-47DC1FF2A3E1";
paths = (
{
closed = 1;
nodes = (
"208 373 LINE",
"237 385 OFFCURVE",
"266 390 OFFCURVE",
"301 390 CURVE SMOOTH",
"376 390 OFFCURVE",
"453 334 OFFCURVE",
"453 227 CURVE SMOOTH",
"453 129 OFFCURVE",
"396 -9 OFFCURVE",
"234 -9 CURVE SMOOTH",
"185 -9 OFFCURVE",
"143 10 OFFCURVE",
"119 26 CURVE",
"104 0 LINE",
"37 0 LINE",
"144 550 LINE",
"240 550 LINE"
);
},
{
closed = 1;
nodes = (
"237 315 OFFCURVE",
"217 314 OFFCURVE",
"190 303 CURVE",
"146 84 LINE",
"165 74 OFFCURVE",
"187 66 OFFCURVE",
"217 66 CURVE SMOOTH",
"316 66 OFFCURVE",
"353 143 OFFCURVE",
"353 225 CURVE SMOOTH",
"353 292 OFFCURVE",
"310 315 OFFCURVE",
"258 315 CURVE SMOOTH"
);
}
);
width = 483;
}
);
unicode = 0062;
},
{
glyphname = c;
lastChange = "2019-01-30 08:38:31 +0000";
layers = (
{
anchors = (
{
name = top;
position = "{267, 384}";
}
);
background = {
paths = (
{
closed = 1;
nodes = (
"121 121 OFFCURVE",
"156 66 OFFCURVE",
"231 66 CURVE SMOOTH",
"270 66 OFFCURVE",
"303 77 OFFCURVE",
"337 88 CURVE",
"349 29 LINE",
"309 9 OFFCURVE",
"261 -10 OFFCURVE",
"190 -10 CURVE SMOOTH",
"71 -10 OFFCURVE",
"11 67 OFFCURVE",
"34 183 CURVE SMOOTH",
"59 311 OFFCURVE",
"155 390 OFFCURVE",
"278 390 CURVE SMOOTH",
"345 390 OFFCURVE",
"381 374 OFFCURVE",
"415 356 CURVE",
"371 291 LINE",
"341 302 OFFCURVE",
"312 315 OFFCURVE",
"269 315 CURVE SMOOTH",
"192 315 OFFCURVE",
"149 266 OFFCURVE",
"135 197 CURVE SMOOTH"
);
}
);
};
layerId = "CFA4B904-E3F1-48B6-A7F6-47DC1FF2A3E1";
paths = (
{
closed = 1;
nodes = (
"132 228 OFFCURVE",
"132 166 CURVE SMOOTH",
"132 107 OFFCURVE",
"167 66 OFFCURVE",
"231 66 CURVE SMOOTH",
"270 66 OFFCURVE",
"303 77 OFFCURVE",
"337 88 CURVE",
"351 21 LINE",
"311 6 OFFCURVE",
"261 -10 OFFCURVE",
"190 -10 CURVE SMOOTH",
"88 -10 OFFCURVE",
"29 61 OFFCURVE",
"29 151 CURVE SMOOTH",
"29 252 OFFCURVE",
"91 390 OFFCURVE",
"278 390 CURVE SMOOTH",
"329 390 OFFCURVE",
"371 378 OFFCURVE",
"405 361 CURVE",
"363 298 LINE",
"333 309 OFFCURVE",
"309 315 OFFCURVE",
"269 315 CURVE SMOOTH",
"168 315 OFFCURVE"
);
}
);
width = 405;
}
);
unicode = 0063;
},
{
glyphname = ccedilla;
lastChange = "2019-01-30 08:38:31 +0000";
layers = (
{
background = {
paths = (
{
closed = 1;
nodes = (
"45 121 OFFCURVE",
"80 66 OFFCURVE",
"155 66 CURVE SMOOTH",
"194 66 OFFCURVE",
"227 77 OFFCURVE",
"261 88 CURVE",
"273 29 LINE",
"236 10 OFFCURVE",
"197 -6 OFFCURVE",
"139 -10 CURVE",
"130 -41 LINE",
"168 -52 OFFCURVE",
"199 -73 OFFCURVE",
"190 -117 CURVE SMOOTH",
"181 -164 OFFCURVE",
"142 -208 OFFCURVE",
"73 -208 CURVE SMOOTH",
"43 -208 OFFCURVE",
"16 -204 OFFCURVE",
"-16 -192 CURVE",
"-26 -187 LINE",
"6 -121 LINE",
"59 -136 LINE",
"75 -137 OFFCURVE",
"86 -141 OFFCURVE",
"96 -141 CURVE SMOOTH",
"113 -141 OFFCURVE",
"114 -137 OFFCURVE",
"115 -136 CURVE SMOOTH",
"117 -124 OFFCURVE",
"114 -114 OFFCURVE",
"81 -103 CURVE SMOOTH",
"32 -86 LINE",
"68 -7 LINE",
"-22 13 OFFCURVE",
"-62 84 OFFCURVE",
"-42 183 CURVE SMOOTH",
"-17 311 OFFCURVE",
"79 390 OFFCURVE",
"202 390 CURVE SMOOTH",
"274 390 OFFCURVE",
"304 372 OFFCURVE",
"339 356 CURVE",
"295 291 LINE",
"265 302 OFFCURVE",
"236 315 OFFCURVE",
"193 315 CURVE SMOOTH",
"116 315 OFFCURVE",
"73 266 OFFCURVE",
"59 197 CURVE SMOOTH"
);
}
);
};
components = (
{
name = c;
},
{
name = cedilla;
transform = "{1, 0, 0, 1, 180, 0}";
}
);
layerId = "CFA4B904-E3F1-48B6-A7F6-47DC1FF2A3E1";
width = 405;
}
);
unicode = 00E7;
},
{
glyphname = d;
lastChange = "2019-01-30 08:38:31 +0000";
layers = (
{
background = {
paths = (
{
closed = 1;
nodes = (
"374 0 LINE",
"304 0 LINE",
"300 23 LINE",
"270 7 OFFCURVE",
"231 -9 OFFCURVE",
"188 -9 CURVE SMOOTH",
"68 -9 OFFCURVE",
"12 66 OFFCURVE",
"35 184 CURVE SMOOTH",
"65 337 OFFCURVE",
"189 390 OFFCURVE",
"268 390 CURVE SMOOTH",
"299 390 OFFCURVE",
"328 387 OFFCURVE",
"353 375 CURVE",
"385 550 LINE",
"481 550 LINE"
);
},
{
closed = 1;
nodes = (
"205 315 OFFCURVE",
"154 288 OFFCURVE",
"136 193 CURVE SMOOTH",
"117 99 OFFCURVE",
"164 66 OFFCURVE",
"230 66 CURVE SMOOTH",
"255 66 OFFCURVE",
"277 72 OFFCURVE",
"296 83 CURVE",
"335 301 LINE",
"312 312 OFFCURVE",
"290 315 OFFCURVE",
"265 315 CURVE SMOOTH"
);
}
);
};
layerId = "CFA4B904-E3F1-48B6-A7F6-47DC1FF2A3E1";
paths = (
{
closed = 1;
nodes = (
"374 0 LINE",
"304 0 LINE",
"300 23 LINE",
"275 7 OFFCURVE",
"237 -9 OFFCURVE",
"188 -9 CURVE SMOOTH",
"92 -9 OFFCURVE",
"30 68 OFFCURVE",
"30 157 CURVE SMOOTH",
"30 277 OFFCURVE",
"111 390 OFFCURVE",
"258 390 CURVE SMOOTH",
"289 390 OFFCURVE",
"328 384 OFFCURVE",
"353 375 CURVE",
"385 550 LINE",
"478 550 LINE"
);
},
{
closed = 1;
nodes = (
"168 315 OFFCURVE",
"132 233 OFFCURVE",
"132 161 CURVE SMOOTH",
"132 86 OFFCURVE",
"174 66 OFFCURVE",
"230 66 CURVE SMOOTH",
"255 66 OFFCURVE",
"283 72 OFFCURVE",
"302 83 CURVE",
"341 301 LINE",
"318 312 OFFCURVE",
"290 315 OFFCURVE",
"265 315 CURVE SMOOTH"
);
}
);
width = 473;
}
);
unicode = 0064;
},
{
glyphname = eth;
lastChange = "2019-01-30 08:38:31 +0000";
layers = (
{
background = {
paths = (
{
closed = 1;
nodes = (
"464 478 LINE",
"451 539 LINE",
"357 502 LINE",
"323 535 OFFCURVE",
"287 554 OFFCURVE",
"266 566 CURVE",
"221 506 LINE",
"238 498 OFFCURVE",
"258 488 OFFCURVE",
"276 473 CURVE",
"213 448 LINE",
"227 388 LINE",
"320 425 LINE",
"330 406 OFFCURVE",
"338 383 OFFCURVE",
"336 353 CURVE",
"308 361 OFFCURVE",
"278 367 OFFCURVE",
"248 367 CURVE SMOOTH",
"147 367 OFFCURVE",
"52 308 OFFCURVE",
"29 189 CURVE SMOOTH",
"5 68 OFFCURVE",
"68 -9 OFFCURVE",
"192 -9 CURVE SMOOTH",
"295 -9 OFFCURVE",
"402 70 OFFCURVE",
"429 211 CURVE SMOOTH",
"451 323 OFFCURVE",
"431 399 OFFCURVE",
"398 451 CURVE"
);
},
{
closed = 1;
nodes = (
"144 67 OFFCURVE",
"110 107 OFFCURVE",
"123 175 CURVE SMOOTH",
"141 266 OFFCURVE",
"204 295 OFFCURVE",
"266 295 CURVE SMOOTH",
"292 295 OFFCURVE",
"318 288 OFFCURVE",
"346 277 CURVE",
"330 104 OFFCURVE",
"253 67 OFFCURVE",
"197 67 CURVE SMOOTH"
);
}
);
};
layerId = "CFA4B904-E3F1-48B6-A7F6-47DC1FF2A3E1";
paths = (
{
closed = 1;
nodes = (
"464 477 LINE",
"451 539 LINE",
"357 502 LINE",
"323 535 OFFCURVE",
"287 554 OFFCURVE",
"266 566 CURVE",
"221 506 LINE",
"238 498 OFFCURVE",
"263 488 OFFCURVE",
"281 473 CURVE",
"224 452 LINE",
"238 392 LINE",
"325 423 LINE",
"336 404 OFFCURVE",
"343 381 OFFCURVE",
"344 351 CURVE",
"316 359 OFFCURVE",
"288 367 OFFCURVE",
"258 367 CURVE SMOOTH",
"105 367 OFFCURVE",
"30 258 OFFCURVE",
"30 152 CURVE SMOOTH",
"29 58 OFFCURVE",
"85 -9 OFFCURVE",
"192 -9 CURVE SMOOTH",
"356 -9 OFFCURVE",
"438 142 OFFCURVE",
"438 292 CURVE SMOOTH",
"438 356 OFFCURVE",
"421 415 OFFCURVE",
"398 451 CURVE"
);
},
{
closed = 1;
nodes = (
"151 67 OFFCURVE",
"120 107 OFFCURVE",
"120 158 CURVE SMOOTH",
"120 227 OFFCURVE",
"164 295 OFFCURVE",
"266 295 CURVE SMOOTH",
"292 295 OFFCURVE",
"318 288 OFFCURVE",
"346 277 CURVE",
"330 104 OFFCURVE",
"253 67 OFFCURVE",
"197 67 CURVE SMOOTH"
);
}
);
width = 459;
}
);
unicode = 00F0;
},
{
glyphname = dcaron;
lastChange = "2019-01-30 08:38:31 +0000";
layers = (
{
components = (
{
name = d;
}
);
guideLines = (
{
angle = 90;
position = "{510, 466}";
}
);
layerId = "CFA4B904-E3F1-48B6-A7F6-47DC1FF2A3E1";
paths = (
{
closed = 1;
nodes = (
"574 420 LINE",
"504 420 LINE",
"564 596 LINE",
"655 596 LINE"
);
}
);
width = 515;
}
);
unicode = 010F;
},
{
glyphname = dcroat;
lastChange = "2019-01-30 08:38:31 +0000";
layers = (
{
background = {
paths = (
{
closed = 1;
nodes = (
"475 498 LINE",
"548 498 LINE",
"534 425 LINE",
"461 425 LINE",
"378 0 LINE",
"308 0 LINE",
"304 23 LINE",
"274 7 OFFCURVE",
"235 -9 OFFCURVE",
"192 -9 CURVE SMOOTH",
"72 -9 OFFCURVE",
"15 63 OFFCURVE",
"38 181 CURVE SMOOTH",
"66 326 OFFCURVE",
"192 384 OFFCURVE",
"271 384 CURVE SMOOTH",
"302 384 OFFCURVE",
"331 377 OFFCURVE",
"357 368 CURVE",
"365 425 LINE",
"209 425 LINE",
"223 498 LINE",
"379 498 LINE",
"389 550 LINE",
"485 550 LINE"
);
},
{
closed = 1;
nodes = (
"208 308 OFFCURVE",
"157 281 OFFCURVE",
"139 188 CURVE SMOOTH",
"121 99 OFFCURVE",
"168 66 OFFCURVE",
"234 66 CURVE SMOOTH",
"259 66 OFFCURVE",
"281 72 OFFCURVE",
"300 83 CURVE",
"336 294 LINE",
"313 302 OFFCURVE",
"293 308 OFFCURVE",
"268 308 CURVE SMOOTH"
);
}
);
};
components = (
{
name = d;
}
);
layerId = "CFA4B904-E3F1-48B6-A7F6-47DC1FF2A3E1";
paths = (
{
closed = 1;
nodes = (
"209 425 LINE",
"223 498 LINE",
"548 498 LINE",
"534 425 LINE"
);
}
);
width = 478;
}
);
unicode = 0111;
},
{
glyphname = e;
lastChange = "2019-01-30 08:38:31 +0000";
layers = (
{
anchors = (
{
name = top;
position = "{247, 384}";
}
);
background = {
paths = (
{
closed = 1;
nodes = (
"375 390 OFFCURVE",
"418 314 OFFCURVE",
"395 193 CURVE SMOOTH",
"387 153 LINE",
"126 156 LINE",
"118 87 OFFCURVE",
"163 66 OFFCURVE",
"233 66 CURVE SMOOTH",
"276 66 OFFCURVE",
"310 70 OFFCURVE",
"339 77 CURVE",
"339 14 LINE",
"298 1 OFFCURVE",
"249 -10 OFFCURVE",
"195 -10 CURVE SMOOTH",
"61 -10 OFFCURVE",
"13 72 OFFCURVE",
"35 183 CURVE SMOOTH",
"60 311 OFFCURVE",
"164 390 OFFCURVE",
"258 390 CURVE SMOOTH"
);
},
{
closed = 1;
nodes = (
"200 315 OFFCURVE",
"157 287 OFFCURVE",
"141 223 CURVE",
"304 217 LINE",
"317 281 OFFCURVE",
"284 315 OFFCURVE",
"235 315 CURVE SMOOTH"
);
}
);
};
layerId = "CFA4B904-E3F1-48B6-A7F6-47DC1FF2A3E1";
paths = (
{
closed = 1;
nodes = (
"360 390 OFFCURVE",
"413 314 OFFCURVE",
"390 193 CURVE SMOOTH",
"382 153 LINE",
"126 156 LINE",
"118 87 OFFCURVE",
"163 66 OFFCURVE",
"233 66 CURVE SMOOTH",
"276 66 OFFCURVE",
"310 70 OFFCURVE",
"339 77 CURVE",
"339 14 LINE",
"298 1 OFFCURVE",
"249 -10 OFFCURVE",
"195 -10 CURVE SMOOTH",
"83 -10 OFFCURVE",
"30 62 OFFCURVE",
"30 146 CURVE SMOOTH",
"30 274 OFFCURVE",
"117 390 OFFCURVE",
"248 390 CURVE SMOOTH"
);
},
{
closed = 1;
nodes = (
"194 315 OFFCURVE",
"149 281 OFFCURVE",
"133 217 CURVE",
"304 217 LINE",
"317 281 OFFCURVE",
"284 315 OFFCURVE",
"235 315 CURVE SMOOTH"
);
}
);
width = 424;
}
);
unicode = 0065;
},
{
glyphname = eacute;
lastChange = "2019-01-30 08:38:31 +0000";
layers = (
{
background = {
paths = (
{
closed = 1;
nodes = (
"155 389 OFFCURVE",
"112 370 OFFCURVE",
"81 330 CURVE SMOOTH",
"51 290 OFFCURVE",
"38 242 OFFCURVE",
"38 185 CURVE SMOOTH",
"38 62 OFFCURVE",
"105 -8 OFFCURVE",
"229 -8 CURVE SMOOTH",
"272 -8 OFFCURVE",
"314 0 OFFCURVE",
"352 13 CURVE",
"340 61 LINE",
"308 50 OFFCURVE",
"276 46 OFFCURVE",
"247 46 CURVE SMOOTH",
"199 46 OFFCURVE",
"161 58 OFFCURVE",
"138 81 CURVE",
"117 105 OFFCURVE",
"101 137 OFFCURVE",
"101 172 CURVE",
"364 172 LINE",
"368 180 LINE",
"368 215 LINE SMOOTH",
"368 325 OFFCURVE",
"312 389 OFFCURVE",
"210 389 CURVE SMOOTH"
);
},
{
closed = 1;
nodes = (
"102 224 LINE",
"109 284 OFFCURVE",
"142 338 OFFCURVE",
"217 338 CURVE SMOOTH",
"276 338 OFFCURVE",
"302 286 OFFCURVE",
"302 224 CURVE"
);
},
{
closed = 1;
nodes = (
"143 427 LINE",
"293 550 LINE",
"257 593 LINE",
"110 465 LINE"
);
}
);
};
components = (
{
name = e;
},
{
name = acute;
transform = "{1, 0, 0, 1, 145, 0}";
}
);
layerId = "CFA4B904-E3F1-48B6-A7F6-47DC1FF2A3E1";
width = 424;
}
);
unicode = 00E9;
},
{
glyphname = eogonek;
lastChange = "2019-01-30 08:38:31 +0000";
layers = (
{
anchors = (
{
name = top;
position = "{247, 384}";
}
);
background = {
paths = (
{
closed = 1;
nodes = (
"377 390 OFFCURVE",
"420 314 OFFCURVE",
"397 193 CURVE SMOOTH",
"389 153 LINE",
"128 156 LINE",
"120 87 OFFCURVE",
"165 66 OFFCURVE",
"235 66 CURVE SMOOTH",
"278 66 OFFCURVE",
"312 70 OFFCURVE",
"341 77 CURVE",
"341 14 LINE",
"292 3 OFFCURVE",
"201 -16 OFFCURVE",
"189 -80 CURVE SMOOTH",
"182 -112 OFFCURVE",
"196 -137 OFFCURVE",
"230 -137 CURVE SMOOTH",
"253 -137 OFFCURVE",
"283 -126 OFFCURVE",
"304 -119 CURVE",
"315 -160 LINE",
"278 -180 OFFCURVE",
"235 -200 OFFCURVE",
"177 -200 CURVE SMOOTH",
"109 -200 OFFCURVE",
"80 -159 OFFCURVE",
"90 -106 CURVE SMOOTH",
"98 -68 OFFCURVE",
"124 -37 OFFCURVE",
"164 -10 CURVE",
"52 7 OFFCURVE",
"17 81 OFFCURVE",
"37 183 CURVE SMOOTH",
"62 311 OFFCURVE",
"166 390 OFFCURVE",
"260 390 CURVE SMOOTH"
);
},
{
closed = 1;
nodes = (
"202 315 OFFCURVE",
"159 287 OFFCURVE",
"143 223 CURVE",
"306 217 LINE",
"319 281 OFFCURVE",
"286 315 OFFCURVE",
"237 315 CURVE SMOOTH"
);
}
);
};
layerId = "CFA4B904-E3F1-48B6-A7F6-47DC1FF2A3E1";
paths = (
{
closed = 1;
nodes = (
"117 390 OFFCURVE",
"30 274 OFFCURVE",
"30 146 CURVE SMOOTH",
"30 70 OFFCURVE",
"74 3 OFFCURVE",
"166 -8 CURVE",
"127 -35 OFFCURVE",
"98 -69 OFFCURVE",
"90 -106 CURVE SMOOTH",
"80 -159 OFFCURVE",
"109 -200 OFFCURVE",
"177 -200 CURVE SMOOTH",
"235 -200 OFFCURVE",
"278 -180 OFFCURVE",
"315 -160 CURVE",
"304 -119 LINE",
"283 -126 OFFCURVE",
"248 -137 OFFCURVE",
"225 -137 CURVE SMOOTH",
"191 -137 OFFCURVE",
"182 -112 OFFCURVE",
"189 -80 CURVE SMOOTH",
"202 -13 OFFCURVE",
"287 1 OFFCURVE",
"339 14 CURVE",
"339 77 LINE",
"310 70 OFFCURVE",
"276 66 OFFCURVE",
"233 66 CURVE SMOOTH",
"163 66 OFFCURVE",
"118 87 OFFCURVE",
"126 156 CURVE",
"382 153 LINE",
"390 193 LINE SMOOTH",
"413 314 OFFCURVE",
"360 390 OFFCURVE",
"248 390 CURVE SMOOTH"
);
},
{
closed = 1;
nodes = (
"133 217 LINE",
"149 281 OFFCURVE",
"194 315 OFFCURVE",
"235 315 CURVE SMOOTH",
"284 315 OFFCURVE",
"317 281 OFFCURVE",
"304 217 CURVE"
);
}
);
width = 424;
}
);
unicode = 0119;
},
{
glyphname = f;
lastChange = "2019-01-30 08:38:31 +0000";
layers = (
{
background = {
paths = (
{
closed = 1;
nodes = (
"137 453 OFFCURVE",
"176 554 OFFCURVE",
"319 554 CURVE SMOOTH",
"337 554 OFFCURVE",
"370 553 OFFCURVE",
"412 540 CURVE",
"422 534 LINE",
"392 465 LINE",
"375 469 LINE",
"365 472 OFFCURVE",
"341 478 OFFCURVE",
"316 478 CURVE SMOOTH",
"266 478 OFFCURVE",
"233 459 OFFCURVE",
"226 420 CURVE SMOOTH",
"219 384 LINE",
"362 384 LINE",
"347 309 LINE",
"204 309 LINE",
"144 0 LINE",
"49 0 LINE",
"109 309 LINE",
"45 309 LINE",
"60 384 LINE",
"124 384 LINE",
"129 411 LINE SMOOTH"
);
}
);
};
layerId = "CFA4B904-E3F1-48B6-A7F6-47DC1FF2A3E1";
paths = (
{
closed = 1;
nodes = (
"144 490 OFFCURVE",
"176 554 OFFCURVE",
"319 554 CURVE SMOOTH",
"348 554 OFFCURVE",
"384 547 OFFCURVE",
"422 534 CURVE",
"392 465 LINE",
"365 474 OFFCURVE",
"341 478 OFFCURVE",
"316 478 CURVE SMOOTH",
"256 478 OFFCURVE",
"233 459 OFFCURVE",
"226 420 CURVE SMOOTH",
"219 384 LINE",
"352 384 LINE",
"337 309 LINE",
"201 309 LINE",
"144 0 LINE",
"53 0 LINE",
"109 309 LINE",
"35 309 LINE",
"50 384 LINE",
"124 384 LINE",
"129 411 LINE SMOOTH"
);
}
);
width = 327;
}
);
unicode = 0066;
},
{
glyphname = g;
lastChange = "2019-01-30 08:38:31 +0000";
layers = (
{
anchors = (
{
name = top;
position = "{278, 384}";
}
);
background = {
paths = (
{
closed = 1;
nodes = (
"266 0 OFFCURVE",
"241 -9 OFFCURVE",
"204 -9 CURVE SMOOTH",
"84 -9 OFFCURVE",
"28 66 OFFCURVE",
"51 184 CURVE SMOOTH",
"82 343 OFFCURVE",
"205 390 OFFCURVE",
"279 390 CURVE SMOOTH",
"325 390 OFFCURVE",
"362 376 OFFCURVE",
"386 361 CURVE",
"399 384 LINE",
"465 384 LINE",
"389 -6 LINE SMOOTH",
"372 -95 OFFCURVE",
"303 -209 OFFCURVE",
"136 -209 CURVE SMOOTH",
"102 -209 OFFCURVE",
"55 -204 OFFCURVE",
"10 -185 CURVE SMOOTH",
"-1 -178 LINE",
"40 -108 LINE",
"57 -112 LINE",
"81 -121 OFFCURVE",
"113 -133 OFFCURVE",
"151 -133 CURVE SMOOTH",
"255 -133 OFFCURVE",
"280 -80 OFFCURVE",
"296 6 CURVE SMOOTH",
"295 12 LINE"
);
},
{
closed = 1;
nodes = (
"221 314 OFFCURVE",
"170 287 OFFCURVE",
"152 193 CURVE SMOOTH",
"133 99 OFFCURVE",
"180 66 OFFCURVE",
"246 66 CURVE SMOOTH",
"271 66 OFFCURVE",
"293 72 OFFCURVE",
"312 83 CURVE",
"350 299 LINE",
"327 310 OFFCURVE",
"306 314 OFFCURVE",
"281 314 CURVE SMOOTH"
);
}
);
};
layerId = "CFA4B904-E3F1-48B6-A7F6-47DC1FF2A3E1";
paths = (
{
closed = 1;
nodes = (
"272 0 OFFCURVE",
"241 -9 OFFCURVE",
"204 -9 CURVE SMOOTH",
"109 -9 OFFCURVE",
"46 65 OFFCURVE",
"46 153 CURVE SMOOTH",
"46 279 OFFCURVE",
"124 390 OFFCURVE",
"269 390 CURVE SMOOTH",
"315 390 OFFCURVE",
"362 376 OFFCURVE",
"386 361 CURVE",
"399 384 LINE",
"465 384 LINE",
"389 -6 LINE SMOOTH",
"372 -95 OFFCURVE",
"323 -209 OFFCURVE",
"156 -209 CURVE SMOOTH",
"114 -209 OFFCURVE",
"73 -204 OFFCURVE",
"10 -183 CURVE",
"40 -108 LINE",
"85 -122 OFFCURVE",
"109 -129 OFFCURVE",
"151 -129 CURVE SMOOTH",
"255 -129 OFFCURVE",
"283 -80 OFFCURVE",
"301 12 CURVE"
);
},
{
closed = 1;
nodes = (
"186 314 OFFCURVE",
"148 245 OFFCURVE",
"148 165 CURVE SMOOTH",
"148 100 OFFCURVE",
"190 66 OFFCURVE",
"246 66 CURVE SMOOTH",
"271 66 OFFCURVE",
"297 72 OFFCURVE",
"316 83 CURVE",
"356 297 LINE",
"333 308 OFFCURVE",
"306 314 OFFCURVE",
"281 314 CURVE SMOOTH"
);
}
);
width = 492;
}
);
unicode = 0067;
},
{
glyphname = gcommaaccent;
lastChange = "2019-01-30 08:38:31 +0000";
layers = (
{
background = {
paths = (
{
closed = 1;
nodes = (
"298 435 LINE",
"344 435 LINE",
"381 586 LINE",
"321 586 LINE"
);
},
{
closed = 1;
nodes = (
"422 8 LINE SMOOTH",
"422 -18 OFFCURVE",
"422 -37 OFFCURVE",
"421 -48 CURVE SMOOTH",
"413 -118 OFFCURVE",
"368 -159 OFFCURVE",
"287 -159 CURVE SMOOTH",
"260 -159 OFFCURVE",
"230 -151 OFFCURVE",
"196 -139 CURVE",
"179 -185 LINE",
"211 -200 OFFCURVE",
"259 -210 OFFCURVE",
"296 -210 CURVE SMOOTH",
"355 -210 OFFCURVE",
"404 -192 OFFCURVE",
"435 -162 CURVE SMOOTH",
"474 -126 OFFCURVE",
"488 -89 OFFCURVE",
"488 -18 CURVE SMOOTH",
"488 384 LINE",
"441 384 LINE",
"434 360 LINE",
"415 369 LINE SMOOTH",
"383 384 OFFCURVE",
"353 389 OFFCURVE",
"325 389 CURVE SMOOTH",
"303 389 OFFCURVE",
"281 387 OFFCURVE",
"260 377 CURVE",
"190 348 OFFCURVE",
"145 282 OFFCURVE",
"145 185 CURVE SMOOTH",
"145 135 OFFCURVE",
"157 97 OFFCURVE",
"180 63 CURVE SMOOTH",
"209 21 OFFCURVE",
"255 -8 OFFCURVE",
"321 -8 CURVE SMOOTH",
"359 -8 OFFCURVE",
"389 1 OFFCURVE",
"422 18 CURVE"
);
},
{
closed = 1;
nodes = (
"315 45 OFFCURVE",
"296 49 OFFCURVE",
"278 59 CURVE SMOOTH",
"236 81 OFFCURVE",
"211 132 OFFCURVE",
"211 194 CURVE SMOOTH",
"211 277 OFFCURVE",
"250 337 OFFCURVE",
"333 337 CURVE SMOOTH",
"359 337 OFFCURVE",
"388 332 OFFCURVE",
"422 317 CURVE",
"422 66 LINE",
"398 52 OFFCURVE",
"369 45 OFFCURVE",
"336 45 CURVE SMOOTH"
);
}
);
};
components = (
{
name = g;
}
);
layerId = "CFA4B904-E3F1-48B6-A7F6-47DC1FF2A3E1";
paths = (
{
closed = 1;
nodes = (
"345 450 LINE",
"275 450 LINE",
"335 626 LINE",
"426 626 LINE"
);
}
);
width = 492;
}
);
unicode = 0123;
},
{
glyphname = h;
lastChange = "2019-01-30 08:38:31 +0000";
layers = (
{
background = {
paths = (
{
closed = 1;
nodes = (
"262 309 OFFCURVE",
"230 305 OFFCURVE",
"186 289 CURVE",
"133 0 LINE",
"37 0 LINE",
"144 550 LINE",
"240 550 LINE",
"206 363 LINE",
"237 375 OFFCURVE",
"284 389 OFFCURVE",
"330 389 CURVE SMOOTH",
"459 389 OFFCURVE",
"445 289 OFFCURVE",
"432 221 CURVE SMOOTH",
"389 0 LINE",
"293 0 LINE",
"337 228 LINE SMOOTH",
"345 265 OFFCURVE",
"341 309 OFFCURVE",
"279 309 CURVE SMOOTH"
);
}
);
};
layerId = "CFA4B904-E3F1-48B6-A7F6-47DC1FF2A3E1";
paths = (
{
closed = 1;
nodes = (
"262 309 OFFCURVE",
"230 305 OFFCURVE",
"186 289 CURVE",
"133 0 LINE",
"37 0 LINE",
"144 550 LINE",
"240 550 LINE",
"206 363 LINE",
"237 375 OFFCURVE",
"274 389 OFFCURVE",
"320 389 CURVE SMOOTH",
"449 389 OFFCURVE",
"446 293 OFFCURVE",
"430 211 CURVE SMOOTH",
"389 0 LINE",
"293 0 LINE",
"337 228 LINE SMOOTH",
"345 265 OFFCURVE",
"341 309 OFFCURVE",
"279 309 CURVE SMOOTH"
);
}
);
width = 483;
}
);
unicode = 0068;
},
{
glyphname = i;
lastChange = "2019-01-30 08:38:31 +0000";
layers = (
{
background = {
paths = (
{
closed = 1;
nodes = (
"145 459 LINE",
"49 459 LINE",
"49 550 LINE",
"145 550 LINE"
);
},
{
closed = 1;
nodes = (
"145 0 LINE",
"49 0 LINE",
"49 384 LINE",
"145 384 LINE"
);
}
);
};
components = (
{
name = dotlessi;
},
{
name = dotaccent;
transform = "{1, 0, 0, 1, 111, 0}";
}
);
layerId = "CFA4B904-E3F1-48B6-A7F6-47DC1FF2A3E1";
width = 231;
}
);
unicode = 0069;
},
{
glyphname = dotlessi;
lastChange = "2019-01-30 08:38:31 +0000";
layers = (
{
anchors = (
{
name = top;
position = "{153, 384}";
}
);
layerId = "CFA4B904-E3F1-48B6-A7F6-47DC1FF2A3E1";
paths = (
{
closed = 1;
nodes = (
"126 0 LINE",
"30 0 LINE",
"105 384 LINE",
"201 384 LINE"
);
}
);
width = 231;
}
);
unicode = 0131;
},
{
glyphname = ij;
lastChange = "2019-01-30 08:38:31 +0000";
layers = (
{
background = {
paths = (
{
closed = 1;
nodes = (
"208 -26 LINE SMOOTH",
"196 -89 OFFCURVE",
"163 -164 OFFCURVE",
"39 -206 CURVE",
"27 -211 LINE",
"8 -145 LINE",
"26 -139 LINE",
"93 -107 OFFCURVE",
"102 -86 OFFCURVE",
"119 0 CURVE SMOOTH",
"194 384 LINE",
"288 384 LINE"
);
},
{
closed = 1;
nodes = (
"290 449 OFFCURVE",
"319 473 OFFCURVE",
"325 503 CURVE SMOOTH",
"332 541 OFFCURVE",
"308 571 OFFCURVE",
"272 571 CURVE SMOOTH",
"240 571 OFFCURVE",
"211 547 OFFCURVE",
"206 517 CURVE SMOOTH",
"198 479 OFFCURVE",
"222 449 OFFCURVE",
"258 449 CURVE SMOOTH"
);
}
);
};
components = (
{
name = i;
}
);
layerId = "CFA4B904-E3F1-48B6-A7F6-47DC1FF2A3E1";
paths = (
{
closed = 1;
nodes = (
"389 449 OFFCURVE",
"418 473 OFFCURVE",
"424 503 CURVE SMOOTH",
"431 541 OFFCURVE",
"407 571 OFFCURVE",
"371 571 CURVE SMOOTH",
"339 571 OFFCURVE",
"311 549 OFFCURVE",
"305 517 CURVE SMOOTH",
"298 479 OFFCURVE",
"321 449 OFFCURVE",
"357 449 CURVE SMOOTH"
);
},
{
closed = 1;
nodes = (
"315 -26 LINE SMOOTH",
"296 -122 OFFCURVE",
"270 -164 OFFCURVE",
"143 -212 CURVE",
"115 -145 LINE",
"180 -114 OFFCURVE",
"207 -96 OFFCURVE",
"226 0 CURVE SMOOTH",
"301 384 LINE",
"395 384 LINE"
);
}
);
width = 419;
}
);
unicode = 0133;
},
{
glyphname = iogonek;
lastChange = "2019-01-30 08:38:31 +0000";
layers = (
{
components = (
{
name = dotaccent;
transform = "{1, 0, 0, 1, 112, 0}";
}
);
layerId = "CFA4B904-E3F1-48B6-A7F6-47DC1FF2A3E1";
paths = (
{
closed = 1;
nodes = (
"39 -18 OFFCURVE",
"7 -45 OFFCURVE",
"0 -80 CURVE SMOOTH",
"-6 -112 OFFCURVE",
"8 -137 OFFCURVE",
"43 -137 CURVE SMOOTH",
"66 -137 OFFCURVE",
"95 -126 OFFCURVE",
"117 -119 CURVE",
"128 -160 LINE",
"88 -180 OFFCURVE",
"47 -200 OFFCURVE",
"-11 -200 CURVE SMOOTH",
"-77 -200 OFFCURVE",
"-108 -159 OFFCURVE",
"-98 -106 CURVE SMOOTH",
"-88 -55 OFFCURVE",
"-44 -14 OFFCURVE",
"31 19 CURVE",
"100 384 LINE",
"195 384 LINE",
"122 19 LINE"
);
}
);
width = 221;
}
);
unicode = 012F;
},
{
glyphname = dotlessj;
lastChange = "2019-01-30 08:38:31 +0000";
layers = (
{
anchors = (
{
name = top;
position = "{161, 384}";
}
);
background = {
paths = (
{
closed = 1;
nodes = (
"128 -26 LINE SMOOTH",
"116 -89 OFFCURVE",
"83 -164 OFFCURVE",
"-41 -206 CURVE",
"-53 -211 LINE",
"-72 -145 LINE",
"-54 -139 LINE",
"13 -107 OFFCURVE",
"22 -86 OFFCURVE",
"39 0 CURVE SMOOTH",
"114 384 LINE",
"208 384 LINE"
);
}
);
};
layerId = "CFA4B904-E3F1-48B6-A7F6-47DC1FF2A3E1";
paths = (
{
closed = 1;
nodes = (
"128 -26 LINE SMOOTH",
"109 -122 OFFCURVE",
"83 -164 OFFCURVE",
"-44 -212 CURVE",
"-72 -145 LINE",
"-7 -114 OFFCURVE",
"20 -96 OFFCURVE",
"39 0 CURVE SMOOTH",
"114 384 LINE",
"208 384 LINE"
);
}
);
width = 238;
}
);
unicode = 0237;
},
{
glyphname = k;
lastChange = "2019-01-30 08:38:31 +0000";
layers = (
{
anchors = (
{
name = bottom;
position = "{214, 0}";
}
);
background = {
paths = (
{
closed = 1;
nodes = (
"37 0 LINE",
"144 550 LINE",
"240 550 LINE",
"133 0 LINE"
);
},
{
closed = 1;
nodes = (
"297 211 LINE",
"412 0 LINE",
"294 0 LINE",
"184 211 LINE",
"365 389 LINE",
"479 389 LINE"
);
}
);
};
layerId = "CFA4B904-E3F1-48B6-A7F6-47DC1FF2A3E1";
paths = (
{
closed = 1;
nodes = (
"37 0 LINE",
"144 550 LINE",
"240 550 LINE",
"133 0 LINE"
);
},
{
closed = 1;
nodes = (
"293 201 LINE",
"402 0 LINE",
"294 0 LINE",
"184 211 LINE",
"350 384 LINE",
"462 384 LINE"
);
}
);
width = 452;
}
);
unicode = 006B;
},
{
glyphname = l;
lastChange = "2019-01-30 08:38:31 +0000";
layers = (
{
anchors = (
{
name = bottom;
position = "{116, 0}";
},
{
name = top;
position = "{280, 550}";
}
);
layerId = "CFA4B904-E3F1-48B6-A7F6-47DC1FF2A3E1";
paths = (
{
closed = 1;
nodes = (
"187 66 OFFCURVE",
"204 68 OFFCURVE",
"219 72 CURVE",
"202 11 LINE",
"186 4 OFFCURVE",
"157 -9 OFFCURVE",
"110 -9 CURVE SMOOTH",
"32 -9 OFFCURVE",
"27 43 OFFCURVE",
"37 96 CURVE SMOOTH",
"125 550 LINE",
"219 550 LINE",
"138 130 LINE SMOOTH",
"131 93 OFFCURVE",
"136 66 OFFCURVE",
"174 66 CURVE SMOOTH"
);
}
);
width = 245;
}
);
unicode = 006C;
},
{
glyphname = lcaron;
lastChange = "2019-01-30 08:38:31 +0000";
layers = (
{
background = {
paths = (
{
closed = 1;
nodes = (
"228 51 OFFCURVE",
"226 78 OFFCURVE",
"226 106 CURVE SMOOTH",
"226 533 LINE",
"163 533 LINE",
"163 83 LINE SMOOTH",
"164 29 OFFCURVE",
"195 -9 OFFCURVE",
"245 -9 CURVE SMOOTH",
"283 -9 OFFCURVE",
"308 7 OFFCURVE",
"323 10 CURVE",
"311 57 LINE",
"298 53 OFFCURVE",
"288 51 OFFCURVE",
"277 51 CURVE SMOOTH"
);
},
{
closed = 1;
nodes = (
"269 435 LINE",
"315 435 LINE",
"352 586 LINE",
"292 586 LINE"
);
}
);
};
components = (
{
name = l;
}
);
guideLines = (
{
angle = 90;
position = "{255, 466}";
}
);
layerId = "CFA4B904-E3F1-48B6-A7F6-47DC1FF2A3E1";
paths = (
{
closed = 1;
nodes = (
"325 420 LINE",
"255 420 LINE",
"315 596 LINE",
"406 596 LINE"
);
}
);
width = 296;
}
);
unicode = 013E;
},
{
glyphname = lslash;
lastChange = "2019-01-30 08:38:31 +0000";
layers = (
{
background = {
paths = (
{
closed = 1;
nodes = (
"169 66 OFFCURVE",
"167 87 OFFCURVE",
"174 124 CURVE SMOOTH",
"198 242 LINE",
"286 287 LINE",
"301 375 LINE",
"213 330 LINE",
"257 550 LINE",
"165 550 LINE",
"111 277 LINE",
"43 242 LINE",
"28 155 LINE",
"96 190 LINE",
"78 102 LINE SMOOTH",
"68 49 OFFCURVE",
"74 -9 OFFCURVE",
"158 -9 CURVE SMOOTH",
"200 -9 OFFCURVE",
"228 2 OFFCURVE",
"245 9 CURVE",
"252 74 LINE",
"237 70 OFFCURVE",
"219 66 OFFCURVE",
"204 66 CURVE SMOOTH"
);
}
);
};
components = (
{
name = l;
transform = "{1, 0, 0, 1, 18, 0}";
}
);
layerId = "CFA4B904-E3F1-48B6-A7F6-47DC1FF2A3E1";
paths = (
{
closed = 1;
nodes = (
"25 232 LINE",
"301 375 LINE",
"286 287 LINE",
"10 145 LINE"
);
}
);
width = 291;
}
);
unicode = 0142;
},
{
glyphname = m;
lastChange = "2019-01-30 08:38:31 +0000";
layers = (
{
background = {
paths = (
{
closed = 1;
nodes = (
"206 363 OFFCURVE",
"261 389 OFFCURVE",
"316 389 CURVE SMOOTH",
"362 389 OFFCURVE",
"388 376 OFFCURVE",
"406 351 CURVE",
"428 360 OFFCURVE",
"496 389 OFFCURVE",
"555 389 CURVE SMOOTH",
"678 389 OFFCURVE",
"661 287 OFFCURVE",
"648 221 CURVE SMOOTH",
"605 0 LINE",
"510 0 LINE",
"554 227 LINE SMOOTH",
"560 256 OFFCURVE",
"559 308 OFFCURVE",
"504 308 CURVE SMOOTH",
"481 308 OFFCURVE",
"457 302 OFFCURVE",
"414 288 CURVE",
"417 263 OFFCURVE",
"413 237 OFFCURVE",
"409 217 CURVE SMOOTH",
"367 0 LINE",
"271 0 LINE",
"315 227 LINE SMOOTH",
"321 256 OFFCURVE",
"319 308 OFFCURVE",
"264 308 CURVE SMOOTH",
"247 308 OFFCURVE",
"225 304 OFFCURVE",
"178 288 CURVE",
"125 0 LINE",
"30 0 LINE",
"105 384 LINE",
"174 384 LINE",
"182 355 LINE"
);
}
);
};
layerId = "CFA4B904-E3F1-48B6-A7F6-47DC1FF2A3E1";
paths = (
{
closed = 1;
nodes = (
"206 363 OFFCURVE",
"261 389 OFFCURVE",
"316 389 CURVE SMOOTH",
"362 389 OFFCURVE",
"379 372 OFFCURVE",
"397 347 CURVE",
"419 356 OFFCURVE",
"496 389 OFFCURVE",
"555 389 CURVE SMOOTH",
"678 389 OFFCURVE",
"657 269 OFFCURVE",
"644 198 CURVE SMOOTH",
"605 0 LINE",
"510 0 LINE",
"554 227 LINE SMOOTH",
"560 256 OFFCURVE",
"559 308 OFFCURVE",
"504 308 CURVE SMOOTH",
"481 308 OFFCURVE",
"457 302 OFFCURVE",
"414 288 CURVE",
"417 263 OFFCURVE",
"413 237 OFFCURVE",
"409 217 CURVE SMOOTH",
"367 0 LINE",
"271 0 LINE",
"315 227 LINE SMOOTH",
"323 266 OFFCURVE",
"319 308 OFFCURVE",
"264 308 CURVE SMOOTH",
"247 308 OFFCURVE",
"225 304 OFFCURVE",
"178 288 CURVE",
"125 0 LINE",
"30 0 LINE",
"105 384 LINE",
"174 384 LINE",
"182 355 LINE"
);
}
);
width = 700;
}
);
unicode = 006D;
},
{
glyphname = n;
lastChange = "2019-01-30 08:38:31 +0000";
layers = (
{
anchors = (
{
name = bottom;
position = "{206, 0}";
},
{
name = top;
position = "{288, 384}";
}
);
background = {
paths = (
{
closed = 1;
nodes = (
"216 370 OFFCURVE",
"270 389 OFFCURVE",
"325 389 CURVE SMOOTH",
"456 389 OFFCURVE",
"439 287 OFFCURVE",
"426 221 CURVE SMOOTH",
"383 0 LINE",
"288 0 LINE",
"332 227 LINE SMOOTH",
"338 256 OFFCURVE",
"334 308 OFFCURVE",
"274 308 CURVE SMOOTH",
"256 308 OFFCURVE",
"226 304 OFFCURVE",
"179 288 CURVE",
"126 0 LINE",
"31 0 LINE",
"106 384 LINE",
"175 384 LINE",
"183 355 LINE"
);
}
);
};
layerId = "CFA4B904-E3F1-48B6-A7F6-47DC1FF2A3E1";
paths = (
{
closed = 1;
nodes = (
"255 309 OFFCURVE",
"223 305 OFFCURVE",
"179 289 CURVE",
"126 0 LINE",
"30 0 LINE",
"106 384 LINE",
"175 384 LINE",
"183 355 LINE",
"214 367 OFFCURVE",
"257 389 OFFCURVE",
"313 389 CURVE SMOOTH",
"442 389 OFFCURVE",
"441 293 OFFCURVE",
"425 211 CURVE SMOOTH",
"384 0 LINE",
"288 0 LINE",
"332 228 LINE SMOOTH",
"339 265 OFFCURVE",
"334 309 OFFCURVE",
"272 309 CURVE SMOOTH"
);
}
);
width = 478;
}
);
unicode = 006E;
},
{
glyphname = o;
lastChange = "2019-01-30 08:38:31 +0000";
layers = (
{
anchors = (
{
name = top;
position = "{263, 384}";
}
);
background = {
paths = (
{
closed = 1;
nodes = (
"199 315 OFFCURVE",
"149 275 OFFCURVE",
"133 197 CURVE SMOOTH",
"117 112 OFFCURVE",
"156 67 OFFCURVE",
"211 67 CURVE SMOOTH",
"265 67 OFFCURVE",
"313 106 OFFCURVE",
"328 183 CURVE SMOOTH",
"345 270 OFFCURVE",
"304 315 OFFCURVE",
"249 315 CURVE SMOOTH"
);
},
{
closed = 1;
nodes = (
"69 -9 OFFCURVE",
"10 71 OFFCURVE",
"32 183 CURVE SMOOTH",
"57 311 OFFCURVE",
"153 390 OFFCURVE",
"275 390 CURVE SMOOTH",
"393 390 OFFCURVE",
"453 316 OFFCURVE",
"430 198 CURVE SMOOTH",
"406 76 OFFCURVE",
"308 -9 OFFCURVE",
"186 -9 CURVE SMOOTH"
);
}
);
};
layerId = "CFA4B904-E3F1-48B6-A7F6-47DC1FF2A3E1";
paths = (
{
closed = 1;
nodes = (
"173 315 OFFCURVE",
"129 234 OFFCURVE",
"129 161 CURVE SMOOTH",
"129 99 OFFCURVE",
"164 67 OFFCURVE",
"211 67 CURVE SMOOTH",
"293 67 OFFCURVE",
"332 145 OFFCURVE",
"332 220 CURVE SMOOTH",
"332 283 OFFCURVE",
"296 315 OFFCURVE",
"249 315 CURVE SMOOTH"
);
},
{
closed = 1;
nodes = (
"95 -9 OFFCURVE",
"30 70 OFFCURVE",
"30 159 CURVE SMOOTH",
"30 261 OFFCURVE",
"94 390 OFFCURVE",
"265 390 CURVE SMOOTH",
"368 390 OFFCURVE",
"432 314 OFFCURVE",
"432 222 CURVE SMOOTH",
"432 122 OFFCURVE",
"365 -9 OFFCURVE",
"196 -9 CURVE SMOOTH"
);
}
);
width = 462;
}
);
unicode = 006F;
},
{
glyphname = ohungarumlaut;
lastChange = "2019-01-30 08:38:31 +0000";
layers = (
{
background = {
paths = (
{
closed = 1;
nodes = (
"301 338 OFFCURVE",
"343 272 OFFCURVE",
"343 190 CURVE SMOOTH",
"343 109 OFFCURVE",
"302 44 OFFCURVE",
"225 44 CURVE SMOOTH",
"146 44 OFFCURVE",
"105 109 OFFCURVE",
"105 190 CURVE SMOOTH",
"105 272 OFFCURVE",
"147 338 OFFCURVE",
"225 338 CURVE SMOOTH"
);
},
{
closed = 1;
nodes = (
"339 -9 OFFCURVE",
"409 72 OFFCURVE",
"409 191 CURVE SMOOTH",
"409 312 OFFCURVE",
"344 389 OFFCURVE",
"225 389 CURVE SMOOTH",
"107 389 OFFCURVE",
"38 311 OFFCURVE",
"38 190 CURVE SMOOTH",
"38 71 OFFCURVE",
"105 -9 OFFCURVE",
"222 -9 CURVE SMOOTH"
);
},
{
closed = 1;
nodes = (
"296 427 LINE",
"446 550 LINE",
"410 593 LINE",
"263 465 LINE"
);
},
{
closed = 1;
nodes = (
"146 427 LINE",
"296 550 LINE",
"260 593 LINE",
"113 465 LINE"
);
}
);
};
components = (
{
name = o;
},
{
name = hungarumlaut;
transform = "{1, 0, 0, 1, 229, 0}";
}
);
layerId = "CFA4B904-E3F1-48B6-A7F6-47DC1FF2A3E1";
width = 462;
}
);
unicode = 0151;
},
{
glyphname = oslash;
lastChange = "2019-01-30 08:38:31 +0000";
layers = (
{
background = {
paths = (
{
closed = 1;
nodes = (
"479 -9 OFFCURVE",
"547 72 OFFCURVE",
"547 191 CURVE SMOOTH",
"547 238 OFFCURVE",
"538 279 OFFCURVE",
"519 311 CURVE",
"562 355 LINE",
"525 393 LINE",
"484 351 LINE",
"453 375 OFFCURVE",
"414 389 OFFCURVE",
"363 389 CURVE SMOOTH",
"246 389 OFFCURVE",
"179 311 OFFCURVE",
"179 190 CURVE SMOOTH",
"179 142 OFFCURVE",
"188 101 OFFCURVE",
"209 68 CURVE",
"164 22 LINE",
"201 -12 LINE",
"243 29 LINE",
"273 7 OFFCURVE",
"313 -9 OFFCURVE",
"361 -9 CURVE SMOOTH"
);
},
{
closed = 1;
nodes = (
"395 338 OFFCURVE",
"422 327 OFFCURVE",
"442 307 CURVE",
"257 117 LINE",
"248 139 OFFCURVE",
"244 164 OFFCURVE",
"244 190 CURVE SMOOTH",
"244 272 OFFCURVE",
"286 338 OFFCURVE",
"363 338 CURVE SMOOTH"
);
},
{
closed = 1;
nodes = (
"482 109 OFFCURVE",
"442 44 OFFCURVE",
"363 44 CURVE SMOOTH",
"331 44 OFFCURVE",
"305 55 OFFCURVE",
"286 73 CURVE",
"469 260 LINE",
"478 240 OFFCURVE",
"482 217 OFFCURVE",
"482 190 CURVE SMOOTH"
);
}
);
};
components = (
{
name = o;
transform = "{1, 0, 0, 1, 28, 0}";
}
);
layerId = "CFA4B904-E3F1-48B6-A7F6-47DC1FF2A3E1";
paths = (
{
closed = 1;
nodes = (
"498 347 LINE",
"63 -21 LINE",
"22 29 LINE",
"457 401 LINE"
);
}
);
width = 517;
}
);
unicode = 00F8;
},
{
glyphname = oe;
lastChange = "2019-01-30 08:38:31 +0000";
layers = (
{
background = {
paths = (
{
closed = 1;
nodes = (
"660 187 LINE SMOOTH",
"684 308 OFFCURVE",
"649 390 OFFCURVE",
"527 390 CURVE SMOOTH",
"482 390 OFFCURVE",
"434 372 OFFCURVE",
"392 334 CURVE",
"367 368 OFFCURVE",
"327 390 OFFCURVE",
"264 390 CURVE SMOOTH",
"146 390 OFFCURVE",
"57 317 OFFCURVE",
"33 197 CURVE SMOOTH",
"10 77 OFFCURVE",
"74 -9 OFFCURVE",
"195 -9 CURVE SMOOTH",
"253 -9 OFFCURVE",
"300 9 OFFCURVE",
"340 47 CURVE",
"366 14 OFFCURVE",
"411 -10 OFFCURVE",
"484 -10 CURVE SMOOTH",
"534 -10 OFFCURVE",
"577 -1 OFFCURVE",
"612 12 CURVE",
"604 79 LINE",
"574 72 OFFCURVE",
"543 66 OFFCURVE",
"494 66 CURVE SMOOTH",
"427 66 OFFCURVE",
"397 81 OFFCURVE",
"403 150 CURVE",
"654 153 LINE"
);
},
{
closed = 1;
nodes = (
"149 67 OFFCURVE",
"115 106 OFFCURVE",
"130 183 CURVE SMOOTH",
"146 269 OFFCURVE",
"204 315 OFFCURVE",
"258 315 CURVE SMOOTH",
"309 315 OFFCURVE",
"345 276 OFFCURVE",
"329 197 CURVE SMOOTH",
"313 112 OFFCURVE",
"258 67 OFFCURVE",
"200 67 CURVE SMOOTH"
);
},
{
closed = 1;
nodes = (
"418 217 LINE",
"431 281 OFFCURVE",
"486 315 OFFCURVE",
"525 315 CURVE SMOOTH",
"568 315 OFFCURVE",
"588 287 OFFCURVE",
"575 223 CURVE"
);
}
);
};
layerId = "CFA4B904-E3F1-48B6-A7F6-47DC1FF2A3E1";
paths = (
{
closed = 1;
nodes = (
"468 390 OFFCURVE",
"422 371 OFFCURVE",
"387 340 CURVE",
"358 371 OFFCURVE",
"316 390 OFFCURVE",
"264 390 CURVE SMOOTH",
"93 390 OFFCURVE",
"29 261 OFFCURVE",
"29 159 CURVE SMOOTH",
"29 70 OFFCURVE",
"94 -9 OFFCURVE",
"195 -9 CURVE SMOOTH",
"258 -9 OFFCURVE",
"307 9 OFFCURVE",
"343 37 CURVE",
"370 8 OFFCURVE",
"412 -10 OFFCURVE",
"468 -10 CURVE SMOOTH",
"522 -10 OFFCURVE",
"571 1 OFFCURVE",
"612 14 CURVE",
"612 77 LINE",
"583 70 OFFCURVE",
"549 66 OFFCURVE",
"506 66 CURVE SMOOTH",
"436 66 OFFCURVE",
"391 87 OFFCURVE",
"399 156 CURVE",
"655 153 LINE",
"663 193 LINE SMOOTH",
"686 314 OFFCURVE",
"633 390 OFFCURVE",
"521 390 CURVE SMOOTH"
);
},
{
closed = 1;
nodes = (
"163 67 OFFCURVE",
"128 99 OFFCURVE",
"128 161 CURVE SMOOTH",
"128 234 OFFCURVE",
"172 315 OFFCURVE",
"248 315 CURVE SMOOTH",
"295 315 OFFCURVE",
"331 283 OFFCURVE",
"331 220 CURVE SMOOTH",
"331 145 OFFCURVE",
"292 67 OFFCURVE",
"210 67 CURVE SMOOTH"
);
},
{
closed = 1;
nodes = (
"406 217 LINE",
"422 281 OFFCURVE",
"467 315 OFFCURVE",
"508 315 CURVE SMOOTH",
"557 315 OFFCURVE",
"590 281 OFFCURVE",
"577 217 CURVE"
);
}
);
width = 697;
}
);
unicode = 0153;
},
{
glyphname = p;
lastChange = "2019-01-30 08:38:31 +0000";
layers = (
{
background = {
paths = (
{
closed = 1;
nodes = (
"209 372 OFFCURVE",
"254 390 OFFCURVE",
"303 390 CURVE SMOOTH",
"374 390 OFFCURVE",
"473 349 OFFCURVE",
"444 198 CURVE SMOOTH",
"419 72 OFFCURVE",
"329 -9 OFFCURVE",
"202 -9 CURVE SMOOTH",
"171 -9 OFFCURVE",
"151 -2 OFFCURVE",
"126 10 CURVE",
"86 -206 LINE",
"-10 -206 LINE",
"105 384 LINE",
"173 384 LINE",
"180 357 LINE"
);
},
{
closed = 1;
nodes = (
"231 314 OFFCURVE",
"211 312 OFFCURVE",
"184 301 CURVE",
"146 87 LINE",
"161 76 OFFCURVE",
"180 66 OFFCURVE",
"211 66 CURVE SMOOTH",
"271 66 OFFCURVE",
"325 93 OFFCURVE",
"342 179 CURVE SMOOTH",
"362 281 OFFCURVE",
"316 314 OFFCURVE",
"252 314 CURVE SMOOTH"
);
}
);
};
layerId = "CFA4B904-E3F1-48B6-A7F6-47DC1FF2A3E1";
paths = (
{
closed = 1;
nodes = (
"209 372 OFFCURVE",
"247 390 OFFCURVE",
"306 390 CURVE SMOOTH",
"369 390 OFFCURVE",
"446 338 OFFCURVE",
"446 227 CURVE SMOOTH",
"446 129 OFFCURVE",
"393 -9 OFFCURVE",
"212 -9 CURVE SMOOTH",
"181 -9 OFFCURVE",
"151 -2 OFFCURVE",
"126 10 CURVE",
"86 -206 LINE",
"-10 -206 LINE",
"105 384 LINE",
"173 384 LINE",
"180 357 LINE"
);
},
{
closed = 1;
nodes = (
"234 314 OFFCURVE",
"211 312 OFFCURVE",
"184 301 CURVE",
"146 87 LINE",
"161 76 OFFCURVE",
"180 66 OFFCURVE",
"211 66 CURVE SMOOTH",
"310 66 OFFCURVE",
"347 135 OFFCURVE",
"347 220 CURVE SMOOTH",
"347 290 OFFCURVE",
"310 314 OFFCURVE",
"255 314 CURVE SMOOTH"
);
}
);
width = 476;
}
);
unicode = 0070;
},
{
glyphname = thorn;
lastChange = "2019-01-30 08:38:31 +0000";
layers = (
{
background = {
paths = (
{
closed = 1;
nodes = (
"198 368 LINE",
"228 383 OFFCURVE",
"252 390 OFFCURVE",
"299 390 CURVE SMOOTH",
"411 390 OFFCURVE",
"464 319 OFFCURVE",
"441 198 CURVE SMOOTH",
"416 72 OFFCURVE",
"326 -9 OFFCURVE",
"201 -9 CURVE SMOOTH",
"168 -9 OFFCURVE",
"149 -2 OFFCURVE",
"124 10 CURVE",
"84 -206 LINE",
"-11 -206 LINE",
"136 550 LINE",
"231 550 LINE"
);
},
{
closed = 1;
nodes = (
"144 87 LINE",
"159 76 OFFCURVE",
"179 66 OFFCURVE",
"209 66 CURVE SMOOTH",
"268 66 OFFCURVE",
"325 103 OFFCURVE",
"342 190 CURVE SMOOTH",
"360 283 OFFCURVE",
"314 317 OFFCURVE",
"252 317 CURVE SMOOTH",
"223 317 OFFCURVE",
"201 312 OFFCURVE",
"181 300 CURVE"
);
}
);
};
layerId = "CFA4B904-E3F1-48B6-A7F6-47DC1FF2A3E1";
paths = (
{
closed = 1;
nodes = (
"198 368 LINE",
"228 383 OFFCURVE",
"246 390 OFFCURVE",
"293 390 CURVE SMOOTH",
"387 390 OFFCURVE",
"445 320 OFFCURVE",
"445 231 CURVE SMOOTH",
"445 129 OFFCURVE",
"390 -9 OFFCURVE",
"211 -9 CURVE SMOOTH",
"178 -9 OFFCURVE",
"149 -2 OFFCURVE",
"124 10 CURVE",
"84 -206 LINE",
"-10 -206 LINE",
"136 550 LINE",
"231 550 LINE"
);
},
{
closed = 1;
nodes = (
"144 83 LINE",
"162 73 OFFCURVE",
"179 66 OFFCURVE",
"209 66 CURVE SMOOTH",
"301 66 OFFCURVE",
"346 136 OFFCURVE",
"346 214 CURVE SMOOTH",
"346 278 OFFCURVE",
"304 317 OFFCURVE",
"252 317 CURVE SMOOTH",
"223 317 OFFCURVE",
"201 312 OFFCURVE",
"181 300 CURVE"
);
}
);
width = 475;
}
);
unicode = 00FE;
},
{
glyphname = q;
lastChange = "2019-01-30 08:38:31 +0000";
layers = (
{
background = {
paths = (
{
closed = 1;
nodes = (
"450 384 LINE",
"335 -206 LINE",
"239 -206 LINE",
"279 12 LINE",
"250 0 OFFCURVE",
"225 -9 OFFCURVE",
"188 -9 CURVE SMOOTH",
"68 -9 OFFCURVE",
"12 66 OFFCURVE",
"35 184 CURVE SMOOTH",
"66 343 OFFCURVE",
"189 390 OFFCURVE",
"263 390 CURVE SMOOTH",
"309 390 OFFCURVE",
"346 376 OFFCURVE",
"370 361 CURVE",
"383 384 LINE"
);
},
{
closed = 1;
nodes = (
"205 314 OFFCURVE",
"154 287 OFFCURVE",
"136 193 CURVE SMOOTH",
"117 99 OFFCURVE",
"164 66 OFFCURVE",
"230 66 CURVE SMOOTH",
"255 66 OFFCURVE",
"277 72 OFFCURVE",
"296 83 CURVE",
"334 299 LINE",
"311 310 OFFCURVE",
"290 314 OFFCURVE",
"265 314 CURVE SMOOTH"
);
}
);
};
layerId = "CFA4B904-E3F1-48B6-A7F6-47DC1FF2A3E1";
paths = (
{
closed = 1;
nodes = (
"450 384 LINE",
"335 -206 LINE",
"239 -206 LINE",
"278 9 LINE",
"249 -3 OFFCURVE",
"225 -9 OFFCURVE",
"188 -9 CURVE SMOOTH",
"86 -9 OFFCURVE",
"30 73 OFFCURVE",
"30 152 CURVE SMOOTH",
"30 275 OFFCURVE",
"108 390 OFFCURVE",
"253 390 CURVE SMOOTH",
"299 390 OFFCURVE",
"346 376 OFFCURVE",
"370 361 CURVE",
"383 384 LINE"
);
},
{
closed = 1;
nodes = (
"168 314 OFFCURVE",
"132 237 OFFCURVE",
"132 159 CURVE SMOOTH",
"131 93 OFFCURVE",
"173 66 OFFCURVE",
"220 66 CURVE SMOOTH",
"249 66 OFFCURVE",
"277 72 OFFCURVE",
"296 83 CURVE",
"334 299 LINE",
"311 310 OFFCURVE",
"290 314 OFFCURVE",
"265 314 CURVE SMOOTH"
);
}
);
width = 478;
}
);
unicode = 0071;
},
{
glyphname = r;
lastChange = "2019-01-30 08:38:31 +0000";
layers = (
{
anchors = (
{
name = bottom;
position = "{76, 0}";
},
{
name = top;
position = "{252, 383}";
}
);
background = {
paths = (
{
closed = 1;
nodes = (
"218 375 OFFCURVE",
"261 390 OFFCURVE",
"304 390 CURVE SMOOTH",
"327 390 OFFCURVE",
"348 386 OFFCURVE",
"368 376 CURVE",
"329 288 LINE",
"322 285 LINE",
"285 309 OFFCURVE",
"227 314 OFFCURVE",
"180 297 CURVE",
"125 0 LINE",
"30 0 LINE",
"105 384 LINE",
"174 384 LINE",
"182 354 LINE"
);
}
);
};
layerId = "CFA4B904-E3F1-48B6-A7F6-47DC1FF2A3E1";
paths = (
{
closed = 1;
nodes = (
"218 375 OFFCURVE",
"261 390 OFFCURVE",
"304 390 CURVE SMOOTH",
"327 390 OFFCURVE",
"348 386 OFFCURVE",
"368 376 CURVE",
"326 278 LINE",
"319 275 LINE",
"282 299 OFFCURVE",
"227 314 OFFCURVE",
"180 297 CURVE",
"124 0 LINE",
"30 0 LINE",
"105 384 LINE",
"174 384 LINE",
"182 354 LINE"
);
}
);
width = 356;
}
);
unicode = 0072;
},
{
glyphname = s;
lastChange = "2019-01-30 08:38:31 +0000";
layers = (
{
anchors = (
{
name = bottom;
position = "{187, 0}";
},
{
name = top;
position = "{254, 384}";
}
);
background = {
paths = (
{
closed = 1;
nodes = (
"99 86 OFFCURVE",
"147 73 OFFCURVE",
"181 73 CURVE SMOOTH",
"238 73 OFFCURVE",
"254 83 OFFCURVE",
"258 103 CURVE SMOOTH",
"269 159 OFFCURVE",
"48 139 OFFCURVE",
"75 278 CURVE SMOOTH",
"83 317 OFFCURVE",
"115 390 OFFCURVE",
"265 390 CURVE",
"310 390 OFFCURVE",
"362 377 OFFCURVE",
"386 369 CURVE",
"341 293 LINE",
"318 300 OFFCURVE",
"282 312 OFFCURVE",
"241 312 CURVE SMOOTH",
"180 312 OFFCURVE",
"170 302 OFFCURVE",
"167 288 CURVE SMOOTH",
"154 223 OFFCURVE",
"378 248 OFFCURVE",
"353 116 CURVE SMOOTH",
"343 67 OFFCURVE",
"296 -9 OFFCURVE",
"150 -9 CURVE SMOOTH",
"100 -9 OFFCURVE",
"50 5 OFFCURVE",
"11 25 CURVE",
"58 102 LINE"
);
}
);
};
layerId = "CFA4B904-E3F1-48B6-A7F6-47DC1FF2A3E1";
paths = (
{
closed = 1;
nodes = (
"98 83 OFFCURVE",
"137 70 OFFCURVE",
"168 70 CURVE SMOOTH",
"241 70 OFFCURVE",
"258 89 OFFCURVE",
"258 107 CURVE SMOOTH",
"258 155 OFFCURVE",
"73 166 OFFCURVE",
"73 278 CURVE SMOOTH",
"73 321 OFFCURVE",
"88 390 OFFCURVE",
"255 390 CURVE",
"299 390 OFFCURVE",
"356 374 OFFCURVE",
"382 362 CURVE",
"341 293 LINE",
"318 300 OFFCURVE",
"282 312 OFFCURVE",
"241 312 CURVE SMOOTH",
"172 312 OFFCURVE",
"166 299 OFFCURVE",
"166 282 CURVE SMOOTH",
"166 227 OFFCURVE",
"349 219 OFFCURVE",
"349 112 CURVE SMOOTH",
"349 71 OFFCURVE",
"331 -9 OFFCURVE",
"181 -9 CURVE SMOOTH",
"112 -9 OFFCURVE",
"65 8 OFFCURVE",
"20 29 CURVE",
"57 99 LINE"
);
}
);
width = 407;
}
);
unicode = 0073;
},
{
glyphname = scedilla;
lastChange = "2019-01-30 08:38:31 +0000";
layers = (
{
background = {
paths = (
{
closed = 1;
nodes = (
"79 -141 OFFCURVE",
"81 -137 OFFCURVE",
"82 -136 CURVE SMOOTH",
"84 -124 OFFCURVE",
"78 -114 OFFCURVE",
"47 -103 CURVE",
"-3 -86 LINE",
"32 -8 LINE",
"-7 -1 OFFCURVE",
"-44 9 OFFCURVE",
"-73 25 CURVE",
"-26 102 LINE",
"15 86 OFFCURVE",
"63 73 OFFCURVE",
"97 73 CURVE SMOOTH",
"154 73 OFFCURVE",
"170 83 OFFCURVE",
"175 108 CURVE SMOOTH",
"185 159 OFFCURVE",
"-36 139 OFFCURVE",
"-10 272 CURVE SMOOTH",
"-1 317 OFFCURVE",
"31 390 OFFCURVE",
"181 390 CURVE",
"223 393 OFFCURVE",
"278 376 OFFCURVE",
"302 369 CURVE",
"257 293 LINE",
"234 300 OFFCURVE",
"198 312 OFFCURVE",
"157 312 CURVE SMOOTH",
"96 312 OFFCURVE",
"83 290 OFFCURVE",
"82 283 CURVE SMOOTH",
"71 226 OFFCURVE",
"294 248 OFFCURVE",
"270 122 CURVE SMOOTH",
"260 70 OFFCURVE",
"220 7 OFFCURVE",
"107 -7 CURVE",
"95 -41 LINE",
"134 -51 OFFCURVE",
"166 -74 OFFCURVE",
"157 -117 CURVE SMOOTH",
"148 -164 OFFCURVE",
"109 -208 OFFCURVE",
"37 -208 CURVE SMOOTH",
"11 -208 OFFCURVE",
"-20 -204 OFFCURVE",
"-49 -192 CURVE",
"-62 -187 LINE",
"-28 -121 LINE",
"26 -136 LINE",
"42 -137 OFFCURVE",
"52 -141 OFFCURVE",
"62 -141 CURVE SMOOTH"
);
}
);
};
components = (
{
name = s;
},
{
name = cedilla;
transform = "{1, 0, 0, 1, 177, 0}";
}
);
layerId = "CFA4B904-E3F1-48B6-A7F6-47DC1FF2A3E1";
width = 407;
}
);
unicode = 015F;
},
{
glyphname = germandbls;
lastChange = "2019-01-30 08:38:31 +0000";
layers = (
{
background = {
paths = (
{
closed = 1;
nodes = (
"443 554 OFFCURVE",
"478 479 OFFCURVE",
"466 417 CURVE SMOOTH",
"448 326 OFFCURVE",
"331 305 OFFCURVE",
"326 278 CURVE SMOOTH",
"316 225 OFFCURVE",
"511 249 OFFCURVE",
"485 115 CURVE SMOOTH",
"475 63 OFFCURVE",
"428 -10 OFFCURVE",
"303 -10 CURVE SMOOTH",
"270 -10 OFFCURVE",
"221 -7 OFFCURVE",
"169 8 CURVE",
"155 13 LINE",
"194 93 LINE",
"213 90 LINE",
"248 80 OFFCURVE",
"283 73 OFFCURVE",
"314 73 CURVE SMOOTH",
"365 73 OFFCURVE",
"380 84 OFFCURVE",
"385 105 CURVE SMOOTH",
"399 180 OFFCURVE",
"192 144 OFFCURVE",
"215 264 CURVE SMOOTH",
"233 353 OFFCURVE",
"352 363 OFFCURVE",
"360 406 CURVE SMOOTH",
"367 440 OFFCURVE",
"348 465 OFFCURVE",
"292 465 CURVE SMOOTH",
"277 465 OFFCURVE",
"222 460 OFFCURVE",
"207 383 CURVE SMOOTH",
"132 0 LINE",
"37 0 LINE",
"110 377 LINE SMOOTH",
"135 503 OFFCURVE",
"236 554 OFFCURVE",
"328 554 CURVE SMOOTH"
);
}
);
};
layerId = "CFA4B904-E3F1-48B6-A7F6-47DC1FF2A3E1";
paths = (
{
closed = 1;
nodes = (
"418 554 OFFCURVE",
"463 487 OFFCURVE",
"463 432 CURVE SMOOTH",
"463 328 OFFCURVE",
"326 303 OFFCURVE",
"326 265 CURVE SMOOTH",
"326 220 OFFCURVE",
"487 222 OFFCURVE",
"487 117 CURVE SMOOTH",
"487 72 OFFCURVE",
"453 -10 OFFCURVE",
"303 -10 CURVE SMOOTH",
"262 -10 OFFCURVE",
"219 -6 OFFCURVE",
"155 13 CURVE",
"193 90 LINE",
"251 76 OFFCURVE",
"279 73 OFFCURVE",
"314 73 CURVE SMOOTH",
"365 73 OFFCURVE",
"380 84 OFFCURVE",
"385 105 CURVE SMOOTH",
"398 176 OFFCURVE",
"213 168 OFFCURVE",
"213 255 CURVE SMOOTH",
"213 341 OFFCURVE",
"361 353 OFFCURVE",
"361 419 CURVE SMOOTH",
"361 446 OFFCURVE",
"340 465 OFFCURVE",
"292 465 CURVE SMOOTH",
"277 465 OFFCURVE",
"222 460 OFFCURVE",
"207 383 CURVE SMOOTH",
"132 0 LINE",
"37 0 LINE",
"110 377 LINE SMOOTH",
"135 503 OFFCURVE",
"206 554 OFFCURVE",
"318 554 CURVE SMOOTH"
);
}
);
width = 522;
}
);
unicode = 00DF;
},
{
glyphname = t;
lastChange = "2019-01-30 08:38:31 +0000";
layers = (
{
anchors = (
{
name = bottom;
position = "{171, 1}";
}
);
background = {
paths = (
{
closed = 1;
nodes = (
"261 6 OFFCURVE",
"214 -9 OFFCURVE",
"175 -9 CURVE SMOOTH",
"55 -9 OFFCURVE",
"54 52 OFFCURVE",
"67 120 CURVE SMOOTH",
"104 309 LINE",
"40 309 LINE",
"55 384 LINE",
"119 384 LINE",
"140 494 LINE",
"236 494 LINE",
"215 384 LINE",
"348 384 LINE",
"333 309 LINE",
"200 309 LINE",
"165 128 LINE SMOOTH",
"160 101 OFFCURVE",
"169 69 OFFCURVE",
"222 69 CURVE SMOOTH",
"248 69 OFFCURVE",
"280 76 OFFCURVE",
"296 80 CURVE",
"291 14 LINE"
);
}
);
};
layerId = "CFA4B904-E3F1-48B6-A7F6-47DC1FF2A3E1";
paths = (
{
closed = 1;
nodes = (
"261 4 OFFCURVE",
"224 -9 OFFCURVE",
"175 -9 CURVE SMOOTH",
"55 -9 OFFCURVE",
"58 70 OFFCURVE",
"71 138 CURVE SMOOTH",
"104 309 LINE",
"30 309 LINE",
"45 384 LINE",
"119 384 LINE",
"140 494 LINE",
"236 494 LINE",
"215 384 LINE",
"328 384 LINE",
"313 309 LINE",
"200 309 LINE",
"165 128 LINE SMOOTH",
"159 95 OFFCURVE",
"169 69 OFFCURVE",
"222 69 CURVE SMOOTH",
"248 69 OFFCURVE",
"280 76 OFFCURVE",
"296 80 CURVE",
"291 14 LINE"
);
}
);
width = 338;
}
);
unicode = 0074;
},
{
glyphname = tcaron;
lastChange = "2019-01-30 08:38:31 +0000";
layers = (
{
background = {
paths = (
{
closed = 1;
nodes = (
"385 420 LINE",
"314 420 LINE",
"340 596 LINE",
"432 596 LINE"
);
}
);
};
components = (
{
name = t;
}
);
layerId = "CFA4B904-E3F1-48B6-A7F6-47DC1FF2A3E1";
paths = (
{
closed = 1;
nodes = (
"321 430 LINE",
"251 430 LINE",
"307 596 LINE",
"398 596 LINE"
);
}
);
width = 343;
}
);
unicode = 0165;
},
{
glyphname = tcedilla;
lastChange = "2019-01-30 08:38:31 +0000";
layers = (
{
background = {
paths = (
{
closed = 1;
nodes = (
"215 -8 OFFCURVE",
"250 -2 OFFCURVE",
"279 9 CURVE",
"268 53 LINE",
"250 49 OFFCURVE",
"225 47 OFFCURVE",
"207 47 CURVE SMOOTH",
"157 47 OFFCURVE",
"146 73 OFFCURVE",
"146 123 CURVE SMOOTH",
"146 330 LINE",
"272 330 LINE",
"272 384 LINE",
"146 384 LINE",
"146 483 LINE",
"81 478 LINE",
"81 384 LINE",
"16 384 LINE",
"16 330 LINE",
"81 330 LINE",
"81 119 LINE SMOOTH",
"81 38 OFFCURVE",
"108 -8 OFFCURVE",
"188 -8 CURVE SMOOTH"
);
},
{
closed = 1;
nodes = (
"171 -160 OFFCURVE",
"147 -155 OFFCURVE",
"114 -145 CURVE SMOOTH",
"103 -142 LINE",
"88 -188 LINE",
"101 -190 LINE",
"131 -199 OFFCURVE",
"156 -207 OFFCURVE",
"183 -207 CURVE SMOOTH",
"242 -207 OFFCURVE",
"272 -178 OFFCURVE",
"272 -136 CURVE SMOOTH",
"272 -82 OFFCURVE",
"234 -64 OFFCURVE",
"200 -53 CURVE",
"184 -49 LINE",
"200 11 LINE",
"151 11 LINE",
"127 -81 LINE",
"182 -96 LINE",
"200 -100 OFFCURVE",
"222 -109 OFFCURVE",
"222 -131 CURVE SMOOTH",
"222 -153 OFFCURVE",
"204 -162 OFFCURVE",
"182 -161 CURVE"
);
}
);
};
components = (
{
name = t;
},
{
name = cedilla;
transform = "{1, 0, 0, 1, 140, 0}";
}
);
layerId = "CFA4B904-E3F1-48B6-A7F6-47DC1FF2A3E1";
width = 338;
}
);
unicode = 0163;
},
{
glyphname = u;
lastChange = "2019-01-30 08:38:31 +0000";
layers = (
{
anchors = (
{
name = top;
position = "{267, 384}";
}
);
background = {
paths = (
{
closed = 1;
nodes = (
"254 13 OFFCURVE",
"207 -9 OFFCURVE",
"153 -9 CURVE SMOOTH",
"22 -9 OFFCURVE",
"39 96 OFFCURVE",
"52 162 CURVE SMOOTH",
"95 384 LINE",
"190 384 LINE",
"145 155 LINE SMOOTH",
"139 125 OFFCURVE",
"141 73 OFFCURVE",
"204 73 CURVE SMOOTH",
"219 73 OFFCURVE",
"250 74 OFFCURVE",
"289 94 CURVE",
"344 384 LINE",
"438 384 LINE",
"363 -1 LINE",
"296 -1 LINE",
"288 28 LINE"
);
}
);
};
layerId = "CFA4B904-E3F1-48B6-A7F6-47DC1FF2A3E1";
paths = (
{
closed = 1;
nodes = (
"254 13 OFFCURVE",
"207 -9 OFFCURVE",
"153 -9 CURVE SMOOTH",
"22 -9 OFFCURVE",
"44 123 OFFCURVE",
"57 189 CURVE SMOOTH",
"95 384 LINE",
"190 384 LINE",
"145 155 LINE SMOOTH",
"138 118 OFFCURVE",
"141 73 OFFCURVE",
"204 73 CURVE SMOOTH",
"219 73 OFFCURVE",
"250 74 OFFCURVE",
"289 94 CURVE",
"344 384 LINE",
"438 384 LINE",
"363 -1 LINE",
"296 -1 LINE",
"288 28 LINE"
);
}
);
width = 468;
}
);
unicode = 0075;
},
{
glyphname = uogonek;
lastChange = "2019-01-30 08:38:31 +0000";
layers = (
{
anchors = (
{
name = top;
position = "{267, 384}";
}
);
background = {
paths = (
{
closed = 1;
nodes = (
"254 13 OFFCURVE",
"207 -9 OFFCURVE",
"153 -9 CURVE SMOOTH",
"22 -9 OFFCURVE",
"39 96 OFFCURVE",
"52 162 CURVE SMOOTH",
"95 383 LINE",
"190 383 LINE",
"144 151 LINE SMOOTH",
"139 121 OFFCURVE",
"141 69 OFFCURVE",
"204 69 CURVE SMOOTH",
"219 69 OFFCURVE",
"250 73 OFFCURVE",
"289 90 CURVE",
"344 383 LINE",
"438 383 LINE",
"361 1 LINE",
"305 -25 OFFCURVE",
"241 -59 OFFCURVE",
"234 -94 CURVE SMOOTH",
"228 -123 OFFCURVE",
"246 -140 OFFCURVE",
"275 -140 CURVE SMOOTH",
"300 -140 OFFCURVE",
"331 -126 OFFCURVE",
"348 -115 CURVE",
"365 -156 LINE",
"328 -177 OFFCURVE",
"284 -200 OFFCURVE",
"226 -200 CURVE SMOOTH",
"170 -200 OFFCURVE",
"130 -167 OFFCURVE",
"138 -123 CURVE SMOOTH",
"152 -53 OFFCURVE",
"248 -19 OFFCURVE",
"297 5 CURVE",
"288 28 LINE"
);
}
);
};
layerId = "CFA4B904-E3F1-48B6-A7F6-47DC1FF2A3E1";
paths = (
{
closed = 1;
nodes = (
"249 -140 OFFCURVE",
"231 -123 OFFCURVE",
"237 -94 CURVE SMOOTH",
"244 -59 OFFCURVE",
"308 -25 OFFCURVE",
"364 1 CURVE",
"438 384 LINE",
"344 384 LINE",
"289 94 LINE",
"250 74 OFFCURVE",
"219 73 OFFCURVE",
"204 73 CURVE SMOOTH",
"141 73 OFFCURVE",
"138 118 OFFCURVE",
"145 155 CURVE SMOOTH",
"190 384 LINE",
"95 384 LINE",
"57 189 LINE SMOOTH",
"44 123 OFFCURVE",
"22 -9 OFFCURVE",
"153 -9 CURVE SMOOTH",
"207 -9 OFFCURVE",
"254 13 OFFCURVE",
"288 28 CURVE",
"297.233 3.658 LINE",
"247.476 -20.27 OFFCURVE",
"154.741 -54.295 OFFCURVE",
"141 -123 CURVE SMOOTH",
"133 -167 OFFCURVE",
"173 -200 OFFCURVE",
"229 -200 CURVE SMOOTH",
"287 -200 OFFCURVE",
"331 -177 OFFCURVE",
"368 -156 CURVE",
"351 -115 LINE",
"334 -126 OFFCURVE",
"303 -140 OFFCURVE",
"278 -140 CURVE SMOOTH"
);
}
);
width = 468;
}
);
unicode = 0173;
},
{
glyphname = v;
lastChange = "2019-01-30 08:38:31 +0000";
layers = (
{
background = {
paths = (
{
closed = 1;
nodes = (
"105 0 LINE",
"32 384 LINE",
"141 384 LINE",
"177 101 LINE",
"322 384 LINE",
"420 384 LINE",
"202 0 LINE"
);
}
);
};
layerId = "CFA4B904-E3F1-48B6-A7F6-47DC1FF2A3E1";
paths = (
{
closed = 1;
nodes = (
"112 0 LINE",
"40 384 LINE",
"139 384 LINE",
"177 101 LINE",
"322 384 LINE",
"427 384 LINE",
"212 0 LINE"
);
}
);
width = 417;
}
);
unicode = 0076;
},
{
glyphname = w;
lastChange = "2019-01-30 08:38:31 +0000";
layers = (
{
background = {
paths = (
{
closed = 1;
nodes = (
"432 105 LINE",
"565 384 LINE",
"665 384 LINE",
"452 0 LINE",
"361 0 LINE",
"329 272 LINE",
"189 0 LINE",
"97 0 LINE",
"35 384 LINE",
"139 384 LINE",
"164 105 LINE",
"300 384 LINE",
"405 384 LINE"
);
}
);
};
layerId = "CFA4B904-E3F1-48B6-A7F6-47DC1FF2A3E1";
paths = (
{
closed = 1;
nodes = (
"432 105 LINE",
"565 384 LINE",
"665 384 LINE",
"467 0 LINE",
"365 0 LINE",
"335 272 LINE",
"195 0 LINE",
"99 0 LINE",
"40 384 LINE",
"136 384 LINE",
"164 105 LINE",
"300 384 LINE",
"405 384 LINE"
);
}
);
width = 655;
}
);
unicode = 0077;
},
{
glyphname = x;
lastChange = "2019-01-30 08:38:31 +0000";
layers = (
{
background = {
paths = (
{
closed = 1;
nodes = (
"240 251 LINE",
"345 384 LINE",
"455 384 LINE",
"284 189 LINE",
"385 0 LINE",
"266 0 LINE",
"211 123 LINE",
"109 0 LINE",
"2 0 LINE",
"163 189 LINE",
"68 384 LINE",
"180 384 LINE"
);
}
);
};
layerId = "CFA4B904-E3F1-48B6-A7F6-47DC1FF2A3E1";
paths = (
{
closed = 1;
nodes = (
"166 384 LINE",
"374 0 LINE",
"270 0 LINE",
"69 384 LINE"
);
},
{
closed = 1;
nodes = (
"455 384 LINE",
"249 155 LINE",
"237 140 LINE",
"111 1 LINE",
"0 1 LINE",
"183 204 LINE",
"197 221 LINE",
"343 384 LINE"
);
}
);
width = 440;
}
);
unicode = 0078;
},
{
glyphname = y;
lastChange = "2019-01-30 08:38:31 +0000";
layers = (
{
anchors = (
{
name = top;
position = "{229, 384}";
}
);
background = {
paths = (
{
closed = 1;
nodes = (
"189 89 LINE",
"349 384 LINE",
"447 384 LINE",
"97 -206 LINE",
"-8 -206 LINE",
"118 -3 LINE",
"20 384 LINE",
"131 384 LINE"
);
}
);
};
layerId = "CFA4B904-E3F1-48B6-A7F6-47DC1FF2A3E1";
paths = (
{
closed = 1;
nodes = (
"189 89 LINE",
"354 384 LINE",
"454 384 LINE",
"104 -206 LINE",
"12 -206 LINE",
"126 -11 LINE",
"40 384 LINE",
"131 384 LINE"
);
}
);
width = 444;
}
);
unicode = 0079;
},
{
glyphname = z;
lastChange = "2019-01-30 08:38:31 +0000";
layers = (
{
anchors = (
{
name = top;
position = "{238, 384}";
}
);
background = {
paths = (
{
closed = 1;
nodes = (
"390 333 LINE",
"161 81 LINE",
"349 81 LINE",
"333 0 LINE",
"19 0 LINE",
"30 49 LINE",
"257 300 LINE",
"77 300 LINE",
"94 384 LINE",
"401 384 LINE"
);
}
);
};
layerId = "CFA4B904-E3F1-48B6-A7F6-47DC1FF2A3E1";
paths = (
{
closed = 1;
nodes = (
"390 333 LINE",
"171 81 LINE",
"349 81 LINE",
"333 0 LINE",
"30 0 LINE",
"30 49 LINE",
"247 300 LINE",
"77 300 LINE",
"94 384 LINE",
"390 384 LINE"
);
}
);
width = 415;
}
);
unicode = 007A;
},
{
glyphname = fi;
lastChange = "2019-01-30 08:38:31 +0000";
layers = (
{
background = {
paths = (
{
closed = 1;
nodes = (
"111 453 OFFCURVE",
"150 554 OFFCURVE",
"293 554 CURVE SMOOTH",
"308 554 OFFCURVE",
"334 554 OFFCURVE",
"367 545 CURVE",
"334 473 LINE",
"322 475 OFFCURVE",
"307 478 OFFCURVE",
"290 478 CURVE SMOOTH",
"240 478 OFFCURVE",
"207 459 OFFCURVE",
"200 420 CURVE SMOOTH",
"193 384 LINE",
"326 384 LINE",
"311 309 LINE",
"178 309 LINE",
"118 0 LINE",
"23 0 LINE",
"83 309 LINE",
"19 309 LINE",
"34 384 LINE",
"98 384 LINE",
"103 411 LINE SMOOTH"
);
},
{
closed = 1;
nodes = (
"404 0 LINE",
"308 0 LINE",
"383 384 LINE",
"479 384 LINE"
);
},
{
closed = 1;
nodes = (
"472 449 OFFCURVE",
"501 473 OFFCURVE",
"507 503 CURVE SMOOTH",
"514 541 OFFCURVE",
"490 571 OFFCURVE",
"454 571 CURVE SMOOTH",
"422 571 OFFCURVE",
"394 549 OFFCURVE",
"388 517 CURVE SMOOTH",
"381 479 OFFCURVE",
"404 449 OFFCURVE",
"440 449 CURVE SMOOTH"
);
}
);
};
layerId = "CFA4B904-E3F1-48B6-A7F6-47DC1FF2A3E1";
paths = (
{
closed = 1;
nodes = (
"448 0 LINE",
"352 0 LINE",
"427 384 LINE",
"523 384 LINE"
);
},
{
closed = 1;
nodes = (
"516 449 OFFCURVE",
"545 473 OFFCURVE",
"551 503 CURVE SMOOTH",
"558 541 OFFCURVE",
"534 571 OFFCURVE",
"498 571 CURVE SMOOTH",
"466 571 OFFCURVE",
"438 549 OFFCURVE",
"432 517 CURVE SMOOTH",
"425 479 OFFCURVE",
"448 449 OFFCURVE",
"484 449 CURVE SMOOTH"
);
},
{
closed = 1;
nodes = (
"119 490 OFFCURVE",
"151 554 OFFCURVE",
"294 554 CURVE SMOOTH",
"315 554 OFFCURVE",
"339 551 OFFCURVE",
"366 544 CURVE",
"335 474 LINE",
"321 477 OFFCURVE",
"305 478 OFFCURVE",
"291 478 CURVE SMOOTH",
"231 478 OFFCURVE",
"208 459 OFFCURVE",
"201 420 CURVE SMOOTH",
"194 384 LINE",
"327 384 LINE",
"312 309 LINE",
"176 309 LINE",
"119 0 LINE",
"28 0 LINE",
"84 309 LINE",
"10 309 LINE",
"25 384 LINE",
"99 384 LINE",
"104 411 LINE SMOOTH"
);
}
);
width = 552;
}
);
leftMetricsKey = f;
unicode = FB01;
},
{
glyphname = fl;
lastChange = "2019-01-30 08:38:31 +0000";
layers = (
{
background = {
paths = (
{
closed = 1;
nodes = (
"136 453 OFFCURVE",
"175 554 OFFCURVE",
"318 554 CURVE SMOOTH",
"333 554 OFFCURVE",
"359 554 OFFCURVE",
"392 545 CURVE",
"359 473 LINE",
"347 475 OFFCURVE",
"332 478 OFFCURVE",
"315 478 CURVE SMOOTH",
"265 478 OFFCURVE",
"232 459 OFFCURVE",
"225 420 CURVE SMOOTH",
"218 384 LINE",
"351 384 LINE",
"336 309 LINE",
"203 309 LINE",
"143 0 LINE",
"48 0 LINE",
"108 309 LINE",
"44 309 LINE",
"59 384 LINE",
"123 384 LINE",
"128 411 LINE SMOOTH"
);
},
{
closed = 1;
nodes = (
"491 66 OFFCURVE",
"508 68 OFFCURVE",
"523 72 CURVE",
"506 11 LINE",
"490 4 OFFCURVE",
"461 -9 OFFCURVE",
"414 -9 CURVE SMOOTH",
"336 -9 OFFCURVE",
"331 43 OFFCURVE",
"341 96 CURVE SMOOTH",
"429 550 LINE",
"523 550 LINE",
"442 130 LINE SMOOTH",
"435 93 OFFCURVE",
"440 66 OFFCURVE",
"478 66 CURVE SMOOTH"
);
}
);
};
components = (
{
name = l;
transform = "{1, 0, 0, 1, 355, 0}";
}
);
layerId = "CFA4B904-E3F1-48B6-A7F6-47DC1FF2A3E1";
paths = (
{
closed = 1;
nodes = (
"144 490 OFFCURVE",
"176 554 OFFCURVE",
"319 554 CURVE SMOOTH",
"348 554 OFFCURVE",
"384 547 OFFCURVE",
"422 534 CURVE",
"392 465 LINE",
"365 474 OFFCURVE",
"341 478 OFFCURVE",
"316 478 CURVE SMOOTH",
"256 478 OFFCURVE",
"233 459 OFFCURVE",
"226 420 CURVE SMOOTH",
"219 384 LINE",
"352 384 LINE",
"337 309 LINE",
"201 309 LINE",
"144 0 LINE",
"53 0 LINE",
"109 309 LINE",
"35 309 LINE",
"50 384 LINE",
"124 384 LINE",
"129 411 LINE SMOOTH"
);
}
);
width = 600;
}
);
unicode = FB02;
},
{
glyphname = acute;
lastChange = "2019-01-30 08:38:31 +0000";
layers = (
{
anchors = (
{
name = _top;
position = "{102, 384}";
}
);
background = {
anchors = (
{
name = _top;
position = "{105, 384}";
}
);
paths = (
{
closed = 1;
nodes = (
"48 428 LINE",
"198 551 LINE",
"162 594 LINE",
"15 466 LINE"
);
},
{
closed = 1;
nodes = (
"241 560 LINE",
"28 418 LINE",
"-9 477 LINE",
"192 634 LINE"
);
}
);
};
layerId = "CFA4B904-E3F1-48B6-A7F6-47DC1FF2A3E1";
paths = (
{
closed = 1;
nodes = (
"241 560 LINE",
"28 418 LINE",
"-15 473 LINE",
"194 630 LINE"
);
}
);
width = 244;
}
);
unicode = 00B4;
},
{
glyphname = breve;
lastChange = "2019-01-30 08:38:31 +0000";
layers = (
{
anchors = (
{
name = _top;
position = "{112, 384}";
}
);
background = {
paths = (
{
closed = 1;
nodes = (
"39 440 OFFCURVE",
"11 505 OFFCURVE",
"3 547 CURVE",
"77 580 LINE",
"86 550 OFFCURVE",
"98 510 OFFCURVE",
"141 510 CURVE SMOOTH",
"179 510 OFFCURVE",
"204 544 OFFCURVE",
"224 574 CURVE",
"283 553 LINE",
"258 511 OFFCURVE",
"201 440 OFFCURVE",
"118 440 CURVE SMOOTH"
);
}
);
};
layerId = "CFA4B904-E3F1-48B6-A7F6-47DC1FF2A3E1";
paths = (
{
closed = 1;
nodes = (
"49 440 OFFCURVE",
"16 500 OFFCURVE",
"4 548 CURVE",
"67 576 LINE",
"76 546 OFFCURVE",
"93 510 OFFCURVE",
"134 510 CURVE SMOOTH",
"185 510 OFFCURVE",
"204 544 OFFCURVE",
"224 574 CURVE",
"286 542 LINE",
"258 489 OFFCURVE",
"216 440 OFFCURVE",
"128 440 CURVE SMOOTH"
);
}
);
width = 288;
}
);
unicode = 02D8;
},
{
glyphname = caron;
lastChange = "2019-01-30 08:38:31 +0000";
layers = (
{
anchors = (
{
name = _top;
position = "{111, 384}";
}
);
layerId = "CFA4B904-E3F1-48B6-A7F6-47DC1FF2A3E1";
paths = (
{
closed = 1;
nodes = (
"283 580 LINE",
"116 428 LINE",
"-3 592 LINE",
"51 636 LINE",
"127 534 LINE",
"241 634 LINE"
);
}
);
width = 286;
}
);
unicode = 02C7;
},
{
glyphname = cedilla;
lastChange = "2019-01-30 08:38:31 +0000";
layers = (
{
anchors = (
{
name = bottom;
position = "{1, 0}";
}
);
background = {
paths = (
{
closed = 1;
nodes = (
"1 -141 OFFCURVE",
"3 -137 OFFCURVE",
"4 -136 CURVE",
"6 -124 OFFCURVE",
"3 -114 OFFCURVE",
"-31 -103 CURVE SMOOTH",
"-80 -86 LINE",
"-25 26 LINE",
"46 26 LINE",
"20 -41 LINE",
"56 -51 OFFCURVE",
"89 -73 OFFCURVE",
"80 -117 CURVE SMOOTH",
"71 -164 OFFCURVE",
"30 -208 OFFCURVE",
"-38 -208 CURVE SMOOTH",
"-67 -208 OFFCURVE",
"-97 -204 OFFCURVE",
"-127 -192 CURVE",
"-138 -187 LINE",
"-105 -121 LINE",
"-52 -135 LINE",
"-33 -139 OFFCURVE",
"-25 -141 OFFCURVE",
"-14 -141 CURVE SMOOTH"
);
}
);
};
layerId = "CFA4B904-E3F1-48B6-A7F6-47DC1FF2A3E1";
paths = (
{
closed = 1;
nodes = (
"1 -141 OFFCURVE",
"4 -135 OFFCURVE",
"4 -128 CURVE SMOOTH",
"4 -118 OFFCURVE",
"-3 -112 OFFCURVE",
"-31 -103 CURVE SMOOTH",
"-73 -90 LINE",
"-28 26 LINE",
"46 26 LINE",
"19 -44 LINE",
"70 -62 OFFCURVE",
"84 -85 OFFCURVE",
"84 -117 CURVE SMOOTH",
"84 -162 OFFCURVE",
"49 -210 OFFCURVE",
"-27 -210 CURVE SMOOTH",
"-64 -210 OFFCURVE",
"-93 -202 OFFCURVE",
"-124 -191 CURVE",
"-96 -124 LINE",
"-52 -135 LINE",
"-33 -139 OFFCURVE",
"-25 -141 OFFCURVE",
"-14 -141 CURVE SMOOTH"
);
}
);
width = 215;
}
);
unicode = 00B8;
},
{
glyphname = circumflex;
lastChange = "2019-01-30 08:38:31 +0000";
layers = (
{
anchors = (
{
name = _top;
position = "{111, 384}";
}
);
background = {
paths = (
{
closed = 1;
nodes = (
"25 475 LINE",
"61 440 LINE",
"142 522 LINE",
"223 440 LINE",
"259 475 LINE",
"142 597 LINE"
);
},
{
closed = 1;
nodes = (
"-8 483 LINE",
"161 634 LINE",
"268 483 LINE",
"204 430 LINE",
"136 524 LINE",
"32 430 LINE"
);
}
);
};
guideLines = (
{
position = "{-97, 431}";
}
);
layerId = "CFA4B904-E3F1-48B6-A7F6-47DC1FF2A3E1";
paths = (
{
closed = 1;
nodes = (
"-10 484 LINE",
"157 636 LINE",
"276 472 LINE",
"222 428 LINE",
"146 530 LINE",
"32 430 LINE"
);
}
);
width = 286;
}
);
unicode = 02C6;
},
{
glyphname = dieresis;
lastChange = "2019-01-30 08:38:31 +0000";
layers = (
{
anchors = (
{
name = _top;
position = "{112, 384}";
}
);
background = {
paths = (
{
closed = 1;
nodes = (
"102 612 LINE",
"5 612 LINE",
"5 708 LINE",
"102 708 LINE"
);
},
{
closed = 1;
nodes = (
"259 612 LINE",
"162 612 LINE",
"162 708 LINE",
"259 708 LINE"
);
}
);
};
layerId = "CFA4B904-E3F1-48B6-A7F6-47DC1FF2A3E1";
paths = (
{
closed = 1;
nodes = (
"64 445 OFFCURVE",
"86 464 OFFCURVE",
"91 488 CURVE SMOOTH",
"97 519 OFFCURVE",
"77 544 OFFCURVE",
"48 544 CURVE SMOOTH",
"22 544 OFFCURVE",
"-1 525 OFFCURVE",
"-5 502 CURVE SMOOTH",
"-12 470 OFFCURVE",
"9 445 OFFCURVE",
"39 445 CURVE SMOOTH"
);
},
{
closed = 1;
nodes = (
"221 445 OFFCURVE",
"243 464 OFFCURVE",
"248 488 CURVE SMOOTH",
"254 519 OFFCURVE",
"234 544 OFFCURVE",
"205 544 CURVE SMOOTH",
"179 544 OFFCURVE",
"156 525 OFFCURVE",
"152 502 CURVE SMOOTH",
"145 470 OFFCURVE",
"166 445 OFFCURVE",
"196 445 CURVE SMOOTH"
);
}
);
width = 264;
}
);
unicode = 00A8;
},
{
glyphname = dotaccent;
lastChange = "2019-01-30 08:38:31 +0000";
layers = (
{
anchors = (
{
name = _top;
position = "{42, 384}";
}
);
layerId = "CFA4B904-E3F1-48B6-A7F6-47DC1FF2A3E1";
paths = (
{
closed = 1;
nodes = (
"83 449 OFFCURVE",
"112 473 OFFCURVE",
"118 503 CURVE SMOOTH",
"125 541 OFFCURVE",
"101 571 OFFCURVE",
"65 571 CURVE SMOOTH",
"33 571 OFFCURVE",
"5 549 OFFCURVE",
"-1 517 CURVE SMOOTH",
"-8 479 OFFCURVE",
"15 449 OFFCURVE",
"51 449 CURVE SMOOTH"
);
}
);
width = 132;
}
);
unicode = 02D9;
},
{
glyphname = grave;
lastChange = "2019-01-30 08:38:31 +0000";
layers = (
{
anchors = (
{
name = _top;
position = "{78, 384}";
}
);
background = {
paths = (
{
closed = 1;
nodes = (
"225 477 LINE",
"160 418 LINE",
"7 560 LINE",
"88 634 LINE"
);
}
);
};
layerId = "CFA4B904-E3F1-48B6-A7F6-47DC1FF2A3E1";
paths = (
{
closed = 1;
nodes = (
"210 463 LINE",
"160 418 LINE",
"-2 570 LINE",
"64 630 LINE"
);
}
);
width = 244;
}
);
unicode = 0060;
},
{
glyphname = hungarumlaut;
lastChange = "2019-01-30 08:38:31 +0000";
layers = (
{
anchors = (
{
name = _top;
position = "{34, 384}";
}
);
background = {
paths = (
{
closed = 1;
nodes = (
"38 427 LINE",
"188 550 LINE",
"152 593 LINE",
"5 465 LINE"
);
},
{
closed = 1;
nodes = (
"188 427 LINE",
"338 550 LINE",
"302 593 LINE",
"155 465 LINE"
);
}
);
};
components = (
{
name = acute;
transform = "{1, 0, 0, 1, -107, 0}";
},
{
name = acute;
transform = "{1, 0, 0, 1, 104, 0}";
}
);
layerId = "CFA4B904-E3F1-48B6-A7F6-47DC1FF2A3E1";
width = 444;
}
);
unicode = 02DD;
},
{
glyphname = macron;
lastChange = "2019-01-30 08:38:31 +0000";
layers = (
{
anchors = (
{
name = _top;
position = "{110, 384}";
}
);
background = {
paths = (
{
closed = 1;
nodes = (
"237 447 LINE",
"-15 447 LINE",
"0 525 LINE",
"252 525 LINE"
);
}
);
};
layerId = "CFA4B904-E3F1-48B6-A7F6-47DC1FF2A3E1";
paths = (
{
closed = 1;
nodes = (
"237 447 LINE",
"-15 447 LINE",
"-2 515 LINE",
"250 515 LINE"
);
}
);
width = 262;
}
);
unicode = 00AF;
},
{
glyphname = ogonek;
lastChange = "2019-01-30 08:38:31 +0000";
layers = (
{
background = {
paths = (
{
closed = 1;
nodes = (
"403 21 OFFCURVE",
"281 -40 OFFCURVE",
"281 -130 CURVE SMOOTH",
"281 -174 OFFCURVE",
"308 -211 OFFCURVE",
"367 -211 CURVE SMOOTH",
"402 -211 OFFCURVE",
"435 -195 OFFCURVE",
"464 -175 CURVE",
"447 -142 LINE",
"431 -153 OFFCURVE",
"403 -164 OFFCURVE",
"383 -164 CURVE SMOOTH",
"355 -164 OFFCURVE",
"341 -149 OFFCURVE",
"341 -120 CURVE SMOOTH",
"341 -62 OFFCURVE",
"426 -17 OFFCURVE",
"475 13 CURVE",
"453 50 LINE"
);
}
);
};
layerId = "CFA4B904-E3F1-48B6-A7F6-47DC1FF2A3E1";
paths = (
{
closed = 1;
nodes = (
"177 -16 OFFCURVE",
"137 -51 OFFCURVE",
"120 -91 CURVE SMOOTH",
"109 -124 OFFCURVE",
"114 -157 OFFCURVE",
"163 -157 CURVE SMOOTH",
"184 -157 OFFCURVE",
"208 -148 OFFCURVE",
"231 -140 CURVE",
"230 -179 LINE",
"186 -199 OFFCURVE",
"151 -220 OFFCURVE",
"90 -220 CURVE SMOOTH",
"15 -220 OFFCURVE",
"-2 -168 OFFCURVE",
"18 -118 CURVE SMOOTH",
"42 -53 OFFCURVE",
"116 -3 OFFCURVE",
"220 34 CURVE",
"264 16 LINE"
);
}
);
width = 274;
}
);
unicode = 02DB;
},
{
glyphname = ring;
lastChange = "2019-01-30 08:38:31 +0000";
layers = (
{
anchors = (
{
name = _top;
position = "{74, 384}";
}
);
background = {
paths = (
{
closed = 1;
nodes = (
"83 563 OFFCURVE",
"66 547 OFFCURVE",
"63 530 CURVE SMOOTH",
"58 505 OFFCURVE",
"72 483 OFFCURVE",
"98 483 CURVE SMOOTH",
"117 483 OFFCURVE",
"134 499 OFFCURVE",
"137 516 CURVE SMOOTH",
"142 541 OFFCURVE",
"127 563 OFFCURVE",
"104 563 CURVE SMOOTH"
);
},
{
closed = 1;
nodes = (
"191 471 OFFCURVE",
"135 420 OFFCURVE",
"76 420 CURVE SMOOTH",
"21 420 OFFCURVE",
"-12 465 OFFCURVE",
"-2 516 CURVE SMOOTH",
"10 578 OFFCURVE",
"67 625 OFFCURVE",
"126 625 CURVE SMOOTH",
"181 625 OFFCURVE",
"213 584 OFFCURVE",
"202 530 CURVE SMOOTH"
);
}
);
};
layerId = "CFA4B904-E3F1-48B6-A7F6-47DC1FF2A3E1";
paths = (
{
closed = 1;
nodes = (
"83 563 OFFCURVE",
"66 547 OFFCURVE",
"63 530 CURVE SMOOTH",
"58 505 OFFCURVE",
"67 483 OFFCURVE",
"98 483 CURVE SMOOTH",
"117 483 OFFCURVE",
"134 499 OFFCURVE",
"137 516 CURVE SMOOTH",
"142 541 OFFCURVE",
"132 563 OFFCURVE",
"104 563 CURVE SMOOTH"
);
},
{
closed = 1;
nodes = (
"165 420 OFFCURVE",
"83 420 CURVE SMOOTH",
"36 420 OFFCURVE",
"-3 455 OFFCURVE",
"-3 502 CURVE SMOOTH",
"-3 563 OFFCURVE",
"32 625 OFFCURVE",
"119 625 CURVE SMOOTH",
"165 625 OFFCURVE",
"204 594 OFFCURVE",
"204 541 CURVE SMOOTH",
"204 481 OFFCURVE"
);
}
);
width = 211;
}
);
unicode = 02DA;
},
{
glyphname = tilde;
lastChange = "2019-01-30 08:38:31 +0000";
layers = (
{
anchors = (
{
name = _top;
position = "{156, 384}";
}
);
background = {
paths = (
{
closed = 1;
nodes = (
"154 551 OFFCURVE",
"191 514 OFFCURVE",
"218 514 CURVE SMOOTH",
"241 514 OFFCURVE",
"248 527 OFFCURVE",
"258 546 CURVE",
"326 528 LINE",
"312 484 OFFCURVE",
"264 435 OFFCURVE",
"198 435 CURVE SMOOTH",
"154 435 OFFCURVE",
"123 473 OFFCURVE",
"99 473 CURVE SMOOTH",
"76 473 OFFCURVE",
"69 457 OFFCURVE",
"58 440 CURVE",
"-11 457 LINE",
"7 507 OFFCURVE",
"58 551 OFFCURVE",
"110 551 CURVE SMOOTH"
);
}
);
};
layerId = "CFA4B904-E3F1-48B6-A7F6-47DC1FF2A3E1";
paths = (
{
closed = 1;
nodes = (
"149 542 OFFCURVE",
"187 504 OFFCURVE",
"214 504 CURVE SMOOTH",
"237 504 OFFCURVE",
"248 528 OFFCURVE",
"258 544 CURVE",
"331 528 LINE",
"312 474 OFFCURVE",
"263 437 OFFCURVE",
"207 437 CURVE SMOOTH",
"154 437 OFFCURVE",
"124 475 OFFCURVE",
"100 475 CURVE SMOOTH",
"77 475 OFFCURVE",
"69 458 OFFCURVE",
"58 439 CURVE",
"-15 457 LINE",
"14 524 OFFCURVE",
"57 542 OFFCURVE",
"105 542 CURVE SMOOTH"
);
}
);
width = 335;
}
);
unicode = 02DC;
},
{
glyphname = acute.cap;
lastChange = "2019-01-30 08:38:31 +0000";
layers = (
{
anchors = (
{
name = _top.cap;
position = "{149, 550}";
}
);
background = {
paths = (
{
closed = 1;
nodes = (
"12 625 LINE",
"34 584 LINE",
"205 650 LINE",
"178 703 LINE"
);
},
{
closed = 1;
nodes = (
"46 570 LINE",
"275 653 LINE",
"252 741 LINE",
"23 639 LINE"
);
}
);
};
layerId = "CFA4B904-E3F1-48B6-A7F6-47DC1FF2A3E1";
paths = (
{
closed = 1;
nodes = (
"46 570 LINE",
"275 653 LINE",
"241 736 LINE",
"16 631 LINE"
);
}
);
width = 261;
}
);
},
{
glyphname = breve.cap;
lastChange = "2019-01-30 08:38:31 +0000";
layers = (
{
anchors = (
{
name = _top.cap;
position = "{138, 550}";
}
);
background = {
paths = (
{
closed = 1;
nodes = (
"72 592 OFFCURVE",
"41 638 OFFCURVE",
"29 678 CURVE",
"95 723 LINE",
"106 698 OFFCURVE",
"122 661 OFFCURVE",
"165 661 CURVE SMOOTH",
"203 661 OFFCURVE",
"230 692 OFFCURVE",
"250 717 CURVE",
"296 684 LINE",
"268 644 OFFCURVE",
"214 592 OFFCURVE",
"141 592 CURVE SMOOTH"
);
}
);
};
components = (
{
name = breve;
transform = "{1, 0, 0, 1, 15, 152}";
}
);
layerId = "CFA4B904-E3F1-48B6-A7F6-47DC1FF2A3E1";
width = 276;
}
);
},
{
glyphname = caron.cap;
lastChange = "2019-01-30 08:38:31 +0000";
layers = (
{
anchors = (
{
name = _top.cap;
position = "{155, 550}";
}
);
background = {
paths = (
{
closed = 1;
nodes = (
"292 756 LINE",
"178 680 LINE",
"94 756 LINE",
"34 699 LINE",
"164 585 LINE",
"334 699 LINE"
);
}
);
};
layerId = "CFA4B904-E3F1-48B6-A7F6-47DC1FF2A3E1";
paths = (
{
closed = 1;
nodes = (
"82 757 LINE",
"173 674 LINE",
"302 756 LINE",
"340 699 LINE",
"164 585 LINE",
"29 709 LINE"
);
}
);
width = 310;
}
);
},
{
glyphname = cedilla.cap;
lastChange = "2019-01-30 08:38:31 +0000";
layers = (
{
anchors = (
{
name = bottom;
position = "{1, 0}";
}
);
layerId = "CFA4B904-E3F1-48B6-A7F6-47DC1FF2A3E1";
paths = (
{
closed = 1;
nodes = (
"1 -141 OFFCURVE",
"4 -135 OFFCURVE",
"4 -128 CURVE SMOOTH",
"4 -118 OFFCURVE",
"-3 -112 OFFCURVE",
"-31 -103 CURVE SMOOTH",
"-73 -90 LINE",
"-28 26 LINE",
"46 26 LINE",
"19 -44 LINE",
"70 -62 OFFCURVE",
"84 -85 OFFCURVE",
"84 -117 CURVE SMOOTH",
"84 -162 OFFCURVE",
"49 -210 OFFCURVE",
"-27 -210 CURVE SMOOTH",
"-64 -210 OFFCURVE",
"-93 -202 OFFCURVE",
"-124 -191 CURVE",
"-96 -124 LINE",
"-52 -135 LINE",
"-33 -139 OFFCURVE",
"-25 -141 OFFCURVE",
"-14 -141 CURVE SMOOTH"
);
}
);
width = 215;
}
);
},
{
glyphname = circumflex.cap;
lastChange = "2019-01-30 08:38:31 +0000";
layers = (
{
anchors = (
{
name = _top.cap;
position = "{165, 550}";
}
);
background = {
paths = (
{
closed = 1;
nodes = (
"259 585 LINE",
"175 661 LINE",
"61 585 LINE",
"23 642 LINE",
"197 756 LINE",
"323 642 LINE"
);
}
);
};
guideLines = (
{
position = "{168, 585}";
}
);
layerId = "CFA4B904-E3F1-48B6-A7F6-47DC1FF2A3E1";
paths = (
{
closed = 1;
nodes = (
"281 584 LINE",
"190 667 LINE",
"61 585 LINE",
"23 642 LINE",
"199 756 LINE",
"334 632 LINE"
);
}
);
width = 310;
}
);
},
{
glyphname = dieresis.cap;
lastChange = "2019-01-30 08:38:31 +0000";
layers = (
{
anchors = (
{
name = _top.cap;
position = "{131, 550}";
}
);
background = {
paths = (
{
closed = 1;
nodes = (
"62 615 OFFCURVE",
"79 632 OFFCURVE",
"79 652 CURVE SMOOTH",
"79 672 OFFCURVE",
"62 689 OFFCURVE",
"42 689 CURVE SMOOTH",
"22 689 OFFCURVE",
"5 672 OFFCURVE",
"5 652 CURVE SMOOTH",
"5 632 OFFCURVE",
"22 615 OFFCURVE",
"42 615 CURVE SMOOTH"
);
},
{
closed = 1;
nodes = (
"220 615 OFFCURVE",
"237 632 OFFCURVE",
"237 652 CURVE SMOOTH",
"237 672 OFFCURVE",
"220 689 OFFCURVE",
"200 689 CURVE SMOOTH",
"180 689 OFFCURVE",
"163 672 OFFCURVE",
"163 652 CURVE SMOOTH",
"163 632 OFFCURVE",
"180 615 OFFCURVE",
"200 615 CURVE SMOOTH"
);
},
{
closed = 1;
nodes = (
"91 605 LINE",
"-6 605 LINE",
"-6 701 LINE",
"91 701 LINE"
);
},
{
closed = 1;
nodes = (
"248 605 LINE",
"151 605 LINE",
"151 701 LINE",
"248 701 LINE"
);
}
);
};
layerId = "CFA4B904-E3F1-48B6-A7F6-47DC1FF2A3E1";
paths = (
{
closed = 1;
nodes = (
"83 603 OFFCURVE",
"106 622 OFFCURVE",
"111 646 CURVE SMOOTH",
"117 677 OFFCURVE",
"97 702 OFFCURVE",
"68 702 CURVE SMOOTH",
"42 702 OFFCURVE",
"19 683 OFFCURVE",
"14 660 CURVE SMOOTH",
"8 628 OFFCURVE",
"28 603 OFFCURVE",
"58 603 CURVE SMOOTH"
);
},
{
closed = 1;
nodes = (
"240 603 OFFCURVE",
"263 622 OFFCURVE",
"268 646 CURVE SMOOTH",
"274 677 OFFCURVE",
"254 702 OFFCURVE",
"225 702 CURVE SMOOTH",
"199 702 OFFCURVE",
"176 683 OFFCURVE",
"171 660 CURVE SMOOTH",
"165 628 OFFCURVE",
"185 603 OFFCURVE",
"215 603 CURVE SMOOTH"
);
}
);
width = 242;
}
);
},
{
glyphname = dotaccent.cap;
lastChange = "2019-01-30 08:38:31 +0000";
layers = (
{
anchors = (
{
name = _top.cap;
position = "{51, 550}";
}
);
background = {
paths = (
{
closed = 1;
nodes = (
"105 609 LINE",
"5 609 LINE",
"5 710 LINE",
"105 710 LINE"
);
}
);
};
components = (
{
name = dotaccent;
transform = "{1, 0, 0, 1, 11, 149}";
}
);
layerId = "CFA4B904-E3F1-48B6-A7F6-47DC1FF2A3E1";
width = 110;
}
);
},
{
glyphname = grave.cap;
lastChange = "2019-01-30 08:38:31 +0000";
layers = (
{
anchors = (
{
name = _top.cap;
position = "{112, 550}";
}
);
background = {
paths = (
{
closed = 1;
nodes = (
"81 741 LINE",
"24 653 LINE",
"225 570 LINE",
"274 639 LINE"
);
}
);
};
layerId = "CFA4B904-E3F1-48B6-A7F6-47DC1FF2A3E1";
paths = (
{
closed = 1;
nodes = (
"61 733 LINE",
"13 658 LINE",
"225 570 LINE",
"265 626 LINE"
);
}
);
width = 261;
}
);
},
{
glyphname = hungarumlaut.cap;
lastChange = "2019-01-30 08:38:31 +0000";
layers = (
{
anchors = (
{
name = _top.cap;
position = "{254, 550}";
}
);
background = {
paths = (
{
closed = 1;
nodes = (
"5 627 LINE",
"27 586 LINE",
"198 652 LINE",
"171 705 LINE"
);
},
{
closed = 1;
nodes = (
"213 627 LINE",
"235 586 LINE",
"406 652 LINE",
"379 705 LINE"
);
}
);
};
components = (
{
name = acute.cap;
transform = "{1, 0, 0, 1, 13, 0}";
},
{
name = acute.cap;
transform = "{1, 0, 0, 1, 265, 0}";
}
);
layerId = "CFA4B904-E3F1-48B6-A7F6-47DC1FF2A3E1";
width = 533;
}
);
},
{
glyphname = macron.cap;
lastChange = "2019-01-30 08:38:31 +0000";
layers = (
{
anchors = (
{
name = _top.cap;
position = "{135, 550}";
}
);
background = {
paths = (
{
closed = 1;
nodes = (
"278 615 LINE",
"18 615 LINE",
"33 693 LINE",
"293 693 LINE"
);
}
);
};
layerId = "CFA4B904-E3F1-48B6-A7F6-47DC1FF2A3E1";
paths = (
{
closed = 1;
nodes = (
"278 615 LINE",
"18 615 LINE",
"32 683 LINE",
"292 683 LINE"
);
}
);
width = 270;
}
);
},
{
glyphname = ring.cap;
lastChange = "2019-01-30 08:38:31 +0000";
layers = (
{
anchors = (
{
name = _top.cap;
position = "{102, 550}";
}
);
background = {
paths = (
{
closed = 1;
nodes = (
"113 722 OFFCURVE",
"97 706 OFFCURVE",
"94 689 CURVE SMOOTH",
"89 664 OFFCURVE",
"103 642 OFFCURVE",
"129 642 CURVE SMOOTH",
"148 642 OFFCURVE",
"165 658 OFFCURVE",
"168 675 CURVE SMOOTH",
"173 700 OFFCURVE",
"157 722 OFFCURVE",
"134 722 CURVE SMOOTH"
);
},
{
closed = 1;
nodes = (
"222 630 OFFCURVE",
"166 579 OFFCURVE",
"107 579 CURVE SMOOTH",
"52 579 OFFCURVE",
"19 624 OFFCURVE",
"29 675 CURVE SMOOTH",
"41 737 OFFCURVE",
"97 784 OFFCURVE",
"156 784 CURVE SMOOTH",
"211 784 OFFCURVE",
"244 743 OFFCURVE",
"233 689 CURVE SMOOTH"
);
}
);
};
layerId = "CFA4B904-E3F1-48B6-A7F6-47DC1FF2A3E1";
paths = (
{
closed = 1;
nodes = (
"109 723 OFFCURVE",
"92 707 OFFCURVE",
"89 690 CURVE SMOOTH",
"84 665 OFFCURVE",
"93 643 OFFCURVE",
"124 643 CURVE SMOOTH",
"143 643 OFFCURVE",
"160 659 OFFCURVE",
"163 676 CURVE SMOOTH",
"168 701 OFFCURVE",
"158 723 OFFCURVE",
"130 723 CURVE SMOOTH"
);
},
{
closed = 1;
nodes = (
"191 580 OFFCURVE",
"109 580 CURVE SMOOTH",
"62 580 OFFCURVE",
"23 615 OFFCURVE",
"23 662 CURVE SMOOTH",
"23 723 OFFCURVE",
"58 785 OFFCURVE",
"145 785 CURVE SMOOTH",
"191 785 OFFCURVE",
"230 754 OFFCURVE",
"230 701 CURVE SMOOTH",
"230 641 OFFCURVE"
);
}
);
width = 211;
}
);
},
{
glyphname = tilde.cap;
lastChange = "2019-01-30 08:38:31 +0000";
layers = (
{
anchors = (
{
name = _top.cap;
position = "{172, 550}";
}
);
background = {
paths = (
{
closed = 1;
nodes = (
"178 712 OFFCURVE",
"215 674 OFFCURVE",
"242 674 CURVE SMOOTH",
"265 674 OFFCURVE",
"273 694 OFFCURVE",
"283 710 CURVE",
"348 696 LINE",
"327 649 OFFCURVE",
"288 603 OFFCURVE",
"223 603 CURVE SMOOTH",
"179 603 OFFCURVE",
"149 641 OFFCURVE",
"125 641 CURVE SMOOTH",
"102 641 OFFCURVE",
"94 624 OFFCURVE",
"83 605 CURVE",
"19 621 LINE",
"39 668 OFFCURVE",
"82 712 OFFCURVE",
"140 712 CURVE SMOOTH"
);
}
);
};
layerId = "CFA4B904-E3F1-48B6-A7F6-47DC1FF2A3E1";
paths = (
{
closed = 1;
nodes = (
"174 708 OFFCURVE",
"212 670 OFFCURVE",
"239 670 CURVE SMOOTH",
"262 670 OFFCURVE",
"273 694 OFFCURVE",
"283 710 CURVE",
"356 694 LINE",
"337 640 OFFCURVE",
"288 603 OFFCURVE",
"232 603 CURVE SMOOTH",
"179 603 OFFCURVE",
"149 641 OFFCURVE",
"125 641 CURVE SMOOTH",
"102 641 OFFCURVE",
"94 624 OFFCURVE",
"83 605 CURVE",
"10 623 LINE",
"39 690 OFFCURVE",
"82 708 OFFCURVE",
"130 708 CURVE SMOOTH"
);
}
);
width = 366;
}
);
},
{
glyphname = commaaccent;
lastChange = "2019-01-30 08:38:31 +0000";
layers = (
{
anchors = (
{
name = _bottom;
position = "{-18, 0}";
}
);
background = {
paths = (
{
closed = 1;
nodes = (
"-64 -217 LINE",
"-143 -217 LINE",
"-73 -41 LINE",
"35 -41 LINE"
);
}
);
};
layerId = "CFA4B904-E3F1-48B6-A7F6-47DC1FF2A3E1";
paths = (
{
closed = 1;
nodes = (
"-74 -217 LINE",
"-143 -217 LINE",
"-73 -41 LINE",
"25 -41 LINE"
);
}
);
width = 156;
}
);
unicode = 0326;
},
{
glyphname = ordfeminine;
lastChange = "2019-01-30 08:38:31 +0000";
layers = (
{
background = {
paths = (
{
closed = 1;
nodes = (
"254 554 OFFCURVE",
"263 517 OFFCURVE",
"251 459 CURVE SMOOTH",
"222 308 LINE",
"174 308 LINE",
"168 326 LINE",
"147 314 OFFCURVE",
"124 302 OFFCURVE",
"93 302 CURVE SMOOTH",
"44 302 OFFCURVE",
"20 331 OFFCURVE",
"28 368 CURVE SMOOTH",
"38 419 OFFCURVE",
"81 447 OFFCURVE",
"147 452 CURVE SMOOTH",
"189 452 LINE",
"197 492 OFFCURVE",
"187 509 OFFCURVE",
"140 509 CURVE SMOOTH",
"119 509 OFFCURVE",
"93 500 OFFCURVE",
"74 496 CURVE",
"74 534 LINE",
"93 542 OFFCURVE",
"136 554 OFFCURVE",
"170 554 CURVE SMOOTH"
);
},
{
closed = 1;
nodes = (
"139 410 LINE",
"108 409 OFFCURVE",
"93 401 OFFCURVE",
"90 385 CURVE SMOOTH",
"86 364 OFFCURVE",
"102 348 OFFCURVE",
"129 348 CURVE SMOOTH",
"152 348 OFFCURVE",
"160 350 OFFCURVE",
"175 361 CURVE",
"184 414 LINE"
);
}
);
};
layerId = "CFA4B904-E3F1-48B6-A7F6-47DC1FF2A3E1";
paths = (
{
closed = 1;
nodes = (
"239 554 OFFCURVE",
"257 517 OFFCURVE",
"247 459 CURVE SMOOTH",
"222 308 LINE",
"180 308 LINE",
"174 326 LINE",
"153 314 OFFCURVE",
"129 304 OFFCURVE",
"98 304 CURVE SMOOTH",
"56 304 OFFCURVE",
"30 330 OFFCURVE",
"30 363 CURVE SMOOTH",
"30 397 OFFCURVE",
"47 452 OFFCURVE",
"147 452 CURVE SMOOTH",
"189 452 LINE",
"197 492 OFFCURVE",
"187 509 OFFCURVE",
"140 509 CURVE SMOOTH",
"119 509 OFFCURVE",
"93 504 OFFCURVE",
"74 500 CURVE",
"74 540 LINE",
"93 545 OFFCURVE",
"126 554 OFFCURVE",
"160 554 CURVE SMOOTH"
);
},
{
closed = 1;
nodes = (
"139 414 LINE",
"100 413 OFFCURVE",
"89 396 OFFCURVE",
"89 378 CURVE SMOOTH",
"89 361 OFFCURVE",
"105 348 OFFCURVE",
"129 348 CURVE SMOOTH",
"142 348 OFFCURVE",
"160 350 OFFCURVE",
"175 361 CURVE",
"184 414 LINE"
);
}
);
width = 280;
}
);
unicode = 00AA;
},
{
glyphname = ordmasculine;
lastChange = "2019-01-30 08:38:31 +0000";
layers = (
{
background = {
paths = (
{
closed = 1;
nodes = (
"131 509 OFFCURVE",
"103 482 OFFCURVE",
"93 434 CURVE SMOOTH",
"83 381 OFFCURVE",
"106 349 OFFCURVE",
"141 349 CURVE SMOOTH",
"174 349 OFFCURVE",
"200 375 OFFCURVE",
"209 420 CURVE SMOOTH",
"220 476 OFFCURVE",
"199 509 OFFCURVE",
"162 509 CURVE SMOOTH"
);
},
{
closed = 1;
nodes = (
"50 302 OFFCURVE",
"18 351 OFFCURVE",
"32 420 CURVE SMOOTH",
"47 500 OFFCURVE",
"105 555 OFFCURVE",
"182 555 CURVE SMOOTH",
"255 555 OFFCURVE",
"285 506 OFFCURVE",
"271 434 CURVE SMOOTH",
"256 357 OFFCURVE",
"197 302 OFFCURVE",
"122 302 CURVE SMOOTH"
);
}
);
};
layerId = "CFA4B904-E3F1-48B6-A7F6-47DC1FF2A3E1";
paths = (
{
closed = 1;
nodes = (
"114 509 OFFCURVE",
"91 453 OFFCURVE",
"91 409 CURVE SMOOTH",
"91 371 OFFCURVE",
"112 349 OFFCURVE",
"141 349 CURVE SMOOTH",
"191 349 OFFCURVE",
"212 405 OFFCURVE",
"212 448 CURVE SMOOTH",
"212 487 OFFCURVE",
"192 509 OFFCURVE",
"162 509 CURVE SMOOTH"
);
},
{
closed = 1;
nodes = (
"74 302 OFFCURVE",
"30 347 OFFCURVE",
"30 406 CURVE SMOOTH",
"30 466 OFFCURVE",
"61 555 OFFCURVE",
"170 555 CURVE SMOOTH",
"231 555 OFFCURVE",
"272 510 OFFCURVE",
"272 450 CURVE SMOOTH",
"272 386 OFFCURVE",
"239 302 OFFCURVE",
"134 302 CURVE SMOOTH"
);
}
);
width = 302;
}
);
unicode = 00BA;
},
{
glyphname = zero;
lastChange = "2019-01-30 08:38:31 +0000";
layers = (
{
background = {
paths = (
{
closed = 1;
nodes = (
"106 68 OFFCURVE",
"98 140 OFFCURVE",
"115 224 CURVE SMOOTH",
"133 316 OFFCURVE",
"174 391 OFFCURVE",
"253 391 CURVE SMOOTH",
"327 391 OFFCURVE",
"336 322 OFFCURVE",
"319 238 CURVE SMOOTH",
"301 146 OFFCURVE",
"258 68 OFFCURVE",
"180 68 CURVE SMOOTH"
);
},
{
closed = 1;
nodes = (
"126 469 OFFCURVE",
"51 362 OFFCURVE",
"27 238 CURVE SMOOTH",
"2 106 OFFCURVE",
"40 -8 OFFCURVE",
"177 -8 CURVE SMOOTH",
"308 -8 OFFCURVE",
"383 100 OFFCURVE",
"407 224 CURVE SMOOTH",
"433 358 OFFCURVE",
"396 469 OFFCURVE",
"259 469 CURVE"
);
}
);
};
layerId = "CFA4B904-E3F1-48B6-A7F6-47DC1FF2A3E1";
paths = (
{
closed = 1;
nodes = (
"128 68 OFFCURVE",
"108 104 OFFCURVE",
"106 155 CURVE SMOOTH",
"102 240 OFFCURVE",
"141 391 OFFCURVE",
"253 391 CURVE SMOOTH",
"307 391 OFFCURVE",
"329 354 OFFCURVE",
"329 302 CURVE SMOOTH",
"329 214 OFFCURVE",
"293 68 OFFCURVE",
"180 68 CURVE SMOOTH"
);
},
{
closed = 1;
nodes = (
"82 469 OFFCURVE",
"20 284 OFFCURVE",
"20 166 CURVE SMOOTH",
"20 67 OFFCURVE",
"66 -8 OFFCURVE",
"177 -8 CURVE SMOOTH",
"352 -8 OFFCURVE",
"415 181 OFFCURVE",
"415 299 CURVE SMOOTH",
"415 397 OFFCURVE",
"369 469 OFFCURVE",
"259 469 CURVE"
);
}
);
width = 435;
}
);
unicode = 0030;
},
{
glyphname = one;
lastChange = "2019-01-30 08:38:31 +0000";
layers = (
{
background = {
paths = (
{
closed = 1;
nodes = (
"174 466 LINE",
"70 425 LINE",
"86 359 LINE",
"167 390 LINE",
"105 70 LINE",
"19 70 LINE",
"5 0 LINE",
"262 0 LINE",
"276 70 LINE",
"194 70 LINE",
"271 466 LINE"
);
}
);
};
layerId = "CFA4B904-E3F1-48B6-A7F6-47DC1FF2A3E1";
paths = (
{
closed = 1;
nodes = (
"174 466 LINE",
"70 425 LINE",
"86 359 LINE",
"167 390 LINE",
"105 70 LINE",
"24 70 LINE",
"10 0 LINE",
"267 0 LINE",
"281 70 LINE",
"191 70 LINE",
"268 466 LINE"
);
}
);
width = 291;
}
);
unicode = 0031;
},
{
glyphname = two;
lastChange = "2019-01-30 08:38:31 +0000";
layers = (
{
background = {
paths = (
{
closed = 1;
nodes = (
"117 359 OFFCURVE",
"164 390 OFFCURVE",
"221 390 CURVE SMOOTH",
"273 390 OFFCURVE",
"289 370 OFFCURVE",
"283 339 CURVE SMOOTH",
"276 302 OFFCURVE",
"262 281 OFFCURVE",
"194 221 CURVE SMOOTH",
"154 182 OFFCURVE",
"104 144 OFFCURVE",
"11 73 CURVE",
"-1 0 LINE",
"309 0 LINE",
"324 77 LINE",
"144 77 LINE",
"229 141 LINE",
"305 206 OFFCURVE",
"353 252 OFFCURVE",
"367 325 CURVE",
"386 421 OFFCURVE",
"323 475 OFFCURVE",
"236 475 CURVE SMOOTH",
"164 475 OFFCURVE",
"106 445 OFFCURVE",
"69 427 CURVE",
"90 346 LINE"
);
}
);
};
layerId = "CFA4B904-E3F1-48B6-A7F6-47DC1FF2A3E1";
paths = (
{
closed = 1;
nodes = (
"116 367 OFFCURVE",
"164 397 OFFCURVE",
"221 397 CURVE SMOOTH",
"267 397 OFFCURVE",
"286 375 OFFCURVE",
"286 350 CURVE SMOOTH",
"286 270 OFFCURVE",
"171 188 OFFCURVE",
"20 73 CURVE",
"20 0 LINE",
"319 0 LINE",
"334 75 LINE",
"138 75 LINE",
"316 218 OFFCURVE",
"370 283 OFFCURVE",
"370 358 CURVE SMOOTH",
"370 433 OFFCURVE",
"309 475 OFFCURVE",
"232 475 CURVE SMOOTH",
"160 475 OFFCURVE",
"104 448 OFFCURVE",
"67 430 CURVE",
"89 355 LINE"
);
}
);
width = 396;
}
);
unicode = 0032;
},
{
glyphname = three;
lastChange = "2019-01-30 08:38:31 +0000";
layers = (
{
background = {
paths = (
{
closed = 1;
nodes = (
"213 476 OFFCURVE",
"162 462 OFFCURVE",
"108 439 CURVE",
"129 360 LINE",
"179 381 OFFCURVE",
"220 394 OFFCURVE",
"255 394 CURVE SMOOTH",
"280 394 OFFCURVE",
"313 387 OFFCURVE",
"306 349 CURVE SMOOTH",
"298 307 OFFCURVE",
"269 271 OFFCURVE",
"173 271 CURVE",
"161 195 LINE",
"172 195 LINE SMOOTH",
"262 195 OFFCURVE",
"294 180 OFFCURVE",
"285 134 CURVE SMOOTH",
"276 88 OFFCURVE",
"236 70 OFFCURVE",
"182 70 CURVE SMOOTH",
"141 70 OFFCURVE",
"107 86 OFFCURVE",
"67 105 CURVE",
"28 30 LINE",
"72 8 OFFCURVE",
"117 -10 OFFCURVE",
"183 -10 CURVE SMOOTH",
"276 -10 OFFCURVE",
"350 31 OFFCURVE",
"367 117 CURVE SMOOTH",
"380 187 OFFCURVE",
"345 219 OFFCURVE",
"301 233 CURVE",
"346 255 OFFCURVE",
"381 293 OFFCURVE",
"390 340 CURVE SMOOTH",
"407 424 OFFCURVE",
"356 476 OFFCURVE",
"261 476 CURVE SMOOTH"
);
}
);
};
layerId = "CFA4B904-E3F1-48B6-A7F6-47DC1FF2A3E1";
paths = (
{
closed = 1;
nodes = (
"213 476 OFFCURVE",
"162 462 OFFCURVE",
"108 439 CURVE",
"129 360 LINE",
"179 381 OFFCURVE",
"220 394 OFFCURVE",
"255 394 CURVE SMOOTH",
"280 394 OFFCURVE",
"313 387 OFFCURVE",
"306 349 CURVE SMOOTH",
"298 307 OFFCURVE",
"269 271 OFFCURVE",
"173 271 CURVE",
"161 195 LINE",
"172 195 LINE SMOOTH",
"262 195 OFFCURVE",
"294 180 OFFCURVE",
"285 134 CURVE SMOOTH",
"276 88 OFFCURVE",
"236 70 OFFCURVE",
"182 70 CURVE SMOOTH",
"141 70 OFFCURVE",
"106 85 OFFCURVE",
"66 104 CURVE",
"28 30 LINE",
"72 8 OFFCURVE",
"121 -10 OFFCURVE",
"187 -10 CURVE SMOOTH",
"280 -10 OFFCURVE",
"350 31 OFFCURVE",
"367 117 CURVE SMOOTH",
"380 187 OFFCURVE",
"345 219 OFFCURVE",
"301 233 CURVE",
"346 255 OFFCURVE",
"381 293 OFFCURVE",
"390 340 CURVE SMOOTH",
"407 424 OFFCURVE",
"356 476 OFFCURVE",
"261 476 CURVE SMOOTH"
);
}
);
width = 428;
}
);
unicode = 0033;
},
{
glyphname = four;
lastChange = "2019-01-30 08:38:31 +0000";
layers = (
{
background = {
paths = (
{
closed = 1;
nodes = (
"278 466 LINE",
"15 159 LINE",
"5 101 LINE",
"221 101 LINE",
"201 -1 LINE",
"287 -1 LINE",
"307 101 LINE",
"381 101 LINE",
"395 175 LINE",
"321 175 LINE",
"378 466 LINE"
);
},
{
closed = 1;
nodes = (
"126 175 LINE",
"270 348 LINE",
"235 175 LINE"
);
}
);
};
layerId = "CFA4B904-E3F1-48B6-A7F6-47DC1FF2A3E1";
paths = (
{
closed = 1;
nodes = (
"278 466 LINE",
"15 159 LINE",
"15 101 LINE",
"225 101 LINE",
"207 -1 LINE",
"288 -1 LINE",
"307 101 LINE",
"381 101 LINE",
"395 175 LINE",
"321 175 LINE",
"374 466 LINE"
);
},
{
closed = 1;
nodes = (
"126 175 LINE",
"274 355 LINE",
"238 175 LINE"
);
}
);
width = 405;
}
);
unicode = 0034;
},
{
glyphname = five;
lastChange = "2019-01-30 08:38:31 +0000";
layers = (
{
background = {
paths = (
{
closed = 1;
nodes = (
"258 228 OFFCURVE",
"289 207 OFFCURVE",
"280 157 CURVE SMOOTH",
"268 97 OFFCURVE",
"230 70 OFFCURVE",
"154 70 CURVE SMOOTH",
"117 70 OFFCURVE",
"82 81 OFFCURVE",
"52 91 CURVE",
"20 17 LINE",
"59 3 OFFCURVE",
"111 -9 OFFCURVE",
"158 -9 CURVE SMOOTH",
"247 -9 OFFCURVE",
"337 27 OFFCURVE",
"359 140 CURVE SMOOTH",
"378 237 OFFCURVE",
"333 305 OFFCURVE",
"218 305 CURVE SMOOTH",
"201 305 OFFCURVE",
"192 305 OFFCURVE",
"171 303 CURVE",
"192 394 LINE",
"392 394 LINE",
"406 466 LINE",
"126 466 LINE",
"80 228 LINE",
"95 218 LINE",
"124 222 OFFCURVE",
"160 228 OFFCURVE",
"189 228 CURVE SMOOTH"
);
}
);
};
layerId = "CFA4B904-E3F1-48B6-A7F6-47DC1FF2A3E1";
paths = (
{
closed = 1;
nodes = (
"258 228 OFFCURVE",
"289 207 OFFCURVE",
"280 157 CURVE SMOOTH",
"268 97 OFFCURVE",
"230 70 OFFCURVE",
"154 70 CURVE SMOOTH",
"117 70 OFFCURVE",
"82 81 OFFCURVE",
"52 91 CURVE",
"20 17 LINE",
"59 3 OFFCURVE",
"111 -9 OFFCURVE",
"158 -9 CURVE SMOOTH",
"247 -9 OFFCURVE",
"337 27 OFFCURVE",
"359 140 CURVE SMOOTH",
"378 237 OFFCURVE",
"333 305 OFFCURVE",
"218 305 CURVE SMOOTH",
"201 305 OFFCURVE",
"194 305 OFFCURVE",
"173 303 CURVE",
"192 394 LINE",
"392 394 LINE",
"406 466 LINE",
"126 466 LINE",
"80 228 LINE",
"95 218 LINE",
"124 222 OFFCURVE",
"160 228 OFFCURVE",
"189 228 CURVE SMOOTH"
);
}
);
width = 426;
}
);
unicode = 0035;
},
{
glyphname = six;
lastChange = "2019-01-30 08:38:31 +0000";
layers = (
{
background = {
paths = (
{
closed = 1;
nodes = (
"117 184 OFFCURVE",
"156 210 OFFCURVE",
"213 210 CURVE SMOOTH",
"264 210 OFFCURVE",
"280 187 OFFCURVE",
"273 148 CURVE SMOOTH",
"262 95 OFFCURVE",
"224 67 OFFCURVE",
"173 67 CURVE SMOOTH",
"119 67 OFFCURVE",
"83 107 OFFCURVE",
"110 211 CURVE SMOOTH",
"111 218 OFFCURVE",
"115 221 OFFCURVE",
"115 220 CURVE",
"134 321 OFFCURVE",
"196 401 OFFCURVE",
"363 396 CURVE",
"364 476 LINE",
"171 475 OFFCURVE",
"62 384 OFFCURVE",
"30 218 CURVE SMOOTH",
"4 83 OFFCURVE",
"42 -10 OFFCURVE",
"169 -10 CURVE SMOOTH",
"273 -10 OFFCURVE",
"336 50 OFFCURVE",
"352 135 CURVE SMOOTH",
"372 236 OFFCURVE",
"307 287 OFFCURVE",
"222 287 CURVE SMOOTH",
"166 287 OFFCURVE",
"125 270 OFFCURVE",
"92 249 CURVE",
"82 159 LINE"
);
}
);
};
layerId = "CFA4B904-E3F1-48B6-A7F6-47DC1FF2A3E1";
paths = (
{
closed = 1;
nodes = (
"117 192 OFFCURVE",
"156 210 OFFCURVE",
"213 210 CURVE SMOOTH",
"264 210 OFFCURVE",
"280 187 OFFCURVE",
"273 148 CURVE SMOOTH",
"262 95 OFFCURVE",
"224 67 OFFCURVE",
"173 67 CURVE SMOOTH",
"119 67 OFFCURVE",
"83 107 OFFCURVE",
"110 211 CURVE SMOOTH",
"111 218 OFFCURVE",
"115 221 OFFCURVE",
"115 220 CURVE",
"134 321 OFFCURVE",
"196 402 OFFCURVE",
"363 401 CURVE",
"364 476 LINE",
"171 475 OFFCURVE",
"59 375 OFFCURVE",
"30 218 CURVE SMOOTH",
"5 83 OFFCURVE",
"38 -10 OFFCURVE",
"165 -10 CURVE SMOOTH",
"269 -10 OFFCURVE",
"336 50 OFFCURVE",
"352 135 CURVE SMOOTH",
"372 236 OFFCURVE",
"307 287 OFFCURVE",
"222 287 CURVE SMOOTH",
"166 287 OFFCURVE",
"125 270 OFFCURVE",
"92 249 CURVE",
"82 167 LINE"
);
}
);
width = 389;
}
);
unicode = 0036;
},
{
glyphname = seven;
lastChange = "2019-01-30 08:38:31 +0000";
layers = (
{
background = {
paths = (
{
closed = 1;
nodes = (
"65 466 LINE",
"50 391 LINE",
"257 391 LINE",
"24 0 LINE",
"111 0 LINE",
"355 407 LINE",
"366 466 LINE"
);
}
);
};
layerId = "CFA4B904-E3F1-48B6-A7F6-47DC1FF2A3E1";
paths = (
{
closed = 1;
nodes = (
"65 466 LINE",
"50 391 LINE",
"252 391 LINE",
"20 0 LINE",
"111 0 LINE",
"355 407 LINE",
"355 466 LINE"
);
}
);
width = 375;
}
);
unicode = 0037;
},
{
glyphname = eight;
lastChange = "2019-01-30 08:38:31 +0000";
layers = (
{
background = {
paths = (
{
closed = 1;
nodes = (
"280 402 OFFCURVE",
"302 387 OFFCURVE",
"297 360 CURVE SMOOTH",
"288 316 OFFCURVE",
"248 294 OFFCURVE",
"213 276 CURVE",
"184 294 OFFCURVE",
"163 316 OFFCURVE",
"169 347 CURVE SMOOTH",
"176 380 OFFCURVE",
"212 402 OFFCURVE",
"248 402 CURVE SMOOTH"
);
},
{
closed = 1;
nodes = (
"114 62 OFFCURVE",
"99 93 OFFCURVE",
"105 123 CURVE SMOOTH",
"114 169 OFFCURVE",
"160 204 OFFCURVE",
"212 218 CURVE",
"245 206 OFFCURVE",
"289 188 OFFCURVE",
"280 140 CURVE SMOOTH",
"271 96 OFFCURVE",
"233 62 OFFCURVE",
"174 62 CURVE SMOOTH"
);
},
{
closed = 1;
nodes = (
"166 475 OFFCURVE",
"106 425 OFFCURVE",
"95 367 CURVE",
"83 304 OFFCURVE",
"117 272 OFFCURVE",
"134 255 CURVE",
"80 222 OFFCURVE",
"44 189 OFFCURVE",
"32 131 CURVE SMOOTH",
"17 54 OFFCURVE",
"63 -10 OFFCURVE",
"170 -10 CURVE SMOOTH",
"274 -10 OFFCURVE",
"338 48 OFFCURVE",
"353 123 CURVE SMOOTH",
"364 182 OFFCURVE",
"339 219 OFFCURVE",
"294 248 CURVE",
"324 270 OFFCURVE",
"363 297 OFFCURVE",
"373 353 CURVE",
"387 422 OFFCURVE",
"341 475 OFFCURVE",
"252 475 CURVE SMOOTH"
);
}
);
};
layerId = "CFA4B904-E3F1-48B6-A7F6-47DC1FF2A3E1";
paths = (
{
closed = 1;
nodes = (
"280 402 OFFCURVE",
"302 387 OFFCURVE",
"297 360 CURVE SMOOTH",
"288 316 OFFCURVE",
"248 294 OFFCURVE",
"213 276 CURVE",
"184 294 OFFCURVE",
"163 316 OFFCURVE",
"169 347 CURVE SMOOTH",
"176 380 OFFCURVE",
"212 402 OFFCURVE",
"248 402 CURVE SMOOTH"
);
},
{
closed = 1;
nodes = (
"114 62 OFFCURVE",
"99 93 OFFCURVE",
"105 123 CURVE SMOOTH",
"114 169 OFFCURVE",
"160 204 OFFCURVE",
"212 218 CURVE",
"245 206 OFFCURVE",
"289 188 OFFCURVE",
"280 140 CURVE SMOOTH",
"271 96 OFFCURVE",
"233 62 OFFCURVE",
"174 62 CURVE SMOOTH"
);
},
{
closed = 1;
nodes = (
"166 475 OFFCURVE",
"106 425 OFFCURVE",
"95 367 CURVE",
"83 304 OFFCURVE",
"117 272 OFFCURVE",
"134 255 CURVE",
"80 222 OFFCURVE",
"44 189 OFFCURVE",
"32 131 CURVE SMOOTH",
"17 54 OFFCURVE",
"65 -10 OFFCURVE",
"172 -10 CURVE SMOOTH",
"276 -10 OFFCURVE",
"338 48 OFFCURVE",
"353 123 CURVE SMOOTH",
"364 182 OFFCURVE",
"339 219 OFFCURVE",
"294 248 CURVE",
"324 270 OFFCURVE",
"363 297 OFFCURVE",
"373 353 CURVE",
"387 422 OFFCURVE",
"341 475 OFFCURVE",
"252 475 CURVE SMOOTH"
);
}
);
width = 405;
}
);
unicode = 0038;
},
{
glyphname = nine;
lastChange = "2019-01-30 08:38:31 +0000";
layers = (
{
background = {
paths = (
{
closed = 1;
nodes = (
"280 265 OFFCURVE",
"242 246 OFFCURVE",
"185 246 CURVE SMOOTH",
"134 246 OFFCURVE",
"120 279 OFFCURVE",
"128 318 CURVE SMOOTH",
"138 371 OFFCURVE",
"175 398 OFFCURVE",
"226 398 CURVE SMOOTH",
"280 398 OFFCURVE",
"316 359 OFFCURVE",
"289 255 CURVE",
"287 248 OFFCURVE",
"289 245 OFFCURVE",
"289 246 CURVE SMOOTH",
"267 135 OFFCURVE",
"218 57 OFFCURVE",
"26 66 CURVE",
"22 -10 LINE",
"249 -15 OFFCURVE",
"335 74 OFFCURVE",
"369 248 CURVE SMOOTH",
"396 383 OFFCURVE",
"360 476 OFFCURVE",
"231 476 CURVE SMOOTH",
"127 476 OFFCURVE",
"64 416 OFFCURVE",
"47 331 CURVE SMOOTH",
"28 230 OFFCURVE",
"91 169 OFFCURVE",
"176 169 CURVE SMOOTH",
"232 169 OFFCURVE",
"271 181 OFFCURVE",
"304 202 CURVE",
"314 286 LINE"
);
}
);
};
layerId = "CFA4B904-E3F1-48B6-A7F6-47DC1FF2A3E1";
paths = (
{
closed = 1;
nodes = (
"280 265 OFFCURVE",
"242 246 OFFCURVE",
"185 246 CURVE SMOOTH",
"134 246 OFFCURVE",
"120 279 OFFCURVE",
"128 318 CURVE SMOOTH",
"138 371 OFFCURVE",
"175 398 OFFCURVE",
"226 398 CURVE SMOOTH",
"280 398 OFFCURVE",
"316 359 OFFCURVE",
"289 255 CURVE",
"287 248 OFFCURVE",
"289 245 OFFCURVE",
"289 246 CURVE SMOOTH",
"267 135 OFFCURVE",
"218 57 OFFCURVE",
"26 66 CURVE",
"22 -10 LINE",
"249 -15 OFFCURVE",
"339 74 OFFCURVE",
"373 248 CURVE SMOOTH",
"400 383 OFFCURVE",
"360 476 OFFCURVE",
"231 476 CURVE SMOOTH",
"127 476 OFFCURVE",
"67 416 OFFCURVE",
"50 331 CURVE SMOOTH",
"31 230 OFFCURVE",
"91 169 OFFCURVE",
"176 169 CURVE SMOOTH",
"232 169 OFFCURVE",
"271 181 OFFCURVE",
"304 202 CURVE",
"314 286 LINE"
);
}
);
width = 409;
}
);
unicode = 0039;
},
{
glyphname = fraction;
lastChange = "2019-01-30 08:38:31 +0000";
layers = (
{
background = {
paths = (
{
closed = 1;
nodes = (
"444 550 LINE",
"22 0 LINE",
"-46 0 LINE",
"379 550 LINE"
);
}
);
};
layerId = "CFA4B904-E3F1-48B6-A7F6-47DC1FF2A3E1";
paths = (
{
closed = 1;
nodes = (
"472 570 LINE",
"20 -20 LINE",
"-70 -20 LINE",
"385 570 LINE"
);
}
);
width = 402;
}
);
unicode = 2044;
},
{
glyphname = onehalf;
lastChange = "2019-01-30 08:38:31 +0000";
layers = (
{
background = {
paths = (
{
closed = 1;
nodes = (
"568 550 LINE",
"114 0 LINE",
"29 0 LINE",
"486 550 LINE"
);
},
{
closed = 1;
nodes = (
"161 239 LINE",
"89 239 LINE",
"135 477 LINE",
"75 461 LINE",
"61 517 LINE",
"169 550 LINE",
"221 550 LINE"
);
},
{
closed = 1;
nodes = (
"432 297 OFFCURVE",
"474 316 OFFCURVE",
"521 316 CURVE SMOOTH",
"579 316 OFFCURVE",
"614 279 OFFCURVE",
"603 221 CURVE SMOOTH",
"593 170 OFFCURVE",
"553 126 OFFCURVE",
"478 63 CURVE",
"579 61 LINE",
"567 -1 LINE",
"356 -1 LINE",
"365 38 LINE",
"388 56 OFFCURVE",
"406 69 OFFCURVE",
"436 91 CURVE",
"489 137 OFFCURVE",
"524 173 OFFCURVE",
"528 196 CURVE SMOOTH",
"535 231 OFFCURVE",
"521 248 OFFCURVE",
"486 248 CURVE SMOOTH",
"459 248 OFFCURVE",
"434 237 OFFCURVE",
"415 228 CURVE",
"408 285 LINE"
);
}
);
};
layerId = "CFA4B904-E3F1-48B6-A7F6-47DC1FF2A3E1";
paths = (
{
closed = 1;
nodes = (
"568 550 LINE",
"114 0 LINE",
"25 0 LINE",
"482 550 LINE"
);
},
{
closed = 1;
nodes = (
"157 239 LINE",
"87 239 LINE",
"131 477 LINE",
"71 461 LINE",
"57 517 LINE",
"165 550 LINE",
"217 550 LINE"
);
},
{
closed = 1;
nodes = (
"431 302 OFFCURVE",
"459 315 OFFCURVE",
"506 315 CURVE SMOOTH",
"567 315 OFFCURVE",
"599 269 OFFCURVE",
"599 224 CURVE SMOOTH",
"599 174 OFFCURVE",
"563 123 OFFCURVE",
"484 57 CURVE",
"584 57 LINE",
"572 0 LINE",
"365 0 LINE",
"365 39 LINE",
"424 82 OFFCURVE",
"530 148 OFFCURVE",
"530 214 CURVE SMOOTH",
"530 238 OFFCURVE",
"515 250 OFFCURVE",
"486 250 CURVE SMOOTH",
"459 250 OFFCURVE",
"434 238 OFFCURVE",
"415 229 CURVE",
"407 291 LINE"
);
}
);
width = 639;
}
);
unicode = 00BD;
},
{
glyphname = onequarter;
lastChange = "2019-01-30 08:38:31 +0000";
layers = (
{
background = {
paths = (
{
closed = 1;
nodes = (
"563 550 LINE",
"109 0 LINE",
"24 0 LINE",
"481 550 LINE"
);
},
{
closed = 1;
nodes = (
"156 239 LINE",
"84 239 LINE",
"130 477 LINE",
"70 461 LINE",
"56 517 LINE",
"164 550 LINE",
"216 550 LINE"
);
},
{
closed = 1;
nodes = (
"526 123 LINE",
"575 123 LINE",
"563 63 LINE",
"514 63 LINE",
"502 0 LINE",
"435 0 LINE",
"447 63 LINE",
"301 63 LINE",
"313 117 LINE",
"483 309 LINE",
"562 309 LINE"
);
},
{
closed = 1;
nodes = (
"475 213 LINE",
"395 123 LINE",
"459 123 LINE"
);
}
);
};
layerId = "CFA4B904-E3F1-48B6-A7F6-47DC1FF2A3E1";
paths = (
{
closed = 1;
nodes = (
"526 123 LINE",
"580 123 LINE",
"568 63 LINE",
"514 63 LINE",
"502 0 LINE",
"437 0 LINE",
"449 63 LINE",
"313 63 LINE",
"313 117 LINE",
"486 309 LINE",
"562 309 LINE"
);
},
{
closed = 1;
nodes = (
"480 219 LINE",
"395 123 LINE",
"459 123 LINE"
);
},
{
closed = 1;
nodes = (
"568 550 LINE",
"114 0 LINE",
"25 0 LINE",
"482 550 LINE"
);
},
{
closed = 1;
nodes = (
"157 239 LINE",
"87 239 LINE",
"131 477 LINE",
"71 461 LINE",
"57 517 LINE",
"165 550 LINE",
"217 550 LINE"
);
}
);
width = 620;
}
);
unicode = 00BC;
},
{
glyphname = threequarters;
lastChange = "2019-01-30 08:38:31 +0000";
layers = (
{
background = {
paths = (
{
closed = 1;
nodes = (
"622 550 LINE",
"168 0 LINE",
"83 0 LINE",
"540 550 LINE"
);
},
{
closed = 1;
nodes = (
"585 123 LINE",
"634 123 LINE",
"622 63 LINE",
"573 63 LINE",
"561 0 LINE",
"494 0 LINE",
"506 63 LINE",
"360 63 LINE",
"372 117 LINE",
"542 309 LINE",
"621 309 LINE"
);
},
{
closed = 1;
nodes = (
"534 213 LINE",
"454 123 LINE",
"518 123 LINE"
);
},
{
closed = 1;
nodes = (
"145 420 LINE SMOOTH",
"177 420 OFFCURVE",
"195 426 OFFCURVE",
"199 448 CURVE SMOOTH",
"204 471 OFFCURVE",
"189 482 OFFCURVE",
"167 482 CURVE SMOOTH",
"146 482 OFFCURVE",
"118 474 OFFCURVE",
"92 462 CURVE",
"83 521 LINE",
"115 536 OFFCURVE",
"150 550 OFFCURVE",
"189 550 CURVE SMOOTH",
"249 550 OFFCURVE",
"284 522 OFFCURVE",
"272 465 CURVE SMOOTH",
"266 434 OFFCURVE",
"240 407 OFFCURVE",
"219 393 CURVE",
"240 380 OFFCURVE",
"261 355 OFFCURVE",
"255 324 CURVE SMOOTH",
"242 257 OFFCURVE",
"182 226 OFFCURVE",
"115 226 CURVE SMOOTH",
"88 226 OFFCURVE",
"43 234 OFFCURVE",
"21 246 CURVE",
"60 311 LINE",
"71 306 OFFCURVE",
"105 294 OFFCURVE",
"137 294 CURVE SMOOTH",
"166 294 OFFCURVE",
"178 302 OFFCURVE",
"181 319 CURVE SMOOTH",
"187 347 OFFCURVE",
"166 358 OFFCURVE",
"129 358 CURVE SMOOTH",
"107 358 LINE",
"119 420 LINE"
);
}
);
};
layerId = "CFA4B904-E3F1-48B6-A7F6-47DC1FF2A3E1";
paths = (
{
closed = 1;
nodes = (
"585 123 LINE",
"639 123 LINE",
"627 63 LINE",
"573 63 LINE",
"561 0 LINE",
"496 0 LINE",
"508 63 LINE",
"372 63 LINE",
"372 117 LINE",
"545 309 LINE",
"621 309 LINE"
);
},
{
closed = 1;
nodes = (
"539 219 LINE",
"454 123 LINE",
"518 123 LINE"
);
},
{
closed = 1;
nodes = (
"627 550 LINE",
"173 0 LINE",
"84 0 LINE",
"541 550 LINE"
);
},
{
closed = 1;
nodes = (
"145 420 LINE SMOOTH",
"188 420 OFFCURVE",
"200 432 OFFCURVE",
"200 457 CURVE SMOOTH",
"200 474 OFFCURVE",
"186 482 OFFCURVE",
"167 482 CURVE SMOOTH",
"146 482 OFFCURVE",
"118 474 OFFCURVE",
"92 462 CURVE",
"82 525 LINE",
"114 540 OFFCURVE",
"146 550 OFFCURVE",
"176 550 CURVE SMOOTH",
"228 550 OFFCURVE",
"268 526 OFFCURVE",
"268 477 CURVE SMOOTH",
"268 436 OFFCURVE",
"250 414 OFFCURVE",
"217 390 CURVE",
"235 379 OFFCURVE",
"251 348 OFFCURVE",
"251 322 CURVE SMOOTH",
"251 274 OFFCURVE",
"223 228 OFFCURVE",
"126 228 CURVE SMOOTH",
"89 228 OFFCURVE",
"47 243 OFFCURVE",
"25 252 CURVE",
"60 311 LINE",
"71 306 OFFCURVE",
"101 294 OFFCURVE",
"133 294 CURVE SMOOTH",
"171 294 OFFCURVE",
"182 306 OFFCURVE",
"182 329 CURVE SMOOTH",
"182 350 OFFCURVE",
"161 358 OFFCURVE",
"129 358 CURVE SMOOTH",
"107 358 LINE",
"119 420 LINE"
);
}
);
width = 679;
}
);
unicode = 00BE;
},
{
glyphname = onesuperior;
lastChange = "2019-01-30 08:38:31 +0000";
layers = (
{
background = {
paths = (
{
closed = 1;
nodes = (
"115 275 LINE",
"43 275 LINE",
"89 513 LINE",
"29 497 LINE",
"15 553 LINE",
"123 586 LINE",
"175 586 LINE"
);
}
);
};
layerId = "CFA4B904-E3F1-48B6-A7F6-47DC1FF2A3E1";
paths = (
{
closed = 1;
nodes = (
"115 275 LINE",
"45 275 LINE",
"89 513 LINE",
"29 497 LINE",
"15 553 LINE",
"123 586 LINE",
"175 586 LINE"
);
}
);
width = 200;
}
);
leftMetricsKey = one;
unicode = 00B9;
},
{
glyphname = twosuperior;
lastChange = "2019-01-30 08:38:31 +0000";
layers = (
{
background = {
paths = (
{
closed = 1;
nodes = (
"103 574 OFFCURVE",
"144 593 OFFCURVE",
"191 593 CURVE SMOOTH",
"249 593 OFFCURVE",
"285 556 OFFCURVE",
"274 498 CURVE SMOOTH",
"264 447 OFFCURVE",
"223 403 OFFCURVE",
"149 340 CURVE",
"250 338 LINE",
"238 276 LINE",
"27 276 LINE",
"36 315 LINE",
"59 333 OFFCURVE",
"76 346 OFFCURVE",
"107 368 CURVE",
"160 414 OFFCURVE",
"195 450 OFFCURVE",
"199 473 CURVE SMOOTH",
"206 508 OFFCURVE",
"192 525 OFFCURVE",
"157 525 CURVE SMOOTH",
"130 525 OFFCURVE",
"105 514 OFFCURVE",
"86 505 CURVE",
"79 562 LINE"
);
}
);
};
layerId = "CFA4B904-E3F1-48B6-A7F6-47DC1FF2A3E1";
paths = (
{
closed = 1;
nodes = (
"96 578 OFFCURVE",
"124 591 OFFCURVE",
"171 591 CURVE SMOOTH",
"232 591 OFFCURVE",
"264 545 OFFCURVE",
"264 500 CURVE SMOOTH",
"264 450 OFFCURVE",
"228 399 OFFCURVE",
"149 333 CURVE",
"249 333 LINE",
"237 276 LINE",
"30 276 LINE",
"30 315 LINE",
"89 358 OFFCURVE",
"195 424 OFFCURVE",
"195 490 CURVE SMOOTH",
"195 514 OFFCURVE",
"180 526 OFFCURVE",
"151 526 CURVE SMOOTH",
"124 526 OFFCURVE",
"99 514 OFFCURVE",
"80 505 CURVE",
"72 567 LINE"
);
}
);
width = 284;
}
);
unicode = 00B2;
},
{
glyphname = threesuperior;
lastChange = "2019-01-30 08:38:31 +0000";
layers = (
{
background = {
paths = (
{
closed = 1;
nodes = (
"157 466 LINE SMOOTH",
"189 466 OFFCURVE",
"207 472 OFFCURVE",
"211 494 CURVE SMOOTH",
"216 517 OFFCURVE",
"201 528 OFFCURVE",
"179 528 CURVE SMOOTH",
"158 528 OFFCURVE",
"130 520 OFFCURVE",
"104 508 CURVE",
"95 567 LINE",
"127 582 OFFCURVE",
"162 596 OFFCURVE",
"201 596 CURVE SMOOTH",
"261 596 OFFCURVE",
"295 568 OFFCURVE",
"284 511 CURVE SMOOTH",
"278 480 OFFCURVE",
"252 453 OFFCURVE",
"231 439 CURVE",
"252 426 OFFCURVE",
"273 401 OFFCURVE",
"267 370 CURVE SMOOTH",
"254 303 OFFCURVE",
"194 272 OFFCURVE",
"127 272 CURVE SMOOTH",
"100 272 OFFCURVE",
"55 280 OFFCURVE",
"33 292 CURVE",
"71 357 LINE",
"83 352 OFFCURVE",
"117 340 OFFCURVE",
"149 340 CURVE SMOOTH",
"178 340 OFFCURVE",
"190 348 OFFCURVE",
"193 365 CURVE SMOOTH",
"198 393 OFFCURVE",
"178 404 OFFCURVE",
"141 404 CURVE SMOOTH",
"119 404 LINE",
"131 466 LINE"
);
}
);
};
layerId = "CFA4B904-E3F1-48B6-A7F6-47DC1FF2A3E1";
paths = (
{
closed = 1;
nodes = (
"155 465 LINE SMOOTH",
"198 465 OFFCURVE",
"210 477 OFFCURVE",
"210 502 CURVE SMOOTH",
"210 519 OFFCURVE",
"196 527 OFFCURVE",
"177 527 CURVE SMOOTH",
"156 527 OFFCURVE",
"128 519 OFFCURVE",
"102 507 CURVE",
"92 570 LINE",
"124 585 OFFCURVE",
"156 595 OFFCURVE",
"186 595 CURVE SMOOTH",
"238 595 OFFCURVE",
"278 571 OFFCURVE",
"278 522 CURVE SMOOTH",
"278 481 OFFCURVE",
"260 459 OFFCURVE",
"227 435 CURVE",
"245 424 OFFCURVE",
"261 393 OFFCURVE",
"261 367 CURVE SMOOTH",
"261 319 OFFCURVE",
"233 273 OFFCURVE",
"136 273 CURVE SMOOTH",
"99 273 OFFCURVE",
"57 288 OFFCURVE",
"35 297 CURVE",
"70 356 LINE",
"81 351 OFFCURVE",
"111 339 OFFCURVE",
"143 339 CURVE SMOOTH",
"181 339 OFFCURVE",
"192 351 OFFCURVE",
"192 374 CURVE SMOOTH",
"192 395 OFFCURVE",
"171 403 OFFCURVE",
"139 403 CURVE SMOOTH",
"117 403 LINE",
"129 465 LINE"
);
}
);
width = 308;
}
);
unicode = 00B3;
},
{
glyphname = "a-deva";
lastChange = "2019-01-30 08:38:31 +0000";
layers = (
{
anchors = (
{
name = top;
position = "{507, 447}";
}
);
background = {
paths = (
{
closed = 1;
nodes = (
"394 167 OFFCURVE",
"388 189 OFFCURVE",
"367 209 CURVE SMOOTH",
"348 227 OFFCURVE",
"327 243 OFFCURVE",
"307 250 CURVE",
"356 272 OFFCURVE",
"379 309 OFFCURVE",
"379 353 CURVE SMOOTH",
"379 413 OFFCURVE",
"330 457 OFFCURVE",
"258 457 CURVE SMOOTH",
"196 457 OFFCURVE",
"158 423 OFFCURVE",
"138 407 CURVE",
"168 366 LINE",
"189 385 OFFCURVE",
"213 406 OFFCURVE",
"257 406 CURVE SMOOTH",
"297 406 OFFCURVE",
"327 386 OFFCURVE",
"327 347 CURVE SMOOTH",
"327 326 OFFCURVE",
"322 274 OFFCURVE",
"218 275 CURVE SMOOTH",
"195 275 LINE",
"195 226 LINE",
"214 226 LINE",
"322 230 OFFCURVE",
"342 187 OFFCURVE",
"342 147 CURVE SMOOTH",
"342 100 OFFCURVE",
"305 77 OFFCURVE",
"257 77 CURVE SMOOTH",
"184 77 OFFCURVE",
"142 127 OFFCURVE",
"98 207 CURVE",
"54 180 LINE",
"110 81 OFFCURVE",
"163 25 OFFCURVE",
"258 25 CURVE SMOOTH",
"334 25 OFFCURVE",
"394 74 OFFCURVE",
"394 137 CURVE SMOOTH"
);
},
{
closed = 1;
nodes = (
"485 246 OFFCURVE",
"463 230 OFFCURVE",
"411 230 CURVE SMOOTH",
"382 230 OFFCURVE",
"349 239 OFFCURVE",
"307 257 CURVE",
"289 236 LINE",
"335 194 OFFCURVE",
"383 182 OFFCURVE",
"424 182 CURVE SMOOTH",
"480 182 OFFCURVE",
"521 205 OFFCURVE",
"521 205 CURVE",
"519 264 LINE"
);
},
{
closed = 1;
nodes = (
"412 187 OFFCURVE",
"398 199 OFFCURVE",
"377 219 CURVE SMOOTH",
"358 237 OFFCURVE",
"337 244 OFFCURVE",
"317 251 CURVE",
"361 263 OFFCURVE",
"395 299 OFFCURVE",
"395 353 CURVE SMOOTH",
"395 419 OFFCURVE",
"349 472 OFFCURVE",
"266 472 CURVE SMOOTH",
"192 472 OFFCURVE",
"150 434 OFFCURVE",
"130 418 CURVE",
"174 357 LINE",
"195 375 OFFCURVE",
"218 395 OFFCURVE",
"258 395 CURVE SMOOTH",
"298 395 OFFCURVE",
"317 376 OFFCURVE",
"317 347 CURVE SMOOTH",
"317 326 OFFCURVE",
"309 287 OFFCURVE",
"218 287 CURVE SMOOTH",
"195 287 LINE",
"195 216 LINE",
"214 216 LINE",
"292 220 OFFCURVE",
"332 187 OFFCURVE",
"332 147 CURVE SMOOTH",
"332 110 OFFCURVE",
"305 87 OFFCURVE",
"257 87 CURVE SMOOTH",
"187 87 OFFCURVE",
"152 133 OFFCURVE",
"108 213 CURVE",
"39 171 LINE",
"95 72 OFFCURVE",
"148 8 OFFCURVE",
"258 8 CURVE SMOOTH",
"354 8 OFFCURVE",
"412 64 OFFCURVE",
"412 137 CURVE SMOOTH"
);
},
{
closed = 1;
nodes = (
"465 214 OFFCURVE",
"417 206 OFFCURVE",
"307 257 CURVE",
"289 219 LINE",
"366 156 OFFCURVE",
"442 130 OFFCURVE",
"521 176 CURVE",
"519 257 LINE"
);
},
{
closed = 1;
nodes = (
"484 0 LINE",
"569 0 LINE",
"569 466 LINE",
"484 466 LINE"
);
},
{
closed = 1;
nodes = (
"179 466 LINE",
"179 396 LINE",
"658 396 LINE",
"658 466 LINE"
);
}
);
};
layerId = "CFA4B904-E3F1-48B6-A7F6-47DC1FF2A3E1";
paths = (
{
closed = 1;
nodes = (
"409 466 LINE",
"395 396 LINE",
"626 396 LINE",
"640 466 LINE"
);
},
{
closed = 1;
nodes = (
"377 0 LINE",
"462 0 LINE",
"553 466 LINE",
"468 466 LINE"
);
},
{
closed = 1;
nodes = (
"316 184 OFFCURVE",
"302 197 OFFCURVE",
"283 214 CURVE SMOOTH",
"270 235 OFFCURVE",
"268 243 OFFCURVE",
"252 249 CURVE",
"298 262 OFFCURVE",
"334 296 OFFCURVE",
"343 346 CURVE SMOOTH",
"357 416 OFFCURVE",
"316 466 OFFCURVE",
"240 466 CURVE",
"187 466 OFFCURVE",
"144 445 OFFCURVE",
"103 418 CURVE",
"139 355 LINE",
"163 373 OFFCURVE",
"195 393 OFFCURVE",
"227 393 CURVE SMOOTH",
"262 393 OFFCURVE",
"274 379 OFFCURVE",
"269 354 CURVE SMOOTH",
"264 329 OFFCURVE",
"250 287 OFFCURVE",
"164 287 CURVE SMOOTH",
"144 287 LINE",
"130 216 LINE",
"152 216 LINE",
"226 220 OFFCURVE",
"242 190 OFFCURVE",
"235 154 CURVE SMOOTH",
"227 113 OFFCURVE",
"197 87 OFFCURVE",
"147 87 CURVE SMOOTH",
"85 87 OFFCURVE",
"68 133 OFFCURVE",
"39 209 CURVE",
"-30 176 LINE",
"7 77 OFFCURVE",
"38 12 OFFCURVE",
"143 12 CURVE SMOOTH",
"232 12 OFFCURVE",
"292 61 OFFCURVE",
"305 130 CURVE SMOOTH"
);
},
{
closed = 1;
nodes = (
"388 216 OFFCURVE",
"338 205 OFFCURVE",
"238 256 CURVE",
"216 221 LINE",
"282 158 OFFCURVE",
"352 128 OFFCURVE",
"440 174 CURVE",
"450 259 LINE"
);
}
);
width = 616;
}
);
unicode = 0905;
},
{
glyphname = "i-deva";
lastChange = "2019-01-30 08:38:31 +0000";
layers = (
{
anchors = (
{
name = top;
position = "{289, 447}";
}
);
background = {
paths = (
{
closed = 1;
nodes = (
"2 456 LINE",
"2 408 LINE",
"430 408 LINE",
"430 456 LINE"
);
},
{
closed = 1;
nodes = (
"111 53 LINE",
"220 -99 LINE",
"269 -69 LINE",
"170 59 LINE"
);
},
{
closed = 1;
nodes = (
"209 164 OFFCURVE",
"223 165 OFFCURVE",
"236 165 CURVE SMOOTH",
"285 165 OFFCURVE",
"303 144 OFFCURVE",
"303 116 CURVE SMOOTH",
"303 77 OFFCURVE",
"260 59 OFFCURVE",
"215 59 CURVE SMOOTH",
"195 59 OFFCURVE",
"182 60 OFFCURVE",
"169 64 CURVE",
"118 131 LINE",
"77 131 OFFCURVE",
"66 109 OFFCURVE",
"66 90 CURVE SMOOTH",
"66 31 OFFCURVE",
"155 9 OFFCURVE",
"219 9 CURVE SMOOTH",
"299 9 OFFCURVE",
"357 50 OFFCURVE",
"357 115 CURVE SMOOTH",
"357 184 OFFCURVE",
"305 215 OFFCURVE",
"243 215 CURVE SMOOTH",
"229 215 OFFCURVE",
"216 214 OFFCURVE",
"203 214 CURVE SMOOTH",
"151 214 OFFCURVE",
"127 224 OFFCURVE",
"127 256 CURVE SMOOTH",
"127 282 OFFCURVE",
"151 294 OFFCURVE",
"201 294 CURVE SMOOTH",
"263 294 OFFCURVE",
"280 289 OFFCURVE",
"315 285 CURVE",
"325 292 LINE",
"325 456 LINE",
"269 456 LINE",
"269 341 LINE",
"243 344 OFFCURVE",
"237 345 OFFCURVE",
"204 345 CURVE SMOOTH",
"128 345 OFFCURVE",
"75 319 OFFCURVE",
"75 255 CURVE SMOOTH",
"75 167 OFFCURVE",
"164 164 OFFCURVE",
"194 164 CURVE SMOOTH"
);
}
);
};
layerId = "CFA4B904-E3F1-48B6-A7F6-47DC1FF2A3E1";
paths = (
{
closed = 1;
nodes = (
"208 152 OFFCURVE",
"213 136 OFFCURVE",
"211 123 CURVE SMOOTH",
"206 96 OFFCURVE",
"176 70 OFFCURVE",
"110 70 CURVE SMOOTH",
"92 70 OFFCURVE",
"84 71 OFFCURVE",
"73 75 CURVE",
"35 138 LINE",
"10 138 OFFCURVE",
"-24 131 OFFCURVE",
"-32 93 CURVE",
"-42 42 OFFCURVE",
"26 -3 OFFCURVE",
"116 -3 CURVE SMOOTH",
"210 -3 OFFCURVE",
"276 43 OFFCURVE",
"290 113 CURVE SMOOTH",
"304 186 OFFCURVE",
"255 227 OFFCURVE",
"165 223 CURVE SMOOTH",
"116 221 OFFCURVE",
"83 223 OFFCURVE",
"88 247 CURVE SMOOTH",
"92 269 OFFCURVE",
"113 279 OFFCURVE",
"165 279 CURVE SMOOTH",
"228 279 OFFCURVE",
"249 272 OFFCURVE",
"283 268 CURVE",
"293 275 LINE",
"327 456 LINE",
"251 456 LINE",
"227 348 LINE",
"206 350 OFFCURVE",
"196 351 OFFCURVE",
"161 351 CURVE SMOOTH",
"86 351 OFFCURVE",
"23 325 OFFCURVE",
"10 257 CURVE SMOOTH",
"-6 175 OFFCURVE",
"58 142 OFFCURVE",
"149 148 CURVE SMOOTH"
);
},
{
closed = 1;
nodes = (
"-10 466 LINE",
"-24 396 LINE",
"401 396 LINE",
"415 466 LINE"
);
},
{
closed = 1;
nodes = (
"14 47 LINE",
"90 -119 LINE",
"167 -74 LINE",
"74 59 LINE"
);
}
);
width = 391;
}
);
unicode = 0907;
},
{
glyphname = "u-deva";
lastChange = "2019-01-30 08:38:31 +0000";
layers = (
{
anchors = (
{
name = top;
position = "{283, 447}";
}
);
background = {
paths = (
{
closed = 1;
nodes = (
"8 456 LINE",
"8 408 LINE",
"485 408 LINE",
"485 456 LINE"
);
},
{
closed = 1;
nodes = (
"390 194 OFFCURVE",
"359 226 OFFCURVE",
"312 242 CURVE",
"357 265 OFFCURVE",
"375 296 OFFCURVE",
"375 339 CURVE SMOOTH",
"375 373 OFFCURVE",
"363 403 OFFCURVE",
"330 424 CURVE SMOOTH",
"299 444 OFFCURVE",
"249 456 OFFCURVE",
"214 456 CURVE",
"262 408 LINE",
"308 400 OFFCURVE",
"326 378 OFFCURVE",
"326 339 CURVE SMOOTH",
"326 313 OFFCURVE",
"318 264 OFFCURVE",
"214 265 CURVE SMOOTH",
"201 265 LINE",
"201 216 LINE",
"210 216 LINE",
"318 220 OFFCURVE",
"338 177 OFFCURVE",
"338 132 CURVE SMOOTH",
"338 80 OFFCURVE",
"301 57 OFFCURVE",
"253 57 CURVE SMOOTH",
"180 57 OFFCURVE",
"138 107 OFFCURVE",
"94 187 CURVE",
"50 160 LINE",
"106 61 OFFCURVE",
"159 5 OFFCURVE",
"254 5 CURVE SMOOTH",
"330 5 OFFCURVE",
"390 54 OFFCURVE",
"390 126 CURVE SMOOTH"
);
},
{
closed = 1;
nodes = (
"426 206 OFFCURVE",
"384 231 OFFCURVE",
"329 246 CURVE",
"373 258 OFFCURVE",
"409 299 OFFCURVE",
"409 353 CURVE SMOOTH",
"409 401 OFFCURVE",
"387 440 OFFCURVE",
"344 460 CURVE",
"269 396 LINE",
"309 396 OFFCURVE",
"329 376 OFFCURVE",
"329 347 CURVE SMOOTH",
"329 326 OFFCURVE",
"321 285 OFFCURVE",
"230 285 CURVE SMOOTH",
"207 285 LINE",
"207 209 LINE",
"226 209 LINE",
"294 213 OFFCURVE",
"344 187 OFFCURVE",
"344 140 CURVE SMOOTH",
"344 110 OFFCURVE",
"317 87 OFFCURVE",
"269 87 CURVE SMOOTH",
"199 87 OFFCURVE",
"163 132 OFFCURVE",
"119 212 CURVE",
"49 171 LINE",
"105 72 OFFCURVE",
"160 5 OFFCURVE",
"270 5 CURVE SMOOTH",
"366 5 OFFCURVE",
"426 64 OFFCURVE",
"426 137 CURVE SMOOTH"
);
},
{
closed = 1;
nodes = (
"8 466 LINE",
"8 396 LINE",
"521 396 LINE",
"521 466 LINE"
);
}
);
};
layerId = "CFA4B904-E3F1-48B6-A7F6-47DC1FF2A3E1";
paths = (
{
closed = 1;
nodes = (
"-8 466 LINE",
"-22 396 LINE",
"451 396 LINE",
"465 466 LINE"
);
},
{
closed = 1;
nodes = (
"333 182 OFFCURVE",
"305 229 OFFCURVE",
"270 244 CURVE",
"315 261 OFFCURVE",
"350 293 OFFCURVE",
"358 334 CURVE SMOOTH",
"375 421 OFFCURVE",
"299 466 OFFCURVE",
"223 466 CURVE",
"170 466 OFFCURVE",
"152 445 OFFCURVE",
"111 418 CURVE",
"239 396 LINE",
"276 396 OFFCURVE",
"292 379 OFFCURVE",
"287 354 CURVE SMOOTH",
"282 329 OFFCURVE",
"262 282 OFFCURVE",
"176 282 CURVE SMOOTH",
"156 282 LINE",
"142 211 LINE",
"164 211 LINE",
"238 215 OFFCURVE",
"258 178 OFFCURVE",
"251 142 CURVE SMOOTH",
"243 101 OFFCURVE",
"207 74 OFFCURVE",
"157 74 CURVE SMOOTH",
"90 74 OFFCURVE",
"72 119 OFFCURVE",
"43 195 CURVE",
"-24 164 LINE",
"13 65 OFFCURVE",
"49 0 OFFCURVE",
"154 0 CURVE SMOOTH",
"243 0 OFFCURVE",
"309 55 OFFCURVE",
"321 118 CURVE SMOOTH"
);
}
);
width = 441;
}
);
unicode = 0909;
},
{
glyphname = "uu-deva";
lastChange = "2019-01-30 08:38:31 +0000";
layers = (
{
anchors = (
{
name = top;
position = "{283, 447}";
}
);
background = {
paths = (
{
closed = 1;
nodes = (
"18 456 LINE",
"18 408 LINE",
"648 408 LINE",
"648 456 LINE"
);
},
{
closed = 1;
nodes = (
"370 141 OFFCURVE",
"376 155 OFFCURVE",
"387 170 CURVE SMOOTH",
"405 195 OFFCURVE",
"436 227 OFFCURVE",
"474 227 CURVE SMOOTH",
"515 227 OFFCURVE",
"526 198 OFFCURVE",
"526 175 CURVE SMOOTH",
"526 130 OFFCURVE",
"497 112 OFFCURVE",
"471 91 CURVE",
"471 91 OFFCURVE",
"505 53 OFFCURVE",
"505 53 CURVE",
"536 75 OFFCURVE",
"578 113 OFFCURVE",
"578 175 CURVE SMOOTH",
"578 238 OFFCURVE",
"531 277 OFFCURVE",
"472 277 CURVE SMOOTH",
"408 277 OFFCURVE",
"354 210 OFFCURVE",
"354 210 CURVE",
"370 141 LINE"
);
},
{
closed = 1;
nodes = (
"400 194 OFFCURVE",
"369 226 OFFCURVE",
"322 242 CURVE",
"367 265 OFFCURVE",
"385 296 OFFCURVE",
"385 339 CURVE SMOOTH",
"385 373 OFFCURVE",
"373 403 OFFCURVE",
"340 424 CURVE SMOOTH",
"309 444 OFFCURVE",
"259 456 OFFCURVE",
"224 456 CURVE",
"272 408 LINE",
"318 400 OFFCURVE",
"336 378 OFFCURVE",
"336 339 CURVE SMOOTH",
"336 313 OFFCURVE",
"328 264 OFFCURVE",
"224 265 CURVE SMOOTH",
"211 265 LINE",
"211 216 LINE",
"220 216 LINE",
"328 220 OFFCURVE",
"348 177 OFFCURVE",
"348 132 CURVE SMOOTH",
"348 80 OFFCURVE",
"311 57 OFFCURVE",
"263 57 CURVE SMOOTH",
"190 57 OFFCURVE",
"148 107 OFFCURVE",
"104 187 CURVE",
"60 160 LINE",
"116 61 OFFCURVE",
"169 5 OFFCURVE",
"264 5 CURVE SMOOTH",
"340 5 OFFCURVE",
"400 54 OFFCURVE",
"400 126 CURVE SMOOTH"
);
},
{
closed = 1;
nodes = (
"426 206 OFFCURVE",
"374 235 OFFCURVE",
"329 246 CURVE",
"373 258 OFFCURVE",
"409 299 OFFCURVE",
"409 353 CURVE SMOOTH",
"409 401 OFFCURVE",
"387 440 OFFCURVE",
"344 460 CURVE",
"269 396 LINE",
"309 396 OFFCURVE",
"329 376 OFFCURVE",
"329 347 CURVE SMOOTH",
"329 326 OFFCURVE",
"321 285 OFFCURVE",
"230 285 CURVE SMOOTH",
"207 285 LINE",
"207 209 LINE",
"226 209 LINE",
"294 213 OFFCURVE",
"344 187 OFFCURVE",
"344 140 CURVE SMOOTH",
"344 110 OFFCURVE",
"317 87 OFFCURVE",
"269 87 CURVE SMOOTH",
"199 87 OFFCURVE",
"163 132 OFFCURVE",
"119 212 CURVE",
"49 171 LINE",
"105 72 OFFCURVE",
"160 5 OFFCURVE",
"270 5 CURVE SMOOTH",
"366 5 OFFCURVE",
"426 64 OFFCURVE",
"426 137 CURVE SMOOTH"
);
},
{
closed = 1;
nodes = (
"8 466 LINE",
"8 396 LINE",
"656 396 LINE",
"656 466 LINE"
);
},
{
closed = 1;
nodes = (
"386 148 LINE",
"404 173 OFFCURVE",
"435 212 OFFCURVE",
"473 212 CURVE SMOOTH",
"503 212 OFFCURVE",
"517 193 OFFCURVE",
"517 170 CURVE SMOOTH",
"517 128 OFFCURVE",
"492 111 OFFCURVE",
"466 90 CURVE",
"466 90 OFFCURVE",
"514 38 OFFCURVE",
"514 38 CURVE",
"544 60 OFFCURVE",
"590 98 OFFCURVE",
"590 170 CURVE SMOOTH",
"590 243 OFFCURVE",
"539 284 OFFCURVE",
"477 284 CURVE SMOOTH",
"402 284 OFFCURVE",
"352 218 OFFCURVE",
"352 218 CURVE"
);
}
);
};
layerId = "CFA4B904-E3F1-48B6-A7F6-47DC1FF2A3E1";
paths = (
{
closed = 1;
nodes = (
"-8 466 LINE",
"-22 396 LINE",
"597 396 LINE",
"611 466 LINE"
);
},
{
closed = 1;
nodes = (
"310 147 LINE",
"333 172 OFFCURVE",
"363 214 OFFCURVE",
"403 214 CURVE SMOOTH",
"431 214 OFFCURVE",
"438 196 OFFCURVE",
"434 177 CURVE SMOOTH",
"426 131 OFFCURVE",
"395 112 OFFCURVE",
"367 93 CURVE",
"369 91 OFFCURVE",
"403 40 OFFCURVE",
"404 38 CURVE",
"440 58 OFFCURVE",
"491 99 OFFCURVE",
"504 163 CURVE SMOOTH",
"519 240 OFFCURVE",
"474 284 OFFCURVE",
"410 284 CURVE SMOOTH",
"337 284 OFFCURVE",
"286 215 OFFCURVE",
"286 215 CURVE"
);
},
{
closed = 1;
nodes = (
"333 182 OFFCURVE",
"305 229 OFFCURVE",
"270 244 CURVE",
"315 261 OFFCURVE",
"350 293 OFFCURVE",
"358 334 CURVE SMOOTH",
"375 421 OFFCURVE",
"299 466 OFFCURVE",
"223 466 CURVE",
"170 466 OFFCURVE",
"152 445 OFFCURVE",
"111 418 CURVE",
"239 396 LINE",
"276 396 OFFCURVE",
"292 379 OFFCURVE",
"287 354 CURVE SMOOTH",
"282 329 OFFCURVE",
"262 282 OFFCURVE",
"176 282 CURVE SMOOTH",
"156 282 LINE",
"142 211 LINE",
"164 211 LINE",
"238 215 OFFCURVE",
"258 178 OFFCURVE",
"251 142 CURVE SMOOTH",
"243 101 OFFCURVE",
"207 74 OFFCURVE",
"157 74 CURVE SMOOTH",
"90 74 OFFCURVE",
"72 119 OFFCURVE",
"43 195 CURVE",
"-24 164 LINE",
"13 65 OFFCURVE",
"49 0 OFFCURVE",
"154 0 CURVE SMOOTH",
"243 0 OFFCURVE",
"309 55 OFFCURVE",
"321 118 CURVE SMOOTH"
);
}
);
width = 587;
}
);
unicode = 090A;
},
{
glyphname = "rVocalic-deva";
lastChange = "2019-01-30 08:38:31 +0000";
layers = (
{
anchors = (
{
name = top;
position = "{357, 447}";
}
);
background = {
paths = (
{
closed = 1;
nodes = (
"684 408 LINE",
"6 408 LINE",
"6 456 LINE",
"684 456 LINE"
);
},
{
closed = 1;
nodes = (
"396 456 LINE",
"396 0 LINE",
"340 0 LINE",
"340 456 LINE"
);
},
{
closed = 1;
nodes = (
"325 234 LINE",
"360 193 LINE",
"360 193 OFFCURVE",
"148 12 OFFCURVE",
"148 12 CURVE SMOOTH",
"148 12 OFFCURVE",
"110 52 OFFCURVE",
"110 52 CURVE"
);
},
{
closed = 1;
nodes = (
"348 169 LINE",
"338 182 OFFCURVE",
"326 201 OFFCURVE",
"315 215 CURVE SMOOTH",
"284 253 OFFCURVE",
"247 283 OFFCURVE",
"207 283 CURVE",
"161 285 OFFCURVE",
"123 244 OFFCURVE",
"89 209 CURVE",
"49 246 LINE",
"96 296 OFFCURVE",
"138 337 OFFCURVE",
"209 337 CURVE",
"266 337 OFFCURVE",
"312 302 OFFCURVE",
"364 242 CURVE"
);
},
{
closed = 1;
nodes = (
"392 243 OFFCURVE",
"417 221 OFFCURVE",
"459 221 CURVE",
"495 221 OFFCURVE",
"518 241 OFFCURVE",
"530 265 CURVE",
"558 218 LINE",
"533 188 OFFCURVE",
"499 172 OFFCURVE",
"460 172 CURVE",
"418 172 OFFCURVE",
"401 183 OFFCURVE",
"369 201 CURVE",
"369 255 LINE"
);
},
{
closed = 1;
nodes = (
"560 273 LINE",
"630 149 LINE",
"581 140 LINE",
"524 242 LINE"
);
},
{
closed = 1;
nodes = (
"519 247 LINE",
"474 314 LINE",
"487 329 OFFCURVE",
"506 342 OFFCURVE",
"531 342 CURVE",
"555 342 OFFCURVE",
"581 318 OFFCURVE",
"581 280 CURVE SMOOTH",
"581 258 OFFCURVE",
"574 242 OFFCURVE",
"555 222 CURVE"
);
},
{
closed = 1;
nodes = (
"519 -21 OFFCURVE",
"488 18 OFFCURVE",
"488 63 CURVE SMOOTH",
"488 109 OFFCURVE",
"526 149 OFFCURVE",
"597 149 CURVE",
"630 149 LINE",
"630 148 LINE",
"616 104 LINE",
"597 104 LINE",
"558 104 OFFCURVE",
"536 88 OFFCURVE",
"536 64 CURVE SMOOTH",
"536 35 OFFCURVE",
"556 23 OFFCURVE",
"583 23 CURVE",
"602 23 OFFCURVE",
"620 29 OFFCURVE",
"630 34 CURVE",
"648 -6 LINE",
"629 -16 OFFCURVE",
"608 -21 OFFCURVE",
"583 -21 CURVE"
);
}
);
};
layerId = "CFA4B904-E3F1-48B6-A7F6-47DC1FF2A3E1";
paths = (
{
closed = 1;
nodes = (
"-10 466 LINE",
"-24 396 LINE",
"684 396 LINE",
"698 466 LINE"
);
},
{
closed = 1;
nodes = (
"228 0 LINE",
"310 0 LINE",
"401 466 LINE",
"319 466 LINE"
);
},
{
closed = 1;
nodes = (
"21 61 OFFCURVE",
"63 0 OFFCURVE",
"65 2 CURVE SMOOTH",
"67 0 OFFCURVE",
"313 189 OFFCURVE",
"313 189 CURVE",
"265 239 LINE",
"20 61 LINE"
);
},
{
closed = 1;
nodes = (
"285 307 OFFCURVE",
"236 343 OFFCURVE",
"182 343 CURVE",
"104 343 OFFCURVE",
"47 296 OFFCURVE",
"-8 249 CURVE",
"47 188 LINE",
"87 222 OFFCURVE",
"127 262 OFFCURVE",
"175 260 CURVE",
"216 260 OFFCURVE",
"241 239 OFFCURVE",
"266 203 CURVE SMOOTH",
"271 187 OFFCURVE",
"288 179 OFFCURVE",
"295 166 CURVE",
"326 247 LINE"
);
},
{
closed = 1;
nodes = (
"303 199 LINE",
"331 181 OFFCURVE",
"347 168 OFFCURVE",
"401 168 CURVE",
"438 168 OFFCURVE",
"485 187 OFFCURVE",
"516 217 CURVE",
"488 291 LINE",
"472 267 OFFCURVE",
"443 244 OFFCURVE",
"396 244 CURVE",
"355 244 OFFCURVE",
"334 264 OFFCURVE",
"314 276 CURVE"
);
},
{
closed = 1;
nodes = (
"497 149 LINE",
"568 158 LINE",
"522 282 LINE",
"459 251 LINE"
);
},
{
closed = 1;
nodes = (
"531 227 OFFCURVE",
"551 242 OFFCURVE",
"559 280 CURVE SMOOTH",
"566 318 OFFCURVE",
"542 346 OFFCURVE",
"507 346 CURVE",
"474 346 OFFCURVE",
"447 331 OFFCURVE",
"432 320 CURVE",
"459 256 LINE",
"509 207 LINE"
);
},
{
closed = 1;
nodes = (
"507 -30 OFFCURVE",
"536 -24 OFFCURVE",
"557 -14 CURVE",
"537 54 LINE",
"527 49 OFFCURVE",
"505 42 OFFCURVE",
"489 42 CURVE",
"468 42 OFFCURVE",
"458 48 OFFCURVE",
"462 66 CURVE SMOOTH",
"466 89 OFFCURVE",
"491 102 OFFCURVE",
"520 102 CURVE",
"541 102 LINE",
"569 157 LINE",
"569 158 LINE",
"526 171 LINE",
"451 171 OFFCURVE",
"402 131 OFFCURVE",
"391 79 CURVE SMOOTH",
"379 16 OFFCURVE",
"408 -30 OFFCURVE",
"483 -30 CURVE"
);
}
);
width = 674;
}
);
unicode = 090B;
},
{
glyphname = "rrVocalic-deva";
lastChange = "2019-01-30 08:38:31 +0000";
layers = (
{
anchors = (
{
name = top;
position = "{357, 447}";
}
);
background = {
paths = (
{
closed = 1;
nodes = (
"617 -30 OFFCURVE",
"646 -22 OFFCURVE",
"665 -12 CURVE",
"636 52 LINE",
"626 47 OFFCURVE",
"607 42 OFFCURVE",
"593 42 CURVE",
"570 42 OFFCURVE",
"556 51 OFFCURVE",
"556 73 CURVE SMOOTH",
"556 92 OFFCURVE",
"575 102 OFFCURVE",
"604 102 CURVE",
"627 102 LINE",
"645 157 LINE",
"645 158 LINE",
"603 171 LINE",
"528 171 OFFCURVE",
"483 128 OFFCURVE",
"483 72 CURVE SMOOTH",
"483 13 OFFCURVE",
"518 -30 OFFCURVE",
"591 -30 CURVE"
);
},
{
closed = 1;
nodes = (
"627 -163 OFFCURVE",
"656 -155 OFFCURVE",
"675 -145 CURVE",
"646 -81 LINE",
"636 -86 OFFCURVE",
"617 -91 OFFCURVE",
"603 -91 CURVE",
"580 -91 OFFCURVE",
"566 -82 OFFCURVE",
"566 -60 CURVE SMOOTH",
"566 -41 OFFCURVE",
"585 -31 OFFCURVE",
"614 -31 CURVE",
"637 -31 LINE",
"655 24 LINE",
"655 25 LINE",
"613 38 LINE",
"538 38 OFFCURVE",
"493 -5 OFFCURVE",
"493 -61 CURVE SMOOTH",
"493 -120 OFFCURVE",
"528 -163 OFFCURVE",
"601 -163 CURVE"
);
}
);
};
layerId = "CFA4B904-E3F1-48B6-A7F6-47DC1FF2A3E1";
paths = (
{
closed = 1;
nodes = (
"-10 466 LINE",
"-24 396 LINE",
"684 396 LINE",
"698 466 LINE"
);
},
{
closed = 1;
nodes = (
"228 0 LINE",
"310 0 LINE",
"401 466 LINE",
"319 466 LINE"
);
},
{
closed = 1;
nodes = (
"21 61 OFFCURVE",
"63 0 OFFCURVE",
"65 2 CURVE SMOOTH",
"67 0 OFFCURVE",
"313 189 OFFCURVE",
"313 189 CURVE",
"265 239 LINE",
"20 61 LINE"
);
},
{
closed = 1;
nodes = (
"285 307 OFFCURVE",
"236 343 OFFCURVE",
"182 343 CURVE",
"104 343 OFFCURVE",
"47 296 OFFCURVE",
"-8 249 CURVE",
"47 188 LINE",
"87 222 OFFCURVE",
"127 262 OFFCURVE",
"175 260 CURVE",
"216 260 OFFCURVE",
"241 239 OFFCURVE",
"266 203 CURVE SMOOTH",
"271 187 OFFCURVE",
"288 179 OFFCURVE",
"295 166 CURVE",
"326 247 LINE"
);
},
{
closed = 1;
nodes = (
"303 199 LINE",
"331 181 OFFCURVE",
"347 168 OFFCURVE",
"401 168 CURVE",
"438 168 OFFCURVE",
"485 187 OFFCURVE",
"516 217 CURVE",
"488 291 LINE",
"472 267 OFFCURVE",
"443 244 OFFCURVE",
"396 244 CURVE",
"355 244 OFFCURVE",
"334 264 OFFCURVE",
"314 276 CURVE"
);
},
{
closed = 1;
nodes = (
"497 149 LINE",
"568 158 LINE",
"522 282 LINE",
"459 251 LINE"
);
},
{
closed = 1;
nodes = (
"531 227 OFFCURVE",
"551 242 OFFCURVE",
"559 280 CURVE SMOOTH",
"566 318 OFFCURVE",
"542 346 OFFCURVE",
"507 346 CURVE",
"474 346 OFFCURVE",
"447 331 OFFCURVE",
"432 320 CURVE",
"459 256 LINE",
"509 207 LINE"
);
},
{
closed = 1;
nodes = (
"520 -76 LINE",
"510 -81 OFFCURVE",
"490 -88 OFFCURVE",
"474 -88 CURVE SMOOTH",
"453 -88 OFFCURVE",
"443 -82 OFFCURVE",
"447 -64 CURVE SMOOTH",
"451 -41 OFFCURVE",
"476 -28 OFFCURVE",
"505 -28 CURVE SMOOTH",
"525 -28 LINE",
"538 40 LINE",
"511 40 LINE",
"468 40 OFFCURVE",
"458 48 OFFCURVE",
"462 66 CURVE SMOOTH",
"466 89 OFFCURVE",
"491 102 OFFCURVE",
"520 102 CURVE SMOOTH",
"541 102 LINE",
"569 157 LINE",
"569 158 LINE",
"526 171 LINE",
"451 171 OFFCURVE",
"401 129 OFFCURVE",
"392 84 CURVE SMOOTH",
"384 39 OFFCURVE",
"402 18 OFFCURVE",
"418 1 CURVE",
"397 -14 OFFCURVE",
"380 -33 OFFCURVE",
"374 -63 CURVE SMOOTH",
"364 -114 OFFCURVE",
"393 -159 OFFCURVE",
"468 -159 CURVE SMOOTH",
"492 -159 OFFCURVE",
"520 -153 OFFCURVE",
"541 -143 CURVE"
);
}
);
width = 674;
}
);
unicode = 0960;
},
{
glyphname = "lVocalic-deva";
lastChange = "2019-01-30 08:38:31 +0000";
layers = (
{
anchors = (
{
name = top;
position = "{394, 447}";
}
);
background = {
paths = (
{
closed = 1;
nodes = (
"388 270 LINE",
"444 270 LINE",
"444 456 LINE",
"388 456 LINE"
);
},
{
closed = 1;
nodes = (
"6 456 LINE",
"6 408 LINE",
"584 408 LINE",
"584 456 LINE"
);
},
{
closed = 1;
nodes = (
"305 268 OFFCURVE",
"264 310 OFFCURVE",
"207 310 CURVE SMOOTH",
"124 310 OFFCURVE",
"74 253 OFFCURVE",
"74 172 CURVE SMOOTH",
"74 74 OFFCURVE",
"167 -12 OFFCURVE",
"167 -12 CURVE",
"220 11 LINE",
"197 36 OFFCURVE",
"131 102 OFFCURVE",
"131 172 CURVE SMOOTH",
"131 221 OFFCURVE",
"159 256 OFFCURVE",
"206 256 CURVE SMOOTH",
"260 256 OFFCURVE",
"285 182 OFFCURVE",
"285 182 CURVE",
"322 227 LINE"
);
},
{
closed = 1;
nodes = (
"479 -62 OFFCURVE",
"509 -46 OFFCURVE",
"532 -27 CURVE",
"506 17 LINE",
"493 7 OFFCURVE",
"468 -11 OFFCURVE",
"447 -11 CURVE SMOOTH",
"420 -11 OFFCURVE",
"406 2 OFFCURVE",
"406 26 CURVE SMOOTH",
"406 60 OFFCURVE",
"430 68 OFFCURVE",
"460 91 CURVE SMOOTH",
"491 115 OFFCURVE",
"515 142 OFFCURVE",
"516 190 CURVE SMOOTH",
"517 249 OFFCURVE",
"471 308 OFFCURVE",
"395 308 CURVE SMOOTH",
"329 308 OFFCURVE",
"265 266 OFFCURVE",
"265 164 CURVE SMOOTH",
"265 154 OFFCURVE",
"267 128 OFFCURVE",
"269 118 CURVE",
"322 110 LINE",
"321 120 OFFCURVE",
"318 140 OFFCURVE",
"318 162 CURVE SMOOTH",
"318 217 OFFCURVE",
"344 257 OFFCURVE",
"392 256 CURVE SMOOTH",
"441 256 OFFCURVE",
"462 221 OFFCURVE",
"462 189 CURVE SMOOTH",
"462 153 OFFCURVE",
"434 136 OFFCURVE",
"417 124 CURVE SMOOTH",
"385 101 OFFCURVE",
"352 76 OFFCURVE",
"352 23 CURVE SMOOTH",
"352 -19 OFFCURVE",
"378 -62 OFFCURVE",
"442 -62 CURVE SMOOTH"
);
},
{
closed = 1;
nodes = (
"388 270 LINE",
"444 270 LINE",
"444 456 LINE",
"388 456 LINE"
);
},
{
closed = 1;
nodes = (
"6 456 LINE",
"6 408 LINE",
"584 408 LINE",
"584 456 LINE"
);
},
{
closed = 1;
nodes = (
"305 268 OFFCURVE",
"264 310 OFFCURVE",
"207 310 CURVE SMOOTH",
"124 310 OFFCURVE",
"74 253 OFFCURVE",
"74 172 CURVE SMOOTH",
"74 74 OFFCURVE",
"167 -12 OFFCURVE",
"167 -12 CURVE",
"220 11 LINE",
"197 36 OFFCURVE",
"131 102 OFFCURVE",
"131 172 CURVE SMOOTH",
"131 221 OFFCURVE",
"159 256 OFFCURVE",
"206 256 CURVE SMOOTH",
"260 256 OFFCURVE",
"285 182 OFFCURVE",
"285 182 CURVE",
"322 227 LINE"
);
}
);
};
layerId = "CFA4B904-E3F1-48B6-A7F6-47DC1FF2A3E1";
paths = (
{
closed = 1;
nodes = (
"318 260 LINE",
"398 260 LINE",
"438 466 LINE",
"358 466 LINE"
);
},
{
closed = 1;
nodes = (
"-10 466 LINE",
"-24 396 LINE",
"579 396 LINE",
"593 466 LINE"
);
},
{
closed = 1;
nodes = (
"253 274 OFFCURVE",
"220 311 OFFCURVE",
"153 311 CURVE SMOOTH",
"80 311 OFFCURVE",
"18 262 OFFCURVE",
"2 179 CURVE SMOOTH",
"-18 77 OFFCURVE",
"59 -22 OFFCURVE",
"59 -22 CURVE",
"139 10 LINE",
"121 32 OFFCURVE",
"70 108 OFFCURVE",
"81 162 CURVE SMOOTH",
"89 205 OFFCURVE",
"113 230 OFFCURVE",
"157 230 CURVE SMOOTH",
"196 230 OFFCURVE",
"206 185 OFFCURVE",
"206 185 CURVE",
"274 233 LINE"
);
},
{
closed = 1;
nodes = (
"443 105 OFFCURVE",
"458 184 CURVE SMOOTH",
"472 258 OFFCURVE",
"428 309 OFFCURVE",
"342 309 CURVE",
"262 309 OFFCURVE",
"206 276 OFFCURVE",
"186 176 CURVE SMOOTH",
"184 162 OFFCURVE",
"180 131 OFFCURVE",
"179 124 CURVE",
"178 121 OFFCURVE",
"253 108 OFFCURVE",
"253 105 CURVE",
"253 112 OFFCURVE",
"256 137 OFFCURVE",
"259 155 CURVE SMOOTH",
"269 204 OFFCURVE",
"296 232 OFFCURVE",
"334 231 CURVE",
"372 231 OFFCURVE",
"382 217 OFFCURVE",
"377 192 CURVE SMOOTH",
"372 162 OFFCURVE",
"342 144 OFFCURVE",
"315 121 CURVE SMOOTH",
"292 96 OFFCURVE",
"270 71 OFFCURVE",
"263 36 CURVE SMOOTH",
"254 -13 OFFCURVE",
"279 -66 OFFCURVE",
"351 -66 CURVE SMOOTH",
"391 -66 OFFCURVE",
"426 -49 OFFCURVE",
"452 -30 CURVE",
"422 35 LINE",
"408 27 OFFCURVE",
"388 8 OFFCURVE",
"359 8 CURVE SMOOTH",
"345 8 OFFCURVE",
"339 14 OFFCURVE",
"341 27 CURVE SMOOTH",
"350 74 OFFCURVE"
);
}
);
width = 569;
}
);
unicode = 090C;
},
{
glyphname = "llVocalic-deva";
lastChange = "2019-01-30 08:38:31 +0000";
layers = (
{
anchors = (
{
name = top;
position = "{394, 447}";
}
);
background = {
paths = (
{
closed = 1;
nodes = (
"408 270 LINE",
"464 270 LINE",
"464 456 LINE",
"408 456 LINE"
);
},
{
closed = 1;
nodes = (
"26 456 LINE",
"26 408 LINE",
"604 408 LINE",
"604 456 LINE"
);
},
{
closed = 1;
nodes = (
"325 268 OFFCURVE",
"284 310 OFFCURVE",
"227 310 CURVE SMOOTH",
"144 310 OFFCURVE",
"94 253 OFFCURVE",
"94 172 CURVE SMOOTH",
"94 74 OFFCURVE",
"187 -12 OFFCURVE",
"187 -12 CURVE",
"240 11 LINE",
"217 36 OFFCURVE",
"151 102 OFFCURVE",
"151 172 CURVE SMOOTH",
"151 221 OFFCURVE",
"179 256 OFFCURVE",
"226 256 CURVE SMOOTH",
"280 256 OFFCURVE",
"305 182 OFFCURVE",
"305 182 CURVE",
"342 227 LINE"
);
},
{
closed = 1;
nodes = (
"408 270 LINE",
"464 270 LINE",
"464 456 LINE",
"408 456 LINE"
);
},
{
closed = 1;
nodes = (
"26 456 LINE",
"26 408 LINE",
"604 408 LINE",
"604 456 LINE"
);
},
{
closed = 1;
nodes = (
"325 268 OFFCURVE",
"284 310 OFFCURVE",
"227 310 CURVE SMOOTH",
"144 310 OFFCURVE",
"94 253 OFFCURVE",
"94 172 CURVE SMOOTH",
"94 74 OFFCURVE",
"187 -12 OFFCURVE",
"187 -12 CURVE",
"240 11 LINE",
"217 36 OFFCURVE",
"151 102 OFFCURVE",
"151 172 CURVE SMOOTH",
"151 221 OFFCURVE",
"179 256 OFFCURVE",
"226 256 CURVE SMOOTH",
"280 256 OFFCURVE",
"305 182 OFFCURVE",
"305 182 CURVE",
"342 227 LINE"
);
},
{
closed = 1;
nodes = (
"486 -188 OFFCURVE",
"520 -179 OFFCURVE",
"547 -163 CURVE",
"523 -121 LINE",
"503 -133 OFFCURVE",
"483 -140 OFFCURVE",
"457 -140 CURVE SMOOTH",
"427 -140 OFFCURVE",
"410 -126 OFFCURVE",
"410 -100 CURVE SMOOTH",
"410 -73 OFFCURVE",
"434 -56 OFFCURVE",
"467 -55 CURVE SMOOTH",
"498 -55 LINE",
"510 -55 LINE",
"510 -10 LINE",
"432 -15 OFFCURVE",
"423 11 OFFCURVE",
"423 32 CURVE SMOOTH",
"423 60 OFFCURVE",
"450 68 OFFCURVE",
"480 91 CURVE SMOOTH",
"511 115 OFFCURVE",
"535 142 OFFCURVE",
"536 190 CURVE SMOOTH",
"537 249 OFFCURVE",
"491 308 OFFCURVE",
"415 308 CURVE SMOOTH",
"349 308 OFFCURVE",
"285 266 OFFCURVE",
"285 164 CURVE SMOOTH",
"285 154 OFFCURVE",
"287 128 OFFCURVE",
"289 118 CURVE",
"342 110 LINE",
"341 120 OFFCURVE",
"338 140 OFFCURVE",
"338 162 CURVE SMOOTH",
"338 217 OFFCURVE",
"364 257 OFFCURVE",
"412 256 CURVE SMOOTH",
"461 256 OFFCURVE",
"482 221 OFFCURVE",
"482 189 CURVE SMOOTH",
"482 153 OFFCURVE",
"454 134 OFFCURVE",
"437 122 CURVE",
"405 99 OFFCURVE",
"371 76 OFFCURVE",
"371 33 CURVE SMOOTH",
"371 7 OFFCURVE",
"384 -19 OFFCURVE",
"417 -31 CURVE",
"385 -40 OFFCURVE",
"360 -64 OFFCURVE",
"360 -101 CURVE SMOOTH",
"360 -142 OFFCURVE",
"387 -188 OFFCURVE",
"457 -188 CURVE SMOOTH"
);
}
);
};
layerId = "CFA4B904-E3F1-48B6-A7F6-47DC1FF2A3E1";
paths = (
{
closed = 1;
nodes = (
"318 260 LINE",
"398 260 LINE",
"438 466 LINE",
"358 466 LINE"
);
},
{
closed = 1;
nodes = (
"-10 466 LINE",
"-24 396 LINE",
"579 396 LINE",
"593 466 LINE"
);
},
{
closed = 1;
nodes = (
"253 274 OFFCURVE",
"220 311 OFFCURVE",
"153 311 CURVE SMOOTH",
"80 311 OFFCURVE",
"18 262 OFFCURVE",
"2 179 CURVE SMOOTH",
"-18 77 OFFCURVE",
"59 -22 OFFCURVE",
"59 -22 CURVE",
"139 10 LINE",
"121 32 OFFCURVE",
"70 108 OFFCURVE",
"81 162 CURVE SMOOTH",
"89 205 OFFCURVE",
"113 230 OFFCURVE",
"157 230 CURVE SMOOTH",
"196 230 OFFCURVE",
"206 185 OFFCURVE",
"206 185 CURVE",
"274 233 LINE"
);
},
{
closed = 1;
nodes = (
"338 47 OFFCURVE",
"372 70 OFFCURVE",
"396 89 CURVE SMOOTH",
"422 115 OFFCURVE",
"451 144 OFFCURVE",
"459 184 CURVE SMOOTH",
"473 258 OFFCURVE",
"428 309 OFFCURVE",
"342 309 CURVE",
"262 309 OFFCURVE",
"206 276 OFFCURVE",
"186 176 CURVE SMOOTH",
"184 162 OFFCURVE",
"180 131 OFFCURVE",
"179 124 CURVE",
"178 121 OFFCURVE",
"253 108 OFFCURVE",
"253 105 CURVE",
"253 112 OFFCURVE",
"256 137 OFFCURVE",
"259 155 CURVE SMOOTH",
"269 204 OFFCURVE",
"296 232 OFFCURVE",
"334 231 CURVE",
"372 231 OFFCURVE",
"382 217 OFFCURVE",
"377 192 CURVE SMOOTH",
"372 162 OFFCURVE",
"342 144 OFFCURVE",
"315 121 CURVE SMOOTH",
"281 85 OFFCURVE",
"269 68 OFFCURVE",
"264 43 CURVE",
"257 3 OFFCURVE",
"273 -20 OFFCURVE",
"289 -34 CURVE",
"263 -50 OFFCURVE",
"240 -69 OFFCURVE",
"233 -104 CURVE SMOOTH",
"223 -155 OFFCURVE",
"254 -201 OFFCURVE",
"329 -201 CURVE SMOOTH",
"363 -201 OFFCURVE",
"400 -191 OFFCURVE",
"430 -176 CURVE",
"404 -114 LINE",
"383 -124 OFFCURVE",
"359 -133 OFFCURVE",
"331 -133 CURVE SMOOTH",
"313 -133 OFFCURVE",
"300 -125 OFFCURVE",
"303 -107 CURVE SMOOTH",
"310 -75 OFFCURVE",
"343 -70 OFFCURVE",
"370 -70 CURVE SMOOTH",
"396 -70 LINE",
"409 -4 LINE",
"372 -4 LINE",
"339 -4 OFFCURVE",
"330 6 OFFCURVE",
"334 23 CURVE"
);
}
);
width = 569;
}
);
unicode = 0961;
},
{
glyphname = "eShort-deva";
lastChange = "2019-01-30 08:38:31 +0000";
layers = (
{
components = (
{
name = "e-deva";
}
);
layerId = "CFA4B904-E3F1-48B6-A7F6-47DC1FF2A3E1";
paths = (
{
closed = 1;
nodes = (
"376 539 OFFCURVE",
"304 578 OFFCURVE",
"239 578 CURVE",
"213 578 OFFCURVE",
"206 579 OFFCURVE",
"194 579 CURVE SMOOTH",
"156 585 OFFCURVE",
"147 607 OFFCURVE",
"150 664 CURVE",
"75 644 LINE",
"63 547 OFFCURVE",
"123 506 OFFCURVE",
"200 506 CURVE",
"274 506 OFFCURVE",
"284 491 OFFCURVE",
"275 440 CURVE",
"355 434 LINE"
);
}
);
width = 453;
}
);
unicode = 090E;
},
{
glyphname = "e-deva";
lastChange = "2019-01-30 08:38:31 +0000";
layers = (
{
anchors = (
{
name = top;
position = "{224, 447}";
}
);
background = {
paths = (
{
closed = 1;
nodes = (
"5 152 LINE",
"227 -62 LINE",
"291 0 LINE",
"94 191 LINE",
"149 466 LINE",
"64 466 LINE"
);
},
{
closed = 1;
nodes = (
"-10 466 LINE",
"-24 396 LINE",
"463 396 LINE",
"477 466 LINE"
);
},
{
closed = 1;
nodes = (
"274 287 LINE",
"261 231 OFFCURVE",
"256 207 OFFCURVE",
"208 190 CURVE",
"238 115 LINE",
"307 141 OFFCURVE",
"335 170 OFFCURVE",
"351 250 CURVE",
"393 466 LINE",
"309 466 LINE"
);
}
);
};
layerId = "CFA4B904-E3F1-48B6-A7F6-47DC1FF2A3E1";
paths = (
{
closed = 1;
nodes = (
"5 152 LINE",
"227 -62 LINE",
"283 -8 LINE",
"92 178 LINE",
"149 466 LINE",
"64 466 LINE"
);
},
{
closed = 1;
nodes = (
"-10 466 LINE",
"-24 396 LINE",
"463 396 LINE",
"477 466 LINE"
);
},
{
closed = 1;
nodes = (
"274 287 LINE",
"261 231 OFFCURVE",
"256 207 OFFCURVE",
"208 190 CURVE",
"238 115 LINE",
"307 141 OFFCURVE",
"335 170 OFFCURVE",
"351 250 CURVE",
"393 466 LINE",
"309 466 LINE"
);
}
);
width = 453;
}
);
unicode = 090F;
},
{
glyphname = "ai-deva";
lastChange = "2019-01-30 08:38:31 +0000";
layers = (
{
background = {
paths = (
{
closed = 1;
nodes = (
"304 586 LINE",
"272 636 OFFCURVE",
"249 658 OFFCURVE",
"199 658 CURVE",
"129 632 LINE",
"148 579 LINE",
"195 586 LINE",
"214 586 OFFCURVE",
"223 576 OFFCURVE",
"240 550 CURVE",
"305 437 LINE",
"395 437 LINE"
);
}
);
};
components = (
{
name = "e-deva";
}
);
layerId = "CFA4B904-E3F1-48B6-A7F6-47DC1FF2A3E1";
paths = (
{
closed = 1;
nodes = (
"307 586 LINE",
"275 636 OFFCURVE",
"246 659 OFFCURVE",
"196 659 CURVE",
"171 659 OFFCURVE",
"152 653 OFFCURVE",
"127 645 CURVE",
"151 579 LINE",
"167 584 OFFCURVE",
"182 586 OFFCURVE",
"198 586 CURVE",
"217 586 OFFCURVE",
"226 576 OFFCURVE",
"243 550 CURVE",
"310 437 LINE",
"398 437 LINE"
);
}
);
width = 461;
}
);
unicode = 0910;
},
{
glyphname = "ai_anusvara-deva";
lastChange = "2019-01-30 08:38:31 +0000";
layers = (
{
background = {
paths = (
{
closed = 1;
nodes = (
"441 520 OFFCURVE",
"460 539 OFFCURVE",
"460 566 CURVE SMOOTH",
"460 594 OFFCURVE",
"441 613 OFFCURVE",
"413 613 CURVE SMOOTH",
"386 613 OFFCURVE",
"367 594 OFFCURVE",
"367 566 CURVE SMOOTH",
"367 539 OFFCURVE",
"386 520 OFFCURVE",
"413 520 CURVE SMOOTH"
);
},
{
closed = 1;
nodes = (
"307 586 LINE",
"275 636 OFFCURVE",
"246 659 OFFCURVE",
"196 659 CURVE",
"171 659 OFFCURVE",
"152 653 OFFCURVE",
"127 645 CURVE",
"151 579 LINE",
"167 584 OFFCURVE",
"182 586 OFFCURVE",
"198 586 CURVE",
"217 586 OFFCURVE",
"226 576 OFFCURVE",
"243 550 CURVE",
"310 437 LINE",
"398 437 LINE"
);
}
);
};
components = (
{
name = "e-deva";
}
);
layerId = "CFA4B904-E3F1-48B6-A7F6-47DC1FF2A3E1";
paths = (
{
closed = 1;
nodes = (
"306 586 LINE",
"274 636 OFFCURVE",
"245 659 OFFCURVE",
"195 659 CURVE",
"170 659 OFFCURVE",
"151 653 OFFCURVE",
"126 645 CURVE",
"150 579 LINE",
"166 584 OFFCURVE",
"181 586 OFFCURVE",
"197 586 CURVE",
"216 586 OFFCURVE",
"225 576 OFFCURVE",
"242 550 CURVE",
"309 437 LINE",
"397 437 LINE"
);
},
{
closed = 1;
nodes = (
"412 560 OFFCURVE",
"431 576 OFFCURVE",
"436 599 CURVE SMOOTH",
"442 631 OFFCURVE",
"424 653 OFFCURVE",
"394 653 CURVE SMOOTH",
"369 653 OFFCURVE",
"350 637 OFFCURVE",
"345 613 CURVE SMOOTH",
"339 582 OFFCURVE",
"357 560 OFFCURVE",
"386 560 CURVE SMOOTH"
);
}
);
width = 453;
}
);
leftMetricsKey = "e-deva";
rightMetricsKey = "e-deva";
},
{
glyphname = "ai_candraBindu-deva";
lastChange = "2019-01-30 08:38:31 +0000";
layers = (
{
background = {
paths = (
{
closed = 1;
nodes = (
"437 629 OFFCURVE",
"451 642 OFFCURVE",
"451 662 CURVE SMOOTH",
"451 682 OFFCURVE",
"437 696 OFFCURVE",
"417 696 CURVE SMOOTH",
"397 696 OFFCURVE",
"384 682 OFFCURVE",
"384 662 CURVE SMOOTH",
"384 642 OFFCURVE",
"397 629 OFFCURVE",
"417 629 CURVE SMOOTH"
);
},
{
closed = 1;
nodes = (
"482 545 OFFCURVE",
"521 582 OFFCURVE",
"534 628 CURVE",
"485 650 LINE",
"471 614 OFFCURVE",
"450 597 OFFCURVE",
"418 597 CURVE SMOOTH",
"386 597 OFFCURVE",
"365 614 OFFCURVE",
"350 650 CURVE",
"302 628 LINE",
"314 582 OFFCURVE",
"354 545 OFFCURVE",
"418 545 CURVE SMOOTH"
);
},
{
closed = 1;
nodes = (
"307 586 LINE",
"275 636 OFFCURVE",
"246 659 OFFCURVE",
"196 659 CURVE",
"171 659 OFFCURVE",
"152 653 OFFCURVE",
"127 645 CURVE",
"151 579 LINE",
"167 584 OFFCURVE",
"182 586 OFFCURVE",
"198 586 CURVE",
"217 586 OFFCURVE",
"226 576 OFFCURVE",
"243 550 CURVE",
"310 437 LINE",
"398 437 LINE"
);
}
);
};
components = (
{
name = "e-deva";
}
);
layerId = "CFA4B904-E3F1-48B6-A7F6-47DC1FF2A3E1";
paths = (
{
closed = 1;
nodes = (
"459 629 OFFCURVE",
"472 639 OFFCURVE",
"475 655 CURVE SMOOTH",
"480 679 OFFCURVE",
"466 696 OFFCURVE",
"444 696 CURVE SMOOTH",
"426 696 OFFCURVE",
"414 685 OFFCURVE",
"411 669 CURVE SMOOTH",
"406 645 OFFCURVE",
"419 629 OFFCURVE",
"441 629 CURVE SMOOTH"
);
},
{
closed = 1;
nodes = (
"494 545 OFFCURVE",
"537 580 OFFCURVE",
"559 626 CURVE",
"514 653 LINE",
"493 617 OFFCURVE",
"469 597 OFFCURVE",
"435 597 CURVE SMOOTH",
"405 597 OFFCURVE",
"386 611 OFFCURVE",
"378 647 CURVE",
"328 631 LINE",
"335 585 OFFCURVE",
"366 545 OFFCURVE",
"432 545 CURVE SMOOTH"
);
},
{
closed = 1;
nodes = (
"306 586 LINE",
"274 636 OFFCURVE",
"245 659 OFFCURVE",
"195 659 CURVE",
"170 659 OFFCURVE",
"151 653 OFFCURVE",
"126 645 CURVE",
"150 579 LINE",
"166 584 OFFCURVE",
"180 586 OFFCURVE",
"196 586 CURVE",
"215 586 OFFCURVE",
"225 576 OFFCURVE",
"242 550 CURVE",
"309 437 LINE",
"397 437 LINE"
);
}
);
width = 453;
}
);
leftMetricsKey = "ai-deva";
rightMetricsKey = "ai-deva";
},
{
glyphname = "o_anusvara-deva";
lastChange = "2019-01-30 08:38:31 +0000";
layers = (
{
background = {
paths = (
{
closed = 1;
nodes = (
"852 520 OFFCURVE",
"871 539 OFFCURVE",
"871 566 CURVE SMOOTH",
"871 594 OFFCURVE",
"852 613 OFFCURVE",
"824 613 CURVE SMOOTH",
"797 613 OFFCURVE",
"778 594 OFFCURVE",
"778 566 CURVE SMOOTH",
"778 539 OFFCURVE",
"797 520 OFFCURVE",
"824 520 CURVE SMOOTH"
);
},
{
closed = 1;
nodes = (
"696 586 LINE",
"664 636 OFFCURVE",
"635 659 OFFCURVE",
"585 659 CURVE",
"560 659 OFFCURVE",
"541 653 OFFCURVE",
"516 645 CURVE",
"540 579 LINE",
"556 584 OFFCURVE",
"571 586 OFFCURVE",
"587 586 CURVE",
"606 586 OFFCURVE",
"615 576 OFFCURVE",
"632 550 CURVE",
"699 437 LINE",
"787 437 LINE"
);
}
);
};
components = (
{
name = "aa-deva";
},
{
name = "eMatra_anusvara-deva";
transform = "{1, 0, 0, 1, 846, 0}";
}
);
layerId = "CFA4B904-E3F1-48B6-A7F6-47DC1FF2A3E1";
width = 843;
}
);
leftMetricsKey = "o-deva";
rightMetricsKey = "o-deva";
},
{
glyphname = "o_candraBindu-deva";
lastChange = "2019-01-30 08:38:31 +0000";
layers = (
{
background = {
paths = (
{
closed = 1;
nodes = (
"808 629 OFFCURVE",
"822 642 OFFCURVE",
"822 662 CURVE SMOOTH",
"822 682 OFFCURVE",
"808 696 OFFCURVE",
"788 696 CURVE SMOOTH",
"768 696 OFFCURVE",
"755 682 OFFCURVE",
"755 662 CURVE SMOOTH",
"755 642 OFFCURVE",
"768 629 OFFCURVE",
"788 629 CURVE SMOOTH"
);
},
{
closed = 1;
nodes = (
"853 545 OFFCURVE",
"892 582 OFFCURVE",
"905 628 CURVE",
"856 650 LINE",
"842 614 OFFCURVE",
"821 597 OFFCURVE",
"789 597 CURVE SMOOTH",
"757 597 OFFCURVE",
"736 614 OFFCURVE",
"721 650 CURVE",
"673 628 LINE",
"685 582 OFFCURVE",
"725 545 OFFCURVE",
"789 545 CURVE SMOOTH"
);
},
{
closed = 1;
nodes = (
"702 586 LINE",
"670 636 OFFCURVE",
"641 659 OFFCURVE",
"591 659 CURVE",
"566 659 OFFCURVE",
"547 653 OFFCURVE",
"522 645 CURVE",
"546 579 LINE",
"562 584 OFFCURVE",
"577 586 OFFCURVE",
"593 586 CURVE",
"612 586 OFFCURVE",
"621 576 OFFCURVE",
"638 550 CURVE",
"705 437 LINE",
"793 437 LINE"
);
}
);
};
components = (
{
name = "aa-deva";
},
{
name = "eMatra_candraBindu-deva";
transform = "{1, 0, 0, 1, 846, 0}";
}
);
layerId = "CFA4B904-E3F1-48B6-A7F6-47DC1FF2A3E1";
width = 843;
}
);
leftMetricsKey = "o-deva";
rightMetricsKey = "o-deva";
},
{
glyphname = "au_anusvara-deva";
lastChange = "2019-01-30 08:38:31 +0000";
layers = (
{
background = {
paths = (
{
closed = 1;
nodes = (
"851 520 OFFCURVE",
"870 539 OFFCURVE",
"870 566 CURVE SMOOTH",
"870 594 OFFCURVE",
"851 613 OFFCURVE",
"823 613 CURVE SMOOTH",
"796 613 OFFCURVE",
"777 594 OFFCURVE",
"777 566 CURVE SMOOTH",
"777 539 OFFCURVE",
"796 520 OFFCURVE",
"823 520 CURVE SMOOTH"
);
},
{
closed = 1;
nodes = (
"773 598 LINE SMOOTH",
"762 669 OFFCURVE",
"732 697 OFFCURVE",
"679 697 CURVE SMOOTH",
"656 697 OFFCURVE",
"626 689 OFFCURVE",
"626 689 CURVE",
"628 623 LINE",
"637 625 OFFCURVE",
"659 629 OFFCURVE",
"676 629 CURVE SMOOTH",
"703 629 OFFCURVE",
"708 598 OFFCURVE",
"717 569 CURVE SMOOTH",
"736 493 LINE",
"681 544 LINE",
"647 577 OFFCURVE",
"622 612 OFFCURVE",
"583 612 CURVE SMOOTH",
"558 612 OFFCURVE",
"524 596 OFFCURVE",
"524 596 CURVE",
"530 531 LINE",
"529 531 OFFCURVE",
"562 542 OFFCURVE",
"579 542 CURVE SMOOTH",
"597 542 OFFCURVE",
"611 524 OFFCURVE",
"645 496 CURVE SMOOTH",
"710 437 LINE",
"802 437 LINE"
);
}
);
};
components = (
{
name = "aa-deva";
},
{
name = "aiMatra_anusvara-deva";
transform = "{1, 0, 0, 1, 855, 0}";
}
);
layerId = "CFA4B904-E3F1-48B6-A7F6-47DC1FF2A3E1";
width = 843;
}
);
leftMetricsKey = "au-deva";
rightMetricsKey = "au-deva";
},
{
glyphname = "au_candraBindu-deva";
lastChange = "2019-01-30 08:38:31 +0000";
layers = (
{
background = {
paths = (
{
closed = 1;
nodes = (
"863 629 OFFCURVE",
"877 642 OFFCURVE",
"877 662 CURVE SMOOTH",
"877 682 OFFCURVE",
"863 696 OFFCURVE",
"843 696 CURVE SMOOTH",
"823 696 OFFCURVE",
"810 682 OFFCURVE",
"810 662 CURVE SMOOTH",
"810 642 OFFCURVE",
"823 629 OFFCURVE",
"843 629 CURVE SMOOTH"
);
},
{
closed = 1;
nodes = (
"908 545 OFFCURVE",
"947 582 OFFCURVE",
"960 628 CURVE",
"911 650 LINE",
"897 614 OFFCURVE",
"876 597 OFFCURVE",
"844 597 CURVE SMOOTH",
"812 597 OFFCURVE",
"791 614 OFFCURVE",
"776 650 CURVE",
"728 628 LINE",
"740 582 OFFCURVE",
"780 545 OFFCURVE",
"844 545 CURVE SMOOTH"
);
},
{
closed = 1;
nodes = (
"783 598 LINE SMOOTH",
"772 669 OFFCURVE",
"742 697 OFFCURVE",
"689 697 CURVE SMOOTH",
"666 697 OFFCURVE",
"636 689 OFFCURVE",
"636 689 CURVE",
"638 623 LINE",
"647 625 OFFCURVE",
"669 629 OFFCURVE",
"686 629 CURVE SMOOTH",
"713 629 OFFCURVE",
"718 598 OFFCURVE",
"727 569 CURVE SMOOTH",
"746 493 LINE",
"691 544 LINE",
"657 577 OFFCURVE",
"632 612 OFFCURVE",
"593 612 CURVE SMOOTH",
"568 612 OFFCURVE",
"534 596 OFFCURVE",
"534 596 CURVE",
"540 531 LINE",
"539 531 OFFCURVE",
"572 542 OFFCURVE",
"589 542 CURVE SMOOTH",
"607 542 OFFCURVE",
"621 524 OFFCURVE",
"655 496 CURVE SMOOTH",
"720 437 LINE",
"812 437 LINE"
);
}
);
};
components = (
{
name = "aa-deva";
},
{
name = "aiMatra_candraBindu-deva";
transform = "{1, 0, 0, 1, 855, 0}";
}
);
layerId = "CFA4B904-E3F1-48B6-A7F6-47DC1FF2A3E1";
width = 843;
}
);
leftMetricsKey = "au-deva";
rightMetricsKey = "au-deva";
},
{
glyphname = "oe-deva";
lastChange = "2019-01-30 08:38:31 +0000";
layers = (
{
background = {
paths = (
{
closed = 1;
nodes = (
"575 440 LINE",
"629 440 LINE",
"629 550 LINE",
"575 550 LINE"
);
}
);
};
components = (
{
name = "a-deva";
}
);
layerId = "CFA4B904-E3F1-48B6-A7F6-47DC1FF2A3E1";
paths = (
{
closed = 1;
nodes = (
"464 440 LINE",
"549 440 LINE",
"572 560 LINE",
"487 560 LINE"
);
}
);
width = 616;
}
);
unicode = 0973;
},
{
glyphname = "ooe-deva";
lastChange = "2019-01-30 08:38:31 +0000";
layers = (
{
components = (
{
name = "aa-deva";
}
);
layerId = "CFA4B904-E3F1-48B6-A7F6-47DC1FF2A3E1";
paths = (
{
closed = 1;
nodes = (
"689 440 LINE",
"774 440 LINE",
"797 560 LINE",
"712 560 LINE"
);
}
);
width = 843;
}
);
unicode = 0974;
},
{
glyphname = "aw-deva";
lastChange = "2019-01-30 08:38:31 +0000";
layers = (
{
background = {
paths = (
{
closed = 1;
nodes = (
"807 560 OFFCURVE",
"699 562 OFFCURVE",
"640 565 CURVE SMOOTH",
"595 567 OFFCURVE",
"573 581 OFFCURVE",
"565 638 CURVE",
"518 621 LINE",
"525 520 OFFCURVE",
"615 516 OFFCURVE",
"651 516 CURVE SMOOTH",
"731 516 OFFCURVE",
"762 495 OFFCURVE",
"762 437 CURVE",
"807 437 LINE"
);
},
{
closed = 1;
nodes = (
"863 469 OFFCURVE",
"867 487 OFFCURVE",
"867 503 CURVE SMOOTH",
"867 584 OFFCURVE",
"806 602 OFFCURVE",
"750 629 CURVE SMOOTH",
"719 644 OFFCURVE",
"702 659 OFFCURVE",
"702 692 CURVE SMOOTH",
"702 700 OFFCURVE",
"703 711 OFFCURVE",
"706 723 CURVE",
"657 725 LINE",
"652 710 OFFCURVE",
"650 697 OFFCURVE",
"650 684 CURVE SMOOTH",
"650 617 OFFCURVE",
"714 589 OFFCURVE",
"743 578 CURVE SMOOTH",
"796 558 OFFCURVE",
"819 539 OFFCURVE",
"819 501 CURVE SMOOTH",
"819 491 OFFCURVE",
"817 479 OFFCURVE",
"812 467 CURVE",
"803 449 LINE",
"847 426 LINE",
"854 449 LINE"
);
},
{
closed = 1;
nodes = (
"836 542 OFFCURVE",
"759 576 OFFCURVE",
"684 576 CURVE",
"672 576 OFFCURVE",
"661 577 OFFCURVE",
"651 578 CURVE SMOOTH",
"610 583 OFFCURVE",
"594 610 OFFCURVE",
"586 667 CURVE",
"515 641 LINE",
"522 544 OFFCURVE",
"586 504 OFFCURVE",
"662 504 CURVE",
"738 504 OFFCURVE",
"754 483 OFFCURVE",
"754 437 CURVE",
"836 437 LINE"
);
},
{
closed = 1;
nodes = (
"948 551 OFFCURVE",
"886 609 OFFCURVE",
"815 633 CURVE",
"804 637 OFFCURVE",
"794 642 OFFCURVE",
"785 646 CURVE SMOOTH",
"748 664 OFFCURVE",
"741 695 OFFCURVE",
"753 751 CURVE",
"677 750 LINE",
"652 656 OFFCURVE",
"699 597 OFFCURVE",
"771 572 CURVE",
"843 547 OFFCURVE",
"851 522 OFFCURVE",
"836 479 CURVE",
"827 453 LINE",
"913 452 LINE"
);
}
);
};
components = (
{
name = "aa-deva";
}
);
layerId = "CFA4B904-E3F1-48B6-A7F6-47DC1FF2A3E1";
paths = (
{
closed = 1;
nodes = (
"754 539 OFFCURVE",
"676 568 OFFCURVE",
"604 568 CURVE",
"538 568 OFFCURVE",
"524 581 OFFCURVE",
"528 664 CURVE",
"461 646 LINE",
"449 549 OFFCURVE",
"502 504 OFFCURVE",
"580 504 CURVE",
"660 504 OFFCURVE",
"672 490 OFFCURVE",
"663 440 CURVE",
"733 434 LINE"
);
},
{
closed = 1;
nodes = (
"815 471 OFFCURVE",
"823 492 OFFCURVE",
"825 506 CURVE SMOOTH",
"841 592 OFFCURVE",
"780 611 OFFCURVE",
"736 632 CURVE SMOOTH",
"708 651 OFFCURVE",
"691 664 OFFCURVE",
"699 704 CURVE SMOOTH",
"702 720 OFFCURVE",
"708 733 OFFCURVE",
"713 748 CURVE",
"645 753 LINE",
"637 735 OFFCURVE",
"633 718 OFFCURVE",
"631 707 CURVE SMOOTH",
"617 636 OFFCURVE",
"649 612 OFFCURVE",
"686 591 CURVE SMOOTH",
"720 566 OFFCURVE",
"765 557 OFFCURVE",
"758 519 CURVE SMOOTH",
"755 506 OFFCURVE",
"750 495 OFFCURVE",
"744 482 CURVE",
"729 453 LINE",
"802 449 LINE"
);
}
);
width = 843;
}
);
unicode = 0975;
},
